<?xml version="1.0" standalone="no"?>
<!DOCTYPE svg PUBLIC "-//W3C//DTD SVG 1.1//EN" "http://www.w3.org/Graphics/SVG/1.1/DTD/svg11.dtd" >
<svg xmlns="http://www.w3.org/2000/svg">
<metadata></metadata>
<defs>
<font id="almontesnow" horiz-adv-x="966" >
<font-face units-per-em="2048" ascent="1569" descent="-479" />
<missing-glyph horiz-adv-x="735" />
<glyph horiz-adv-x="2048" />
<glyph horiz-adv-x="2048" />
<glyph unicode="&#xd;" horiz-adv-x="735" />
<glyph unicode=" "  horiz-adv-x="735" />
<glyph unicode="&#x09;" horiz-adv-x="735" />
<glyph unicode="&#xa0;" horiz-adv-x="735" />
<glyph unicode="!" horiz-adv-x="514" d="M39 1520q0 51 12 102t38 92t63.5 66.5t87.5 25.5q61 0 119.5 -33.5t84.5 -93.5q4 -59 10.5 -124.5t6.5 -131.5q0 -80 -14.5 -157.5t-55.5 -147.5l-35 -16l-8 -84q-14 -98 -26.5 -221t-24.5 -277h-96q-12 154 -24.5 277t-26.5 221l-41 278q-18 18 -32 46t-22 59t-12 61.5 t-4 57.5zM68 256q0 66 26.5 89.5t73.5 33.5q20 20 45 29.5t49 9.5q12 0 33 -4l6 -2l33 14q37 -20 66.5 -62t29.5 -90q0 -37 -22 -65l-9 -8q4 -17 4 -27q0 -72 -43 -123t-106 -51q-68 0 -113 50t-47 116q-16 20 -21 42.5t-5 47.5zM78 1495q0 -117 76 -201q0 -25 1 -59.5 t6 -66t17 -54t35 -22.5t41 16t27 39q8 -4 24 -4q31 0 51.5 33.5t32.5 80t17.5 93.5t5.5 75q0 72 -10.5 143.5t-24.5 137.5q-20 25 -57 40t-74 15q-20 0 -42 -9t-41.5 -21.5t-33.5 -26t-18 -21.5q-16 -45 -24.5 -91t-8.5 -97zM113 260q0 -23 13 -43t42 -24q2 -14 8 -32 t15.5 -32t22.5 -24.5t32 -10.5q33 0 46 26.5t17 55.5q33 6 65 29.5t32 58.5q0 49 -40 75t-85 26q-33 0 -60 -13q-6 2 -11 3t-11 1h-9q-37 -4 -57 -33.5t-20 -62.5z" />
<glyph unicode="&#x22;" horiz-adv-x="677" d="M57 1569q0 57 31 98v10q0 59 45 99.5t107 40.5q29 0 50 -19.5t36.5 -49.5t23.5 -63.5t8 -62.5q0 -41 -13 -80t-40 -72v-4l-41 -106q-16 -41 -25.5 -85t-19.5 -95h-6q-12 82 -30.5 143t-51.5 133q-39 10 -56.5 42t-17.5 71zM96 1579q0 -45 23.5 -64.5t32.5 -19.5q4 0 4 2 l2 -16q-6 -12 -6 -23q0 -18 14 -29.5t33 -11.5q10 0 30.5 9.5t40 24.5t34.5 35.5t15 43.5q0 25 -14 41v51q0 14 -1 39t-7 47.5t-19.5 39.5t-37.5 17q-37 0 -58 -14q-2 -2 -16 -20.5t-29.5 -45t-28 -56.5t-12.5 -50zM362 1563q0 72 41 138t103 95q18 -4 33.5 -11t31.5 -7 q29 0 47.5 -36t28.5 -82t13.5 -90t3.5 -63q0 -39 -31 -69.5t-66 -36.5l-16 -41q-29 -76 -45 -180h-8q-8 51 -17.5 97t-23.5 87l-31 68q-35 25 -49.5 58.5t-14.5 72.5zM393 1534q0 -35 33 -51q18 -16 39 -19q0 -27 14.5 -41t34.5 -14q16 0 27.5 8t15.5 25l8 24q35 8 42 44 t7 71q0 20 -4 48t-14 52.5t-26.5 41t-41.5 16.5q-20 0 -40.5 -12.5t-37 -29t-26.5 -36t-10 -33.5v-6q-4 -16 -12.5 -41t-8.5 -47z" />
<glyph unicode="#" horiz-adv-x="1142" d="M66 381v147h235l70 355h-221v145h253l58 313h114l-59 -313h254l66 313h110l-61 -313h194v-145h-225l-74 -355h215v-147h-241l-70 -322h-109l66 322h-256l-68 -322h-110l63 322h-204zM412 526h258l75 359h-262z" />
<glyph unicode="$" horiz-adv-x="954" d="M47 586q0 47 28.5 86t80.5 39q16 10 32.5 16t36.5 6q4 0 9.5 -1t11.5 -1h28q16 8 27.5 13.5t26.5 5.5q10 0 16 -2q4 0 9 1t9 1q29 0 49.5 -14.5t33 -37t17.5 -50t5 -54.5q0 -39 -35 -62q14 -31 55 -30q66 0 66 65q0 61 -27.5 113.5t-85.5 91.5l-211 141 q-111 102 -112 269q-10 6 -17.5 22.5t-12.5 36t-8 37.5t-3 29q0 53 24.5 101t63.5 86t88 66.5t98 41.5q-2 6 -2 22q0 23 9.5 48.5t25.5 48t38.5 38t49.5 15.5q12 0 32.5 -9.5t41 -27t35 -42t14.5 -53.5q0 -4 -1 -8t-1 -8q18 -2 45 -6t52.5 -14.5t45 -27.5t25.5 -44 q14 -14 29.5 -24.5t17.5 -12.5q41 -27 58.5 -71t17.5 -91q6 -4 10 -23.5t8 -45t6 -54t2 -51.5t-6 -45t-18.5 -42.5t-30.5 -33t-43 -12.5q-51 0 -80 45h-2q-29 10 -35 33h-141q0 53 -2 84t-9 47t-20.5 21.5t-34.5 5.5q-66 0 -65 -66q0 -129 96 -201q10 2 16.5 3t16.5 1 q57 0 115.5 -24.5t106.5 -67.5t79 -101t31 -126q0 -47 -25 -84q2 -10 2 -31q0 -70 -24.5 -132t-68.5 -111.5t-104.5 -82t-132.5 -44.5q18 -139 19 -158q0 -20 -62 -21q-59 0 -59 41l18 138q-59 8 -112 32.5t-96 63.5t-74 88t-41 106h-10q-35 0 -50.5 35t-15.5 64zM74 608 q0 -39 29.5 -66.5t68.5 -27.5h12q6 -16 12.5 -38.5t16.5 -43t25.5 -35t40.5 -14.5q20 0 36 16v-65q0 -27 13.5 -38t29.5 -11q18 0 34 11t16 38q0 41 -3.5 80t-3.5 80q0 25 6.5 40t13.5 28t13 26.5t6 34.5q0 94 -104 94q-49 0 -90 -10.5t-84 -18.5q-12 4 -21 4q-23 0 -37 -20 q-31 -29 -30 -64zM137 1341q0 -23 13.5 -53.5t42.5 -30.5t48 23t36.5 50.5t38 53t51.5 29.5q23 -31 57.5 -51.5t75.5 -20.5q18 0 37 7q16 -20 34.5 -32.5t18.5 -37.5q0 -12 -1 -25.5t-1 -27.5q0 -25 12 -49.5t39 -24.5h2q8 -6 21 -6q10 0 18 6t16 6q14 -14 22.5 -28.5 t16.5 -26.5t21.5 -19.5t36.5 -7.5q29 0 51 25.5t22 60.5t-8 69t-8 66q0 23 6 41q-12 45 -38.5 82t-72.5 47q-10 57 -55 80t-98 23h-23q-4 12 -11 22.5t-11 22.5l-12 10q6 18 6 37q0 27 -21.5 55.5t-62.5 28.5q-23 0 -36 -10.5t-21.5 -25.5t-11.5 -32.5t-3 -29.5 q0 -8 1 -15.5t1 -15.5q-10 -7 -12 -25q0 -16 -37 -35.5t-82 -47t-82 -67.5t-37 -100zM199 516q2 2 4 2t6 2h2l-10 -6zM508 926q0 -18 14 -33l13 -14q8 -20 32 -27q2 -16 3 -35.5t6.5 -38t16.5 -32t34 -17.5h24q14 0 25 8q14 -37 14 -86q0 -29 -3 -59.5t-3 -61.5 q0 -16 1 -34.5t6 -35t16.5 -27.5t29.5 -11q43 0 62.5 33.5t19.5 70.5q33 57 33 129q0 53 -18.5 105.5t-51 95.5t-78 73t-98.5 40q-4 4 -20.5 5t-26.5 1q-25 0 -38 -15.5t-13 -33.5z" />
<glyph unicode="%" horiz-adv-x="946" d="M27 1444q0 63 18 121.5t54 102.5t87.5 69.5t116.5 25.5q49 0 93 -21.5t77 -68.5q10 -41 33.5 -82t23.5 -86q0 -6 -4 -23.5t-10 -38t-15 -39t-20 -26.5v-221q0 -43 -16 -79t-44 -63.5t-63.5 -43t-76.5 -15.5q-86 0 -144.5 57.5t-58.5 143.5v209q-23 0 -37 20.5t-14 57.5z M49 1454q0 -25 10.5 -47.5t40.5 -22.5q4 0 15.5 -15t27.5 -15q20 0 37 16l4 4q16 16 17 35q0 10 -3 23.5t-3 25.5v-26q-6 10 -19.5 25.5t-17.5 19.5l37 36v-22q4 29 23.5 55.5t53.5 26.5q39 0 55.5 -31t27 -67.5t21.5 -67.5t40 -31q18 0 32.5 14.5t25.5 34t16.5 41t5.5 35.5 q0 53 -28 102.5t-65 84.5q-12 4 -24 7t-25 9l-6 2l2 -2l-8 4l6 -2q-10 8 -24.5 14t-30.5 6q-43 0 -86 -24.5t-79 -64.5t-57.5 -88t-21.5 -95zM168 16q10 39 17.5 77t19.5 77l49 152q12 39 29.5 90t38.5 116l49 166q8 35 21.5 90.5t37.5 106.5q8 39 25.5 72.5t37 66.5 t38 65.5t28.5 69.5l74 254q23 78 36 139.5t25.5 104.5t28.5 66.5t43 23.5q29 0 45 -19.5t20 -41.5q0 -10 -8 -75t-28 -190q-14 -27 -43 -26q16 63 31.5 105t15.5 89v74q0 25 -13.5 37t-29.5 12t-31.5 -10t-15.5 -33v-90q0 -45 -21.5 -106.5t-48.5 -128t-50.5 -135 t-29.5 -125.5q-23 -33 -42 -66t-38 -70l-26 -41q-10 -16 -16.5 -24t-13.5 -33t-17.5 -77t-26.5 -154l-25 -17q-76 -270 -117.5 -404t-41.5 -145v-22q0 -23 22 -23q14 0 21 15l8 10q4 8 4 12q0 2 -1 4t-1 4l6 11q51 186 84 305t53.5 190.5t29.5 107.5t15 55.5t10.5 34.5 t14.5 48q10 2 25.5 25.5t29.5 50t26.5 50.5t16.5 28q4 -2 10 -2q14 0 31 12q14 -14 35 -14q16 0 32.5 15t16.5 40q0 10 -4 21.5t-4 21.5q0 29 19.5 65.5t23.5 71.5q0 -8 6 -14q-14 -27 -14 -58q2 -33 2 -56.5v-39.5q0 -4 -2 -21.5t-8.5 -37t-18.5 -34.5t-33 -15 q-41 0 -59 28q-47 -41 -62.5 -72.5t-15.5 -44.5v-26l-70 -209q-29 -88 -46 -148.5t-28.5 -103.5t-18.5 -73.5t-17 -61.5q-14 -43 -20.5 -86t-15.5 -77t-28.5 -55.5t-58.5 -21.5q-18 0 -30.5 13.5t-12.5 33.5zM205 1090q0 -29 24 -39v-41l39 39h-4q-12 -4 -16 -5q-10 0 -19 7 v22q8 -8 23.5 -14t19.5 -6l-4 -4q2 2 6 2q12 0 25.5 9t24 21.5t16.5 24.5t6 20q0 12 -10 29q2 4 3 8t5 8l-18 -8q8 -2 10 -8l-10 -16q-6 12 -19 18l19 6q-14 14 -27 15q-29 0 -39.5 -9.5t-26.5 -25.5q-12 -8 -20 -24.5t-8 -28.5zM233 1169q10 18 29 28.5t39 10.5q18 0 27 -4 v301q0 47 -47 47t-48 -47v-336zM350 1704l2 -2l4 -4q0 4 -2 6h-4zM440 539q0 53 26 102t65.5 86t86 59.5t89.5 22.5q45 0 84.5 -19.5t70.5 -52t48.5 -73.5t17.5 -84q0 -25 -9.5 -63t-23.5 -52v-268q0 -41 -15.5 -76t-43 -62.5t-63.5 -43t-79 -15.5t-78.5 15.5t-63.5 43 t-43 62.5t-15 76v229l-7 4q-47 45 -47 109zM465 528q0 -16 2 -24q2 -23 15.5 -34t29.5 -11q4 0 6 -12.5t3 -29t1 -31.5v-19v-23l4 -2q8 -25 43 -25l33 9q4 4 9 11t5 15v4q0 6 1 13.5t1 15.5t-1 14.5t-1 14.5l-8 59q-6 31 -6 59q0 59 25.5 71.5t50.5 12.5q39 0 59.5 -17 t34.5 -36.5t26.5 -37t37.5 -17.5q41 0 51 24.5t10 45.5q0 39 -16.5 71.5t-42 57t-60.5 38t-71 13.5q-39 0 -81 -18.5t-78 -49.5t-59.5 -73t-23.5 -89zM616 137q1 -12 9 -20q10 -23 27.5 -33t27.5 -10q25 0 48.5 13t23.5 42v37q-12 16 -26.5 29.5t-37.5 13.5 q-29 0 -50.5 -24.5t-21.5 -47.5zM647 215q10 8 24.5 13t30.5 5q23 0 39 -8v322q0 47 -47 47t-47 -47v-332zM719 1212v9q0 -2 1 -3t1 -4zM719 1221v2q4 41 11 80.5t18 80.5q2 -6 3 -20t1 -25q0 -29 -10.5 -56t-18.5 -56q0 -2 -4 -6z" />
<glyph unicode="&#x26;" horiz-adv-x="1142" d="M66 535q0 317 153 464q-66 115 -78 254q-33 16 -46 46t-13 65q0 25 6 49.5t16 46.5q6 72 40 130.5t86.5 100.5t117 64.5t129.5 22.5q66 0 127.5 -23.5t108.5 -77.5q33 -59 53 -129.5t20 -142.5q0 -55 -19 -113.5t-53 -116t-80 -111.5t-99 -103l90 -156q10 16 18 34.5 t19.5 34t28 24.5t42.5 9q47 0 86 -35l-2 -2h4q29 -4 41 -29.5t27 -49.5l12 -5q23 -16 28 -45.5t5 -52.5q0 -31 -14 -59q-23 -16 -33 -40t-15.5 -50.5t-8.5 -54t-11 -52.5v-4h4q51 -37 88 -88q10 -31 29.5 -46t38 -31.5t33 -46.5t14.5 -87q0 -45 -21 -66l35 -63h-266 l-131 217q-12 -47 -36 -86t-56.5 -68.5t-68.5 -46t-73 -16.5q-158 0 -264 106q-43 43 -65.5 87.5t-32.5 96.5t-12 111.5t-2 133.5zM117 1362q0 -20 7 -45t34 -25q6 0 10 2h8q4 -6 12 -10q-8 -23 -8 -49q0 -16 6.5 -28.5t13.5 -25t13 -24.5t6 -29v-24q0 -70 47 -70 q25 0 45.5 28t22.5 44q4 -2 14 -2q6 0 10 2q2 -8 13 -14q0 -4 -1 -9.5t-1 -9.5q0 -10 9 -25.5t15 -19.5q0 -35 -2 -69.5t-2 -77.5q0 -41 8.5 -72t40.5 -31q29 0 38 17.5t9 58.5q0 35 -1 71t-1 70q0 41 11.5 72t11.5 63q0 29 -18.5 62t-53.5 33q-12 0 -26 -11l-2 -2 q-18 0 -21 -2q-6 0 -8 1t-6 1q4 -4 2 -4t2 -4q-4 0 -4 -6q-2 4 -4 5t-5 3l-8 4q2 2 17 2l-2 5q0 6 -2 8l-15 -15h2l-4 -2l2 2q-6 2 -11 3t-11 1h-6q-6 31 -7 64q0 29 9 47v35q10 10 14 22.5t8 23.5t9 18.5t18 7.5q2 0 4 -1t6 -1q14 10 33.5 18t38.5 12q2 -2 8 -2 q43 -4 74.5 -35.5t31.5 -76.5l17 -23q-2 -4 -2 -12q0 -33 32 -43q-12 -16 -12 -31q0 -16 14.5 -29.5t32.5 -13.5q27 0 48.5 24.5t36 59.5t21.5 73t7 64q0 80 -22.5 137.5t-62.5 96.5t-92 57t-110 18q-86 0 -162.5 -38.5t-123.5 -114.5q-31 -10 -32 -39t-5 -49 q-16 -27 -27.5 -57.5t-11.5 -63.5zM248 422q0 -18 6 -37.5t12 -36.5v-6q0 -27 19 -41l69 -65v-58q0 -43 9.5 -69.5t42.5 -26.5q16 0 30.5 12t14.5 35q0 14 -2.5 22.5t-2.5 22.5q12 -6 23 -6q23 0 42 12.5t19 38.5q0 10 -5 21.5t-5 27.5v33q6 12 6 23q0 10 -12 31.5t-35 33.5 h-6q-20 16 -37 17q-16 0 -27.5 -5.5t-23.5 -7.5h-18q-6 0 -8.5 -1t-6.5 -1l-2 -2q-8 14 -11 27.5t-6 24t-11.5 17.5t-26.5 7q-16 0 -31.5 -11.5t-15.5 -31.5zM352 467q25 0 41 -23q18 6 37 7q47 0 88 -31q2 25 12 61l-102 185q-76 -63 -76 -197v-2zM362 1315 q23 -4 34.5 -19.5t19.5 -27.5q12 4 16 4q10 0 30.5 -6t35.5 -15l12 -20q12 33 12 72q0 96 -80 96t-80 -82v-2zM446 176v2h7zM520 322v2h2zM590 1321l2 -6q-2 2 -2 6zM651 752q0 -23 8.5 -42.5t24.5 -29.5q6 -23 13.5 -46.5t17.5 -33.5q-2 -10 -3 -19.5t-1 -19.5 q0 -39 20 -67l10 -54v-30q0 -23 15.5 -34t31.5 -11q47 0 48 67q0 41 -5.5 81t-5.5 81q0 35 8.5 67.5t32.5 63.5q8 10 8 27q0 18 -10 26t-22.5 12.5t-23.5 9.5t-15 15q-10 10 -31.5 28.5t-42.5 18.5q-19 0 -33 -14q-23 -16 -34 -42t-11 -54zM827 272q1 -18 13 -30 q12 -18 16 -23q-4 -12 -4 -18t12.5 -28.5t30.5 -49.5t39.5 -47.5t40.5 -20.5q10 0 22.5 9.5t22.5 22.5t16 28.5t6 27.5q0 49 -34.5 86t-81.5 54q-8 4 -20.5 20t-31.5 16q-16 0 -31.5 -14t-15.5 -33z" />
<glyph unicode="'" horiz-adv-x="368" d="M49 1550q0 25 8.5 58.5t23.5 65.5t38.5 54.5t54.5 22.5q4 0 21 -4q8 4 24 4q27 0 44.5 -17.5t28.5 -41t17 -47t10 -33.5l13 -49q6 -25 6 -50q0 -20 -9.5 -45.5t-19.5 -29.5q-18 -170 -135 -213q14 27 14 63q0 20 -10 51q-16 -4 -18 -4t-3 1t-3 1q-51 33 -78 91.5 t-27 121.5zM82 1505q0 -18 5 -40.5t14.5 -41t22.5 -32t30 -13.5q18 0 33.5 12.5t15.5 32.5q0 9 -8 25q-18 27 -19 61q29 -6 46.5 -20t43.5 -14q29 0 41 16t12 41q0 29 -9 58.5t-26.5 54t-43 40t-56.5 15.5q-23 0 -41 -17.5t-32.5 -46t-21.5 -63.5t-7 -68z" />
<glyph unicode="(" horiz-adv-x="788" d="M102 797q0 643 338 1218h242q-184 -256 -278.5 -562t-94.5 -656q0 -631 375 -1221h-244q-338 571 -338 1221z" />
<glyph unicode=")" horiz-adv-x="784" d="M96 -424q102 154 174 298t118 290.5t66.5 301.5t20.5 331q0 182 -23.5 342.5t-70.5 308t-119 287t-166 280.5h244q174 -293 257 -591t83 -627q0 -334 -83 -633t-257 -588h-244z" />
<glyph unicode="*" horiz-adv-x="813" d="M139 1260q0 47 45 73.5t97 26.5q8 0 28 -4q-16 -2 -35.5 -8.5t-35.5 -14.5q-6 2 -15 2q-23 0 -34 -14t-11 -31q0 -18 15.5 -34.5t44.5 -16.5q20 0 41.5 6t40 15.5t29.5 22.5t11 26q0 35 -34 45l18 6q-16 18 -27.5 40.5t-25.5 43.5q-12 -23 -39 -23t-47.5 27t-20.5 57 q0 53 27 80t57 27q35 0 66 -24.5t53 -59.5q-23 16 -46.5 27.5t-51.5 11.5q-63 0 -64 -49q0 -16 11.5 -29.5t35.5 -13.5h13q18 0 30.5 -9.5t22.5 -20.5t19.5 -20.5t23.5 -9.5q6 0 10 2q2 -16 13.5 -28.5t35.5 -12.5l25 -10q8 -4 18 -4q23 0 35 12l2 2q4 0 6 2q2 -6 9 -8 q-2 -4 -3 -10q0 -14 5.5 -20.5t13.5 -11.5t19.5 -9t23.5 -12q6 -6 22.5 -17.5t35 -22t34.5 -17.5t27 -7q20 0 35.5 12.5t15.5 30.5q0 25 -20.5 43.5t-43.5 24.5l-41 35l-6 16q8 -4 17.5 -8t19.5 -13q2 0 4 1t4 1q53 0 78 -26.5t25 -71.5t-23.5 -78.5t-72.5 -33.5 q-41 0 -79 20.5t-63 48.5l-10 -2q-6 -2 -16 -2q-25 0 -43 19l26 -207l-82 -9l-18 232h-10l-115 -55q-20 -12 -35.5 -20.5t-34.5 -12.5l-22 -10l-4 10q-27 2 -43.5 22.5t-16.5 49.5zM434 1470q12 25 29.5 58t39 62.5t49.5 50t62 20.5q20 0 31 -6l2 -2q37 -10 54.5 -38 t17.5 -61q0 -37 -18.5 -72.5t-53.5 -51.5q-4 14 -6 29.5t-10 25.5h14q37 2 50.5 31.5t13.5 56.5q0 20 -14.5 33.5t-32.5 13.5q-6 0 -19 -4q-4 0 -8 1t-8 1q-23 0 -50.5 -16.5t-54 -40t-47 -48t-29.5 -43.5h-12zM565 1247l6 -6l19 12zM641 1655h4v-2z" />
<glyph unicode="+" horiz-adv-x="780" d="M6 868q0 106 10.5 145.5t46.5 39.5q18 0 29 -9q31 10 64 11h17t17 -2q2 33 3.5 71.5t11.5 72.5t34.5 57.5t73.5 23.5q25 0 49.5 -5t47.5 -5q20 0 37.5 8t29.5 35q6 -2 17 -2q16 0 30.5 5t30.5 5q37 0 58.5 -35t21.5 -86q0 -14 -2 -28.5t-10 -24.5q35 -72 53 -72q4 0 8 1 t8 1q25 0 39 -20l14 -23h7q35 0 42 -27.5t7 -62.5q0 -49 -13.5 -97t-54.5 -73v-74h-168v-180h-309v180h-162v54q-12 -6 -20 -7q-35 0 -51.5 36t-16.5 87zM23 874q0 -33 18 -56t47 -23t57 15.5t48 25.5q57 23 83 22q14 0 21.5 -9t13.5 -32.5t12.5 -65.5t16.5 -106 q4 -20 17.5 -29.5t29.5 -9.5q18 0 32.5 10.5t14.5 28.5q0 29 -6 59.5t-8 63.5q12 -12 33 -12q16 0 30.5 12t14.5 35q0 18 -2 34.5t-2 32.5v62q12 -20 16 -45t8 -47.5t13.5 -38t31.5 -15.5q14 0 27.5 7.5t17.5 23.5q4 -18 33 -27.5t51 -9.5q16 0 30.5 15.5t26 38t18.5 47 t7 43.5q0 39 -21.5 57t-52 25.5t-62.5 8.5t-52 7l12 119q2 16 3 31.5t1 27.5q0 57 -25.5 70.5t-54.5 13.5t-43 -13.5t-25.5 -28.5t-22.5 -28.5t-36 -13.5q-20 39 -69 45q-45 -14 -61.5 -53t-22.5 -79t-10.5 -71.5t-22.5 -31.5q-10 0 -21.5 2t-21.5 2q-16 0 -31 -10 q-4 0 -9 1t-9 1q-16 0 -29.5 -2.5t-26 -14.5t-22.5 -38.5t-16 -76.5zM598 1030l2 2h-2v-2z" />
<glyph unicode="," horiz-adv-x="389" d="M49 199q0 98 61.5 147t147.5 49q72 0 99.5 -44t27.5 -95q0 -45 -12.5 -90t-28.5 -80q-2 -2 -2 -4q-25 -166 -160 -211q12 25 13 53q0 33 -23 88q-29 0 -51.5 19.5t-38.5 48.5t-24.5 60.5t-8.5 58.5zM92 168q0 -39 19.5 -70t60.5 -41q4 -2 12 -2q20 0 33 21h2 q25 4 48.5 21.5t42 41t28.5 48t10 42.5q0 41 -32.5 74t-77.5 33q-31 0 -56.5 -14.5t-46 -39t-32 -54t-11.5 -60.5z" />
<glyph unicode="-" horiz-adv-x="780" d="M18 905q0 31 8.5 59.5t25 52t41 38t57.5 16.5q16 -16 40 -16q35 0 67 11t69 21q27 -16 56.5 -20t57.5 -4q23 0 42.5 1t39.5 1q27 0 51.5 -2t49.5 -12q25 25 65 24q39 0 74 -25.5t39 -68.5q-14 -41 -17.5 -82t-3.5 -82v-55q0 -25 -2 -62.5t-10 -73.5t-27.5 -60.5 t-52.5 -24.5q-17 0 -31 8q-23 25 -31 51.5t-8 56.5v20.5t3 20.5h-527v82q-4 -2 -10 -2q-16 0 -28.5 12.5t-20.5 31t-12.5 41t-4.5 42.5zM49 934q0 -47 31 -85t78 -38q6 0 22 4q18 2 27.5 12.5t13.5 24.5l51 -23q4 -12 4 -18q0 -14 -4 -25.5t-4 -21.5q0 -20 15.5 -33.5 t31.5 -13.5q18 0 33 14l14 17q16 16 17 32q0 20 -8 31l2 4q2 0 4 2q4 -33 17.5 -55.5t37.5 -22.5q18 0 33.5 12.5t15.5 32.5q0 16 -6 34t-6 38q41 -16 75 -34.5t79 -18.5q14 0 20 2q0 -23 4 -55.5t11.5 -61.5t20.5 -49.5t36 -20.5q16 0 31.5 11.5t15.5 34.5q-4 18 -4 37.5 v37.5q0 23 1 46.5t1 48.5q0 57 -8 104q8 8 8 29v28q0 18 -13.5 31.5t-31.5 13.5q-10 0 -34 -4t-51.5 -10l-55 -12t-44.5 -13q-43 16 -71 17q-18 0 -27 -2q-35 25 -67 24q-23 0 -43 -14h-66q-31 0 -57 -18q-23 20 -56 20q-35 0 -64.5 -26.5t-29.5 -67.5z" />
<glyph unicode="." horiz-adv-x="411" d="M14 188q0 53 17.5 96.5t48.5 74t70.5 48t87.5 17.5q25 0 54.5 -8t55 -24.5t42 -41t16.5 -55.5q0 -27 -11.5 -51.5t-27.5 -42.5q2 -9 2 -27q0 -78 -42 -126t-108 -48q-43 0 -82 25.5t-61 70.5h-2q-31 0 -45.5 32t-14.5 60zM49 197q0 -27 12.5 -51.5t38.5 -24.5q10 0 23 6 l8 4v-4q0 -25 14.5 -37t30.5 -12q18 0 33.5 12t15.5 37q0 10 -1 21.5t-1 23.5q0 20 4 36.5t21 16.5q6 0 15 -4t22 -4q35 0 61.5 20.5t26.5 51.5q0 29 -30 58.5t-64 29.5h-9q-18 6 -37 6q-16 0 -30.5 -2t-30.5 -2q-14 0 -34.5 -18.5t-40 -46t-34 -59.5t-14.5 -58z" />
<glyph unicode="/" horiz-adv-x="749" d="M0 -2q0 86 17.5 166t46 157.5t62.5 155.5t69 158q18 45 32.5 86t28.5 88t30.5 108.5t41.5 151.5q33 121 58.5 205t51 149.5t54 124t67.5 125.5q0 8 4 25.5t14.5 36t25.5 32t38 13.5q4 0 10 -1t6 -5l7 -5q8 -2 24 -28v-23q0 -29 -3 -49t-13 -31l-518 -1579q2 -14 2 -26.5 v-26.5q0 -41 -20.5 -80t-41.5 -39q-63 23 -78.5 51.5t-15.5 59.5zM35 72q0 -47 20.5 -85t36.5 -38q6 0 10 12q70 369 111 488q47 92 89 207.5t75 224t54.5 198.5t29.5 131l65 181q113 219 121 245q8 20 13.5 49t5.5 52q0 14 -7 14q-6 0 -18 -10t-24.5 -23.5t-21.5 -27 t-9 -21.5q-2 -10 -14.5 -35.5t-32 -62.5t-42 -83t-42.5 -95q-43 -104 -74 -212t-56.5 -217.5t-54 -218t-67.5 -213.5q-29 -55 -58.5 -111t-54 -113.5t-40 -117t-15.5 -118.5z" />
<glyph unicode="0" horiz-adv-x="958" d="M33 1282q0 63 11 125.5t36.5 119t65.5 103.5t100 80q39 41 86 56.5t96 15.5q59 0 118.5 -13.5t115.5 -23.5q12 0 26 -12.5t28.5 -31t27 -39t20.5 -36.5q4 -25 25.5 -35t39.5 -26q18 -80 40 -167t22 -173q0 -18 -2 -46t-7 -56.5t-14.5 -53.5t-23.5 -35v-663 q0 -78 -30 -144.5t-80 -118t-117.5 -80t-143.5 -28.5q-78 0 -145.5 28.5t-118.5 79t-80 118t-29 145.5v626q-18 0 -31.5 12.5t-11.5 39.5l2 34q-12 47 -19 96.5t-7 102.5zM76 1233q0 -23 2 -53.5t9 -58t20.5 -48t35.5 -20.5q23 0 45.5 23.5t28.5 47.5v-51q0 -18 -1 -40.5 t-1 -47.5q0 -35 2 -69.5t8 -63.5t17.5 -47.5t29.5 -18.5t32.5 13.5t14.5 38.5q-4 86 -7 167.5t-3 165.5q0 33 2 66t11.5 59.5t27 44t47.5 19.5q0 -12 9.5 -22.5t21.5 -17.5t23.5 -11t15.5 -4q23 0 41 13t31 32q6 -29 8 -56.5t35 -40.5q0 -2 1 -8t3 -6v2l6 -57 q2 -20 16.5 -46t32.5 -49.5t36.5 -39t31.5 -15.5q41 0 66.5 22.5t40.5 56.5t21.5 71t6.5 65q0 31 -2 72t-11.5 82t-26 78t-46.5 61q-4 31 -21.5 52.5t-40 39l-45 35t-39.5 39.5q-20 16 -43.5 22.5t-48 9.5t-50.5 4t-48 7q-29 -16 -84 -47t-110.5 -70t-96.5 -80.5t-41 -80.5 q0 -61 -7 -121t-7 -119zM381 317q0 -23 12.5 -44t38.5 -21q8 0 13.5 2t13.5 2q2 -10 2 -20.5v-20.5v-41q0 -27 13 -38t30 -11q29 0 39 18.5t10 61.5v36.5t-2 41.5l2 2q27 27 35 46t8 27q0 20 -15.5 34t-33.5 14l-10 6q-23 16 -48 16q-41 0 -74.5 -35t-33.5 -76zM408 408 q12 16 29.5 28.5t43.5 12.5q14 0 30.5 -5.5t25.5 -19.5v895l-7 -51q-4 -18 -17 -26.5t-28 -8.5q-18 0 -32.5 10t-14.5 33v10q-6 0 -8 1t-6 1q-2 -33 -16 -63v-817z" />
<glyph unicode="1" horiz-adv-x="708" d="M49 1481q0 68 27 129q12 31 59 56.5t101 66.5q20 25 44.5 42t57.5 17q10 0 31 -4l24 -27q35 0 71 10.5t71 10.5q39 0 60 -21.5t32.5 -54.5t13.5 -72t2 -71q0 -68 -15.5 -135.5t-45.5 -127.5v-1300h-310v1284h-127v49q-20 -4 -26 -4q-23 0 -36 15.5t-21.5 38t-10.5 49 t-2 49.5zM76 1534q0 -23 5 -45.5t5 -44.5v-14q10 -27 20.5 -57t51.5 -30q35 0 47 29t24 60q16 -10 35 -11l6 -16q4 -16 16.5 -24.5t28.5 -8.5q4 0 11.5 1t9.5 3q4 -20 2 -38.5t2 -39.5q-2 -27 -2 -51v-49q0 -86 2 -169t2 -169q0 -53 -3 -104t-3 -105q0 -51 41 -51 q18 0 33.5 10.5t17.5 34.5q4 82 5 163t1 167q16 2 25.5 18.5t14.5 39t7 48t2 43.5q0 20 -1 41t-1 41q0 53 12.5 99.5t59.5 80.5q23 55 39 119t16 121q0 59 -17.5 91t-64.5 32q-27 0 -45 -8l-73 -33q-20 31 -62 31q-31 0 -53.5 -13.5t-41 -30t-35.5 -31.5t-40 -19 q-12 -10 -21.5 -24.5t-17.5 -25.5q-4 0 -7 1t-7 1q-16 0 -28.5 -9t-16.5 -32q-2 -8 -2 -22z" />
<glyph unicode="2" horiz-adv-x="968" d="M41 1393q0 43 16.5 86t44 81.5t61.5 70.5t70 52q41 53 100.5 79t123.5 26q39 0 84 -10q23 0 43 -13.5t41 -13.5q16 0 26 10q18 -18 43 -26.5t47 -24.5q8 -20 19 -33l16 -10q78 -53 110 -144t32 -182q0 -53 -7.5 -108t-26 -102.5t-52 -82t-84.5 -47.5l-228 -358 q-53 -82 -80.5 -144.5t-31.5 -109.5q27 6 59 6q51 0 105.5 -9t107.5 -9q29 0 55.5 4t50.5 16q59 -10 90 -60t31 -110q0 -43 -16.5 -80.5t-46.5 -58.5v-88h-744v371q0 164 113 362l211 324q113 174 113 276q0 66 -64 66q-53 0 -65 -60v-98h-170q-10 -12 -26.5 -32.5 t-39.5 -20.5h-18l-7 -6q-16 -18 -36 -19q-20 0 -35 20.5t-15 51.5q0 10 1 20.5t4 20.5q-6 8 -8.5 18.5t-4.5 22.5q-12 37 -12 76zM78 1319q0 -37 9 -74t44 -37q31 0 41 24.5t18.5 54.5t19.5 54.5t42 24.5q20 0 32.5 10t18.5 25.5t11 34t12 34.5q25 -25 61 -24q39 0 79 20.5 t75 30.5l4 -2q8 -35 35.5 -54.5t60.5 -19.5q25 0 43 11q10 -41 22.5 -84t20.5 -84q-8 -7 -8 -19q-6 -33 -9 -67.5t-10 -69.5q0 -25 18.5 -42t39.5 -17q37 0 60.5 21.5t35.5 53t16 69.5t4 71q4 16 8.5 30.5t4.5 32.5q0 80 -36 157t-89 130q-2 27 -17.5 45t-38 29.5t-48 16.5 t-48.5 5q-12 0 -16 -2q-68 39 -145 39q-55 0 -103.5 -24.5t-77.5 -82.5q-41 -29 -74.5 -47t-60.5 -49t-41 -82t-14 -143zM342 236q0 -29 21.5 -39.5t35.5 -10.5t26.5 5.5t27.5 11.5l10 -4v-74q0 -23 15.5 -44.5t43.5 -21.5q27 0 37 19.5t13 45.5t6.5 50.5t15.5 36.5l6 2 q23 -16 44.5 -33.5t49.5 -17.5q16 0 24.5 2t24.5 2q8 -23 31 -34t47 -11q31 0 48.5 31.5t17.5 60.5q0 49 -33 86q0 39 -34 48t-60 9q-23 0 -45.5 -5t-40.5 -13l-17 -10q-41 8 -68.5 19t-70.5 11t-76 -6q-14 14 -32 15q-14 0 -26.5 -9.5t-16.5 -29.5q-4 -23 -14.5 -44.5 t-10.5 -47.5z" />
<glyph unicode="3" horiz-adv-x="958" d="M16 1384q0 53 17.5 117t73 121t158 97t272.5 46q63 0 118.5 -25.5t97.5 -61.5t70.5 -70.5t38.5 -53.5q16 -117 22.5 -195.5t6.5 -123.5q0 -47 -12.5 -82t-34.5 -70v-63q0 -82 -101 -168q100 -82 101 -152v-329q0 -78 -30 -144.5t-80 -118t-117.5 -80t-143.5 -28.5 q-98 0 -183 44t-136 132q-35 6 -57.5 27.5t-37 49.5t-20.5 59.5t-6 60.5q0 31 11 57.5t31.5 46t47.5 31.5t55 12q18 0 36.5 -5t37.5 -5q29 0 56.5 8t56.5 8q33 0 63.5 -26.5t30.5 -67.5q0 -18 -5 -36.5t-12 -37.5q14 6 33 7q31 0 60 -21q2 8 2 27v241q0 82 -203 86v9 q-18 12 -19 38v13q-66 10 -65 69q0 66 14 103q-2 8 -3 14t-1 14q0 31 14.5 56.5t39 43t54 28t60.5 10.5q33 0 56.5 -13.5t52.5 -13.5v264q0 66 -64 66q-63 0 -74 -158l-178 -12v-12q-12 -10 -24.5 -26.5t-24.5 -32t-24.5 -27t-26.5 -11.5q-31 0 -47.5 14.5t-25.5 36t-11 49 t-2 56.5v34.5t4 35.5q-23 12 -23 38zM53 1212q0 -23 16.5 -36t34.5 -13q14 0 26.5 9t16.5 32q4 12 5.5 25.5t3.5 27.5l4 58q12 0 23.5 -7.5t22.5 -16.5t23.5 -16t24.5 -7q35 0 47 32q12 -4 18 -4q33 0 46.5 23.5t19.5 54.5t11 60.5t24 42.5q18 -25 43 -25q8 0 14 2 q8 -6 21 -6q6 0 11 3t11 3q27 0 37 -30.5t18.5 -66.5t22.5 -66.5t51 -30.5q20 0 34.5 12t24 29.5t13.5 37t4 35.5q8 -33 8 -76v-61q0 -23 2 -46.5t10 -45.5l33 -31q8 -6 21 -6q37 0 55 30.5t18 65.5q0 49 -5 97.5t-7 103.5q-4 76 -33.5 132t-78 94t-109.5 56.5t-125 18.5 q-135 0 -221 -32t-136.5 -78t-69.5 -98t-19 -95q0 -25 1 -35t1 -20q-2 -35 -9.5 -69t-7.5 -67zM66 348q0 -47 22.5 -91t69.5 -44q27 0 45 47l24 43q2 0 4 1t5 1q12 -4 22 -12t25 -12l53 -33q0 -18 3 -26.5t14.5 -17.5t34 -24.5t61.5 -50.5q0 -25 14 -36t31 -11q18 0 32.5 11 t14.5 36v4q0 8 7 26.5t15 39t15.5 40t7.5 31.5q0 31 -33 47.5t-61 16.5q-35 0 -60 -19v37v34t-6 37t-21.5 28.5t-46.5 11.5q-12 0 -16 -2t-14 -12q-23 27 -56 26q-41 0 -60 -12t-46 -12h-8q-45 0 -68.5 -28t-23.5 -75zM276 901q0 -16 3.5 -35.5t10.5 -36t18 -29t28 -12.5 q16 0 30.5 11.5t18.5 29.5q0 -2 1 -9t4 -15t11.5 -15.5t22.5 -7.5q10 0 21.5 14.5t21.5 31t18.5 30.5t14.5 14t11 -11t9 -23.5t10.5 -23.5t14.5 -11l13 7t28.5 17.5t28 20.5t12.5 16q0 16 -13.5 39t-44.5 58q8 27 9 49q0 29 -21 28q-12 0 -26.5 -4t-24.5 -4q-27 0 -41 14 h-57q-16 0 -32 -2t-32 -8q-4 0 -7 1t-7 1q-16 0 -28.5 -9.5t-16.5 -29.5q-4 -25 -6.5 -49t-2.5 -47z" />
<glyph unicode="4" horiz-adv-x="985" d="M14 1440q0 70 15.5 142.5t19.5 137.5q25 33 81 59.5t101 37.5q12 -8 31 -13.5t37 -15.5q4 0 8 1t8 1q35 0 57.5 -16.5t37 -40t19.5 -51t5 -50.5q0 -78 -12 -156.5t-41 -117.5v-279q12 -4 18.5 -3t16.5 -3q33 18 69 19h13.5t13.5 -2v213q-10 10 -12 31.5t-2 37.5 q0 18 1 35.5t1 36.5q-16 39 -21.5 93t-5.5 89q0 41 19.5 74t51 56.5t71.5 35.5t81 12q86 0 130 -50t44 -116q0 -47 -15 -95t-36 -95v-363q10 4 18.5 6.5t16.5 2.5q47 0 78 -43t31 -93q0 -10 -1 -17t-4 -15v4l-8 -29q0 -4 1 -8t1 -8q0 -25 -14 -44.5t-35 -29.5v-113h-84v-698 h-307v698h-438l-2 582q-33 33 -45.5 73t-12.5 87zM43 1491q2 -23 2 -51.5t4 -56t15.5 -46t35.5 -18.5q12 0 26.5 7t33.5 30v-23q0 -18 -1 -37.5t-1 -40.5q0 -14 3 -32.5t10 -33.5t18.5 -25.5t25.5 -10.5q6 0 11 2t12 6v-108q0 -25 14 -37t31 -12q35 0 44 36.5t9 83.5 q0 86 -1 157t-11 149q23 0 38 30l7 6q16 27 27.5 72t11.5 86q0 61 -13.5 83t-33 29t-41 11t-37.5 31h-13q-27 0 -45 -13l-4 2l-37 -12q-10 -4 -18 -7t-19 -7h-12q-21 -1 -35 -19q-25 -27 -27.5 -55.5t-6.5 -58.5l-7 -60q-2 -16 -5 -29.5t-11 -27.5zM369 965q0 -10 8 -22.5 t19.5 -23t20.5 -17.5t13 -7v-23q0 -10 -2 -18t-2 -14q0 -23 14.5 -34t32.5 -11q35 0 44 31.5t9 66.5v61q23 10 23 39q0 27 -23.5 41.5t-52.5 14.5q-57 -1 -92 -52q-12 -14 -12 -32zM520 1604q0 -41 8.5 -78t34.5 -66l6 -4v-84q0 -27 14.5 -38t30.5 -11q10 0 17 2v-170 q0 -27 14 -38t31 -11q18 0 33.5 11t15.5 38v227q10 6 20 29v6q39 35 64 89.5t25 109.5q0 45 -18.5 84t-65.5 63q-8 -2 -23 -2q-20 0 -41.5 3t-42.5 3q-14 0 -32.5 -5t-36 -14t-32 -21.5t-16.5 -28.5q-6 -47 -6 -94zM784 975q0 -25 13 -39q-6 -17 -6 -27q0 -6 1 -12t1 -14 q0 -23 -3.5 -44.5t-3.5 -43.5q0 -59 45 -60q39 0 45.5 38t6.5 81l6 6q39 33 39 84q0 29 -8.5 51.5t-32.5 36.5l-8 6q-8 8 -27 9q-29 0 -48.5 -17.5t-19.5 -54.5z" />
<glyph unicode="5" horiz-adv-x="888" d="M33 500q0 53 28.5 88t71.5 55.5t91 28.5t87 8q37 0 66 -16.5t47 -42t28.5 -59.5t10.5 -68q0 -37 -13.5 -79t-41.5 -59q6 -51 65 -51q63 0 64 66v483q0 66 -64 66q-68 0 -67 -101v-16h-306v514q-16 4 -27.5 32.5t-18.5 66.5t-10 78t-3 67q0 39 9 71.5t20.5 55t21.5 36 t14 15.5q63 16 127 21t129 5q109 0 216.5 -9t212.5 -15q23 -2 34 -21.5t11 -38.5q0 -29 -4.5 -65.5t-9.5 -71.5t-11 -59.5t-10 -26.5v-59h-393v-168q33 33 72.5 47t84.5 14q57 0 116.5 -23.5t107 -63.5t77 -93t29.5 -113q0 -16 -3 -36.5t-10.5 -41t-16.5 -36t-21 -19.5v-495 q0 -78 -30 -144.5t-80 -118t-117.5 -80t-143.5 -28.5t-143.5 27.5t-117.5 76t-80 113t-32 137.5q-37 4 -52 48t-15 98zM66 475q-1 -39 22 -76q12 -29 39 -28q29 0 36 10t11 10q2 0 3 -24.5t5 -53t15.5 -53t35.5 -24.5q10 0 35 12t31 41l2 6q0 10 9 15t19.5 10.5t19.5 14.5 t9 27q-4 12 -4 19q0 18 11.5 32.5t26 27t25.5 24.5t11 31q0 33 -14.5 57.5t-37 39.5t-51 22.5t-57.5 7.5q-37 0 -72.5 -10.5t-65.5 -29t-47 -46t-17 -62.5zM66 1516q0 -23 4 -48.5t12 -49t22.5 -39t32.5 -15.5q29 0 38 26.5t17.5 59.5t22.5 61.5t51 32.5q6 -8 20.5 -17 t33 -17.5t37 -14.5t32.5 -6q25 0 37 17.5t23.5 37t25.5 36.5t43 17q18 0 31 -18q66 -27 102 -27q23 0 31 11q6 -16 8 -33t6 -30t14.5 -22.5t28.5 -9.5t32.5 12.5t26 31t17.5 41t6 40.5q0 49 -36.5 76t-89 39t-110 15t-100.5 3h-141q-41 0 -80 5.5t-80 5.5q-46 0 -73 -33 q-45 -111 -45 -188zM346 1073q0 -23 26.5 -41t51.5 -18q23 0 45.5 21.5t44.5 31.5q12 -20 31.5 -35.5t19.5 -38.5l25 -151q-2 -8 -2 -15.5v-13.5q0 -29 3 -55.5t3 -55.5q0 -16 -3 -31.5t-3 -31.5q0 -23 14 -35t33 -12q16 0 28.5 11t16.5 34v31q0 39 1 75.5t15 77.5l9 17 q2 -12 2 -24.5v-25.5l43 -92q18 0 33.5 11.5t15.5 37.5v76q0 18 -1 37t-3 39q31 10 43 37t12 63q0 55 -26.5 102.5t-68.5 82.5t-95.5 55t-106.5 20q-29 0 -53 -6q-6 2 -17 2q-29 0 -54.5 -18t-43.5 -46t-28.5 -59.5t-10.5 -56.5z" />
<glyph unicode="6" horiz-adv-x="958" d="M47 1309q0 82 32 160.5t87 141t129 100.5t158 38q37 0 84 -10q12 2 25 3t26 1q68 0 123 -28.5t96 -77t63.5 -109t22.5 -123.5q0 -16 -1 -37.5t-6 -41t-15.5 -35t-26.5 -21.5v-53h-307v116l-64 66q-66 0 -65 -66v-147q31 12 65 12q29 0 57.5 -8t55.5 -23h12q49 0 93 -31.5 t85 -72.5q47 -20 75 -65.5t41 -98.5t17 -107.5t4 -91.5q0 -39 -21.5 -68.5t-47.5 -58.5v-202q0 -78 -30 -144.5t-80 -118t-117.5 -80t-143.5 -28.5q-78 0 -145.5 28.5t-118.5 79t-80 118t-29 145.5v749l-8 15q-45 82 -45 174zM72 1290q0 -16 2 -37.5t7 -43t11 -38t14 -20.5 q12 -39 23 -68q10 -27 16.5 -47t8.5 -20t7 23.5t9 52t7 53t3 26.5q8 -4 15 -4q12 0 15 4.5t26 8.5q4 -8 9 -32t21 -32q-2 -31 -5 -59.5t-3 -57.5q0 -10 1 -21t3 -22q0 2 3 -16t8.5 -42t12.5 -43t17 -19q20 0 45 88l14 55q0 -41 -2 -61.5t-2 -30.5q0 -23 14.5 -36t37.5 -13 q14 0 28.5 11t28.5 40l18 18h19q117 -84 117 -137v-8q0 -27 16 -37v-47q0 -20 -6 -39q4 -119 13 -199t22 -80q10 0 19 28t15.5 72t12.5 96t10 102.5t7 91.5t5 61q10 -20 17.5 -53t16.5 -63.5t21.5 -53.5t32.5 -23q16 0 32.5 12.5t18.5 33.5l5 120v23q0 20 -3.5 39.5 t-15.5 41t-35.5 49.5t-62.5 64q-16 51 -67.5 83t-104.5 32h-19q-35 12 -57 25.5t-70 13.5q-18 0 -34.5 -4t-30.5 -16v86q0 63 12 123.5t49 103.5h6q29 0 52.5 -24.5t70.5 -69.5q0 -16 -3 -28.5t-3 -27.5q0 -20 14.5 -30.5t30.5 -10.5q23 0 42.5 21.5t23.5 56.5q4 2 12 2 t12 4q12 -88 27 -88q2 0 9 7.5t15.5 16.5t17.5 17.5t15 8.5q10 -8 27 -9q18 0 28.5 11.5t16.5 28t8 34.5t2 35q0 63 -28.5 120.5t-75.5 99.5t-108.5 66.5t-127.5 24.5q-82 0 -162.5 -34.5t-145 -93t-104.5 -135.5t-40 -161zM387 268q0 -41 18.5 -61.5t43.5 -30.5 q-2 -12 -3.5 -25.5t-1.5 -25.5q0 -72 50 -72q18 0 32.5 10.5t14.5 32.5q0 10 -1 19.5t-1 19.5q0 20 2 41t2 43q0 23 -6 45q6 8 6 23q0 23 -23.5 40t-66.5 17q-27 0 -60 -6q-6 -43 -6 -70zM408 375q29 16 57 16q39 0 72 -29v379q0 63 -64 64q-66 0 -65 -76v-354z" />
<glyph unicode="7" horiz-adv-x="931" d="M-2 1556q0 27 7 65t19.5 71.5t30 57.5t35.5 24q11 -1 23 -7q0 -2 6 -2q86 12 174 19.5t176 7.5q197 0 383 -45q12 -4 22.5 -16.5t16.5 -31t9 -39t3 -36.5q0 -39 -13 -80t-13 -82q0 -12 6 -24q-14 -39 -20.5 -89.5t-17.5 -98.5t-32.5 -87t-67.5 -55l-266 -1108h-307 l328 1399h-326q-8 -39 -24.5 -73t-43.5 -34q-20 0 -34.5 14.5t-24.5 34t-15 43t-5 41.5q0 10 1 20.5t3 20.5q-25 10 -29 39t-4 51zM16 1556q0 -33 25 -40l25 -9q-4 -25 -7.5 -47t-3.5 -47q0 -66 45 -65q18 0 32.5 11t14.5 36q0 4 -1 7t-1 7q0 10 1 18.5t4 18.5 q92 -12 176 -12q51 0 101 3t103 7q-12 -59 -31.5 -130t-19.5 -124q0 -18 8 -27q-2 -10 -2 -19v-20q0 -43 5.5 -86t5.5 -86v-28q0 -27 13 -38.5t30 -11.5q51 0 51 82q0 29 -3 58.5t-5 58.5q12 -4 18 -4q35 0 41 30.5t12 63.5v8q8 -4 17 -4q20 0 35 15q8 -8 20 -14.5t23 -6.5 q37 0 56 46t29.5 109.5t13.5 129t9 102.5q18 18 18 54q0 4 -1 9t-1 9v6q0 23 -23.5 49.5t-51.5 26.5h-11l-6 6q-80 25 -165 40t-171 15q-96 0 -180 -20q-14 2 -27.5 2h-25.5q-92 0 -143.5 -48t-51.5 -141z" />
<glyph unicode="8" horiz-adv-x="958" d="M35 1260q0 35 6 69.5t14 69.5q0 96 51.5 167.5t129 118t169 69t170.5 22.5q25 -12 53.5 -10.5t47.5 -14.5q4 0 8 1t8 1q33 0 56.5 -20.5t39.5 -46.5q14 -51 35 -101.5t39.5 -101.5t31.5 -103.5t13 -105.5q0 -16 -2 -41t-8 -46.5t-19.5 -36.5t-33.5 -15v-66 q0 -109 -84 -217q84 -109 84 -217v-264q0 -78 -30 -144.5t-80 -118t-117.5 -80t-143.5 -28.5q-78 0 -145.5 28.5t-118.5 79t-80 118t-29 145.5v264q0 106 84 215q-84 109 -84 219v35q-18 4 -30.5 22.5t-19.5 42t-11 48t-4 43.5zM68 1252.5q0 -29.5 5 -56.5t17 -44t37 -17 q37 0 50 25.5t20 53.5q0 -18 6 -58t13 -82t16.5 -73.5t19.5 -31.5h18q12 53 19.5 84.5t7.5 46.5v4q4 -2 12 -2q16 0 29.5 9t15.5 30v18q4 51 11.5 99.5t7.5 99.5v43q0 2 5 11t14 18.5t23.5 16.5t35.5 7q41 0 63.5 -12t33.5 -32.5t13 -46.5t2 -50q0 -10 -1 -23.5t-1 -36.5 q0 -37 10.5 -75.5t44.5 -38.5q18 0 28.5 9t17 23.5t9.5 33t9 34.5q25 -25 25 -65q0 -12 -3.5 -25.5t-3.5 -26.5q0 -31 26 -56.5t40 -25.5q8 0 14 9.5t10.5 23.5t5.5 28.5t1 26.5l6 13q4 0 6 -1t4 -1q37 0 53.5 24.5t16.5 65.5q0 43 -11.5 82t-11.5 82v14q-12 57 -30.5 116.5 t-51.5 106.5t-82 78t-125 31q-94 0 -198.5 -34t-173.5 -103v2q-35 -35 -68 -73t-37 -83v-12q-2 -2 -2 -11l-2 -12q-12 -27 -16 -53.5t-4 -54.5v-52.5zM352 285q0 -20 4 -51t14.5 -61t26 -50.5t37.5 -20.5q18 0 26.5 12.5t8.5 30.5q-2 8 -2 33q20 0 41.5 9.5t40 24.5t30 31.5 t11.5 32.5q0 25 -25 41q-23 10 -47 13.5t-53 3.5q-104 0 -113 -49zM352 973q0 -20 14.5 -33.5t30.5 -13.5q10 0 15 2q10 -6 17 -15.5t20 -9.5q4 0 8 2h4q0 -16 -1 -30.5t-1 -28.5q0 -39 9 -57.5t36 -18.5q47 152 47 193q0 8 11 18t11 23q0 33 -29.5 47t-58.5 14 q-35 0 -64 -16t-52 -41q-16 -16 -17 -35zM408 369q35 20 73 20q33 0 56 -10v256q0 61 -68 61q-61 0 -61 -61v-266zM408 1079q20 20 46.5 30.5t43.5 10.5q20 0 39 -12v225q0 66 -64 66q-66 0 -65 -66v-254z" />
<glyph unicode="9" horiz-adv-x="958" d="M47 1321v20q0 94 38 174t101.5 136.5t146.5 88.5t175 32q98 0 185 -43t138 -142q37 -49 51.5 -103t18.5 -110.5t4 -116t6 -116.5q0 -39 -19.5 -69t-47.5 -54v-647q0 -78 -30 -144.5t-80 -118t-117.5 -80t-143.5 -28.5q-117 0 -214 63.5t-138 174.5q-33 20 -45.5 59 t-12.5 80q0 29 4.5 54.5t10.5 45.5q6 14 27.5 28.5t50 25t59.5 17.5t53 7q10 0 23 -4q20 4 31 4q51 0 83.5 -38t32.5 -85v-10l15 -37q8 2 15 3t17 1q25 0 52 -10v237q-43 -6 -64 -6q-78 0 -145.5 30t-118.5 81t-80 119.5t-29 144.5v121q-14 8 -24 34.5t-16.5 59.5t-9.5 65.5 t-3 55.5zM78 1282q0 -23 2 -49.5t8 -51t18.5 -41t34.5 -16.5q18 0 32.5 11.5t14.5 33.5v13q-10 37 -14 78q16 -14 33 -15q16 0 29 12q2 -14 3 -27t1 -28q0 -23 -1 -42t-1 -42t1 -52.5t7 -56t18 -46t37 -19.5q16 0 32.5 11.5t16.5 31.5q0 18 -3 35.5t-3 34.5q0 47 6 92t6 90 q0 43 -8 78q4 20 4 37q0 14 -1 28.5t-1 28.5q39 6 72 14q29 8 54.5 19.5t35.5 30.5q4 2 6 4t8 4q10 -51 26.5 -99.5t22.5 -99.5v-4q-4 -53 -3 -104.5t-1 -104.5v-10q0 -45 52 -45q16 0 65 6q-2 -4 -2 -14q0 -4 4 -25v-2q0 -18 14.5 -27.5t30.5 -9.5q25 0 34 11.5t12 30t2 40 t5 41.5q16 -16 37 -16q20 0 32.5 15t20 37.5t9.5 48.5t2 46q0 84 -23.5 166t-34.5 166q-53 98 -142 143t-189 45q-111 0 -211.5 -51t-157.5 -147q-12 -20 -26.5 -47t-14.5 -56q0 -6 4 -14q-8 -31 -12 -60.5t-4 -60.5zM84 381q0 -14 4 -31.5t13.5 -34t22.5 -28t32 -11.5 q29 0 45 21.5t26 50.5l6 -8q-4 -23 -7 -42t-3 -38q0 -78 49 -78q16 0 31.5 12.5t15.5 34.5q0 6 -1 13.5t-1 13.5q0 12 1 23.5t4 25.5l16 14q0 2 4 7q2 -2 8 -2q27 0 43.5 29.5t16.5 54.5q0 43 -29 78.5t-74 35.5h-10q-4 0 -10 1t-15 1q-10 0 -20.5 -1t-24.5 -3 q-109 -16 -110 -24q-12 -27 -22.5 -56.5t-10.5 -58.5zM373 907q0 -14 11 -30.5t28.5 -29.5t38 -22.5t36.5 -9.5q8 0 13 2q16 -16 30 -16q18 0 34 12t16 31q0 12 -5 18q16 16 17 35q0 43 -38 66.5t-71 23.5q-27 0 -51.5 -10t-40.5 -33q-18 -18 -18 -37zM408 999q29 14 65 15 q29 0 64 -13v332q0 66 -64 66q-66 0 -65 -66v-334z" />
<glyph unicode=":" horiz-adv-x="440" d="M55 842q0 35 16.5 67.5t44 58t63.5 41t73 15.5t64.5 -17.5t46 -41t27.5 -49t9 -42.5q0 -10 -6 -23t-16 -17q12 -35 12 -68q0 -70 -40 -123t-107 -53q-68 0 -114 52t-46 122q-27 35 -27 78zM63 242q0 37 19.5 68.5t48.5 55t64.5 37t68.5 13.5q10 0 18.5 -1t18.5 -3 q8 2 21 2q27 0 46 -14.5t32.5 -37t19.5 -49t6 -51.5q0 -35 -8 -50t-29 -32v-6q0 -78 -43 -126t-104 -48q-68 0 -114 52t-46 122v18.5t2 16.5q-20 14 -21 33zM94 252q0 -35 21.5 -46t52.5 -11v-68q0 -25 14.5 -37t30.5 -12q18 0 33.5 12t15.5 37v45q6 8 9 19.5t10 23.5l28 -8 q12 -4 19 -4q29 -1 43 30q8 16 8 37q0 25 -14.5 43.5t-35 30.5t-46 20.5t-45.5 10.5h-19q-47 0 -86 -38t-39 -85zM109 883q0 -14 18 -39t51 -25q29 0 51.5 19.5t40.5 27.5l9 -10l40 -25q25 6 45.5 20.5t20.5 43.5q0 18 -17.5 37.5t-41 37t-49 29t-39.5 11.5q-11 0 -17 -2 q-16 -6 -35.5 -18.5t-37 -29t-28.5 -36t-11 -41.5z" />
<glyph unicode=";" horiz-adv-x="434" d="M20 788q0 37 16.5 78t45.5 74t64.5 54.5t76.5 21.5q25 0 47 -8q8 2 23 2q47 0 74.5 -39t27.5 -84q0 -37 -20 -64q10 -30 10 -57q0 -70 -40 -123t-109 -53q-53 0 -96.5 37t-55.5 96q-27 4 -43 22.5t-21 42.5zM41 197q0 35 15.5 69.5t40 61t55 43t61.5 16.5t60.5 -11 t54 -30.5t40 -47.5t15.5 -58q0 -23 -10.5 -54.5t-24.5 -46.5q-10 -213 -166 -268q12 25 13 53q0 49 -50 139l-10 21q-6 -2 -14 -2q-41 0 -60.5 36t-19.5 79zM55 188q0 -68 45 -67q23 0 39 16q10 -29 41 -28q14 0 31 12l8 6l6 -10q4 -16 16.5 -23.5t24.5 -7.5q14 0 27.5 8.5 t19.5 24.5q4 23 18.5 48.5t14.5 51.5q0 25 -12 46.5t-32.5 39t-44.5 27.5t-44 10q-18 0 -46 -13.5t-52.5 -36t-42 -50t-17.5 -54.5zM66 786q0 -23 14 -33t33 -10q10 0 19 3.5t15 13.5q33 4 60 20v-22q0 -27 13 -38t30 -11q18 0 33.5 11t15.5 38v80q12 4 27.5 28.5t15.5 42.5 q0 29 -21.5 41.5t-56.5 12.5q-86 0 -142 -52.5t-56 -124.5z" />
<glyph unicode="&#x3c;" horiz-adv-x="618" d="M33 895q0 12 6 25l12 26q4 2 19 17q-2 -6 -2 -19q0 -18 9 -33.5t29 -15.5q13 0 25 6q53 18 102.5 49t94.5 66q12 -4 20 -4q31 0 62.5 16t58.5 41t44 52.5t17 47.5t-12 31.5t-31 11.5q-14 0 -22 -4q-51 -18 -95 -49t-86 -63.5t-86 -62t-96 -44.5q49 47 105 84 q20 25 49 54.5t59.5 55t63.5 43t61 17.5q6 0 11.5 -1t11.5 -3l16 6q4 2 13 2q33 0 55 -30.5t22 -57.5q0 -12 -22.5 -45t-56 -67.5t-73.5 -61.5t-77 -27q-14 0 -21 3h-4l-84 -84q6 -2 19 -11q27 -35 64.5 -65.5t72.5 -64.5t60.5 -71.5t25.5 -84.5q0 -16 -4 -21l68 -65h-144 l-342 344l17 16q-14 4 -24.5 14.5t-10.5 26.5zM209 760q0 -19 16 -35q18 -18 40 -46t44.5 -55.5t43 -47t32.5 -19.5q18 0 33.5 13.5t15.5 31.5q0 12 -22.5 46t-52 69t-60.5 61.5t-45 26.5q-18 0 -31.5 -13.5t-13.5 -31.5z" />
<glyph unicode="=" horiz-adv-x="675" d="M33 684q0 35 30.5 58.5t80 38t112.5 21.5t129 10t126 4t107 3q41 -12 59.5 -43t18.5 -65q0 -33 -16 -64t-45 -47v-59h-531v32q-4 -2 -12 -2q-16 0 -27.5 11.5t-18.5 29t-10 37t-3 35.5zM33 1051q0 27 1 50t1 48v33q0 23 13 33t32 10q12 0 29 -8q51 0 101 6t101 6 q70 0 138.5 -2t138.5 -2h8q20 0 37.5 -12.5t32 -31t22.5 -39t8 -36.5q0 -18 -12 -31.5t-33 -13.5q-6 0 -10 2q-2 -2 -6 -2v-94h-432q-10 -27 -31.5 -45.5t-54.5 -18.5q-29 0 -46.5 13.5t-25.5 35t-10 48t-2 51.5zM51 1092q0 -12 3 -36t9 -42q2 -23 14.5 -34t31.5 -11 q18 0 26 9t16.5 21.5t21.5 23.5t42 13q8 -4 16 -4t15 2l18 2q35 6 73 13.5t60 15.5q35 -20 70 -18t70 -9q29 12 61.5 35t32.5 57q0 16 -13.5 38t-35.5 22h-97q-63 0 -124.5 4t-124.5 23l-17 -11q-6 2 -16 2q-31 0 -41 -28q-16 6 -27 6q-35 0 -59.5 -30t-24.5 -64zM59 696 q0 -16 9 -27.5t32 -15.5q43 -14 93 -14q31 0 62.5 5t61.5 11q14 -14 37 -14q20 4 41 9t41 5q14 0 26.5 -7t24 -16t22.5 -16.5t26 -7.5q20 0 42.5 6.5t42 18.5t32 29.5t12.5 39.5q0 23 -13.5 38.5t-35 23.5t-47 11t-52.5 3l-63 -6q-10 12 -31 12q-23 0 -69 -1t-93 -5t-86 -12 t-45 -23l-20 2q-23 0 -36.5 -15t-13.5 -34zM635 1153q4 4 5 2t5 2h-10v-4z" />
<glyph unicode="&#x3e;" horiz-adv-x="714" d="M143 483q98 246 170 262q78 96 160 144l-285 215q-14 10 -25 25.5t-11 33.5q0 37 35.5 60.5t76.5 23.5q23 0 33 -8t10 -10h2q4 2 13 2q10 0 22 -7t31 -18q6 -4 25.5 -11t42 -25.5t47 -49t42.5 -78.5q29 -23 52 -53l6 -16q10 -35 34.5 -62.5t30.5 -62.5l11 -10l-11 -13 q-4 -14 -16 -25.5t-23 -13.5q-111 -98 -188.5 -163.5t-127.5 -104.5t-76.5 -55.5t-35.5 -16.5q-16 0 -28.5 10.5t-16.5 26.5zM174 1163q0 -14 23 -43q86 -55 141 -91t87 -58.5t46 -35.5t21.5 -21.5t11.5 -13.5t16 -13l-2 -15q0 -4 -1 -6t-1 -4q0 -23 15.5 -33t31.5 -10 q23 0 38 17.5t15 48.5q0 16 -8 30.5t-18 26.5l-29 35q-14 16 -20 39l-52 55l-25 23q-26 24 -61.5 52t-74.5 51.5t-66 23.5q-41 0 -64.5 -14.5t-23.5 -43.5zM193 506q0 -20 18 -21q17 1 27 9q35 18 59.5 45.5t50.5 58.5q10 -10 25 -10q2 0 27.5 22.5t56 54t56.5 67.5t26 63 q0 18 -13.5 31.5t-31.5 13.5q-20 0 -35 -8.5t-26 -19.5t-20.5 -23.5t-17.5 -22.5l-24 -18q-4 -4 -13 -5q-39 -23 -64.5 -62.5t-53.5 -72.5q-12 -12 -29.5 -45t-17.5 -57z" />
<glyph unicode="?" horiz-adv-x="874" d="M-29 1298q0 25 6.5 54.5t15.5 56.5t22.5 45.5t27.5 22.5q25 63 69 115.5t100 90t121.5 58t131.5 20.5q57 0 112.5 -17t104.5 -52q66 -33 98.5 -90.5t40.5 -124.5q18 -35 25.5 -74t7.5 -80q0 -25 -2 -57.5t-8 -61t-18.5 -48t-32.5 -19.5q-10 0 -23 4q-10 -29 -20.5 -55.5 t-26.5 -51.5q-12 -20 -51 -67t-82 -101.5t-78 -106.5t-39 -81q0 -2 -5 -50t-15 -143h-138q-51 225 -51 287q0 129 117 299q117 168 117 262q0 66 -68 66q-53 0 -63 -158h-131q-8 -8 -23 -8q-8 0 -12 2l-17 6q-6 -10 -14 -28.5t-21.5 -37t-30 -32t-36.5 -13.5 q-29 0 -50.5 18.5t-34.5 44.5t-19.5 54.5t-6.5 50.5zM14 1317q0 -41 8.5 -77t45.5 -36q16 0 30.5 11.5t14.5 31.5q0 16 -3.5 33.5t-3.5 38.5h5q14 0 30 12q8 4 13.5 9.5l9.5 9.5l4 -11q0 -2 25.5 -19t46.5 -17q20 0 20 14t19 24q2 -2 6 -2q20 0 34.5 11.5t21.5 26t11 29.5 t8 21l13 33q6 -14 18 -21t25 -7q25 0 41 24l10 10q20 -4 25 -4h18q47 -86 49 -180v-2q-6 -63 -23.5 -126.5t-17.5 -127.5q0 -35 9.5 -56.5t39.5 -21.5q18 0 33.5 10.5t15.5 32.5v8q25 45 39.5 68t23.5 35t16 18t18 21h4q23 0 44 17.5t37.5 46t26 66.5t9.5 79q0 68 -27 134 t-76 118.5t-120.5 85t-161.5 32.5q-59 0 -113.5 -21.5t-102 -56t-85 -82t-64.5 -98.5q-41 -25 -55.5 -63.5t-14.5 -81.5zM205 209q0 37 15.5 76t42 69.5t59 50t69.5 19.5q45 0 76 -29.5t49.5 -69.5t26.5 -83t8 -68q0 -76 -43 -125t-109 -49q-63 0 -109 50t-46 118 q-39 10 -39 41zM231 240q0 -20 3.5 -25.5t14.5 -11.5t34.5 -22.5t64.5 -59.5q2 -23 14.5 -32t28.5 -9q18 0 33.5 12t15.5 37q0 6 -3 10t-3 8v15h4q12 -23 39 -23t41 28t14 60q0 31 -11 59.5t-30.5 51t-45 36t-54.5 13.5q-55 0 -96 -40t-59 -87z" />
<glyph unicode="@" horiz-adv-x="1060" d="M68 1235q0 82 47 147.5t114.5 111.5t142 70.5t130.5 24.5q121 0 229 -59q59 -10 107 -33q14 -20 33.5 -41.5t38 -44t30.5 -47.5t12 -51q0 -8 -4 -29l10 -24q2 -6 3 -13q0 -18 -5 -26q10 -47 11 -86v-637q0 -109 -68 -204t-188 -147q-6 -18 -10.5 -43.5t-12.5 -50 t-20.5 -42t-32.5 -17.5q-29 0 -51.5 38t-26.5 79h-18q-84 0 -161 31.5t-137.5 86t-96 124t-35.5 145.5v671q-41 2 -41 66zM72 1251q0 -20 15 -33.5t36 -13.5q19 1 35 19q74 96 139 141t84 45q2 0 4 -1t4 -1q18 -14 41 -20.5t44.5 -10.5t39.5 -12t31 -27l12 -26 q6 -16 23.5 -21.5t37.5 -5.5q23 0 37.5 24.5t14.5 45.5v14h20l39 -10q0 -2 18.5 -18.5t41 -36t41.5 -35.5l18 -15q23 0 43 17.5t20 42.5q0 10 -2 19t-12 22v37q-4 -4 -8 -8.5t-12 -8.5q4 -6 20 -20v-23q-8 20 -23 43l-2 2q-39 53 -100 70q-43 53 -106.5 77.5t-135.5 24.5 q-55 0 -108 -14t-98 -39q-23 -10 -66 -40t-84 -67.5t-71.5 -75.5t-30.5 -61zM213 582q0 -68 23 -131q12 29 45 28q35 0 45 -39l8 -37q6 2 18 3h8q61 -18 123 -38t121 -42q16 31 43 52t59.5 34.5t66.5 23.5t67 21q27 55 26 125v471q0 135 -98 231q-23 23 -38 25t-36 14 q-8 -14 -15 -34.5t-16.5 -40t-24.5 -33t-40 -13.5q-29 0 -40 22.5t-20.5 50.5t-21.5 51.5t-41 23.5t-37 14q-104 -37 -164.5 -121t-60.5 -190v-471zM229 403q0 -29 12.5 -55t32 -46.5t43 -33t48.5 -12.5q16 0 38 6l-8 10l13 -10h-5l5 -8l4 2l-4 6q4 2 10 4t16 6l-22 -16 q8 -8 16 -13t18 -10l11 -6q43 -41 100 -41q10 0 17.5 1t17.5 3q-4 -23 -7 -41t-3 -40q0 -61 43 -62q23 0 34 16.5t17 41t9 51t7 47.5v22q39 20 75 45t67 45q41 0 40 43q0 18 -9 35t-27 17q-63 0 -124 -34t-93 -85q-12 -4 -21.5 -6t-19.5 -4q-12 16 -27.5 26t-36.5 10 q-4 0 -6 -1t-6 -1q-14 0 -23.5 8.5t-18.5 17.5t-18.5 17.5t-21.5 8.5q-14 0 -26.5 -8.5t-24.5 -8.5q-16 0 -28.5 15.5t-20.5 29.5v8q0 23 -15.5 35.5t-34.5 12.5q-16 0 -29.5 -12.5t-13.5 -35.5zM317 682q0 39 12.5 80t35 74.5t54.5 55t73 21.5q10 0 24 -2t21 -6 q35 29 34 45v31q0 41 -41 41q-49 0 -57 -68q-4 2 -13 4.5t-20 4.5q-12 -23 -39 -23q-29 0 -49 30.5t-20 59.5q0 27 12 52.5t30.5 46t42 34t46.5 13.5q16 0 36.5 -5.5t41.5 -5.5q14 0 30 6q23 -8 48.5 -18t46 -25.5t34 -37t13.5 -50.5q0 -23 -6.5 -34t-16.5 -17v-336h60v-55 q0 -59 -52 -59q-35 0 -53 82q-59 -84 -115 -84q-84 0 -139 73q-47 0 -60.5 26t-13.5 46zM350 735q0 -23 15.5 -33t31.5 -10t29.5 9.5t17.5 29.5q0 23 15.5 39t35 29.5t35 26t15.5 28.5q0 18 -13.5 34.5t-35.5 16.5q-27 0 -53.5 -16.5t-47 -42t-33 -55t-12.5 -56.5zM350 1034 q0 -61 45 -61q18 0 33.5 11t15.5 36v8l5 6h51q14 0 28.5 2t28.5 8l-6 7q20 -14 52 -27.5t42 -13.5q18 0 33.5 13t15.5 32q0 18 -14 34.5t-34.5 26.5t-42 16.5t-36.5 6.5q-12 0 -26.5 -5.5t-26.5 -5.5h-47q-39 0 -78 -23.5t-39 -70.5zM434 633q0 -23 25 -41 q20 -10 41.5 -16.5t44.5 -6.5q68 0 67 47q0 47 -55 48h-20q-16 0 -28.5 8t-27.5 8q-20 0 -33.5 -14.5t-13.5 -32.5zM485 696q4 0 8.5 1t8.5 1q16 0 33.5 -6t33.5 -14q2 4 2 18v90q-86 -55 -86 -90zM817 1305l8 -11l-6 4q-2 2 -2 7z" />
<glyph unicode="A" horiz-adv-x="802" d="M23 -2l172 1202q-23 0 -36.5 14.5t-19.5 35t-8 45t-2 46.5q0 47 15.5 129t39 161t51 136.5t52.5 57.5q23 0 37 -15q55 43 129 43q53 0 101 -22.5t81 -67.5q10 -63 14 -124.5t4 -122.5q0 -37 -1 -88.5t-4 -98.5t-10 -82t-20 -43l170 -1206h-303l-12 195h-129l-16 -195 h-305zM172 1372q0 -25 5.5 -50t17.5 -52q6 -16 17 -23.5t21 -7.5q2 0 3.5 1t3.5 1q10 0 16 -94t6 -242q0 -29 -1 -56.5t-1 -55.5q0 -10 3 -16.5t8 -14.5t12.5 -23.5t15.5 -44.5q29 80 43 133.5t16 81.5l4 117q12 -6 19 -6q2 0 3 1t3 1q4 -125 16 -125q8 0 25 104q31 0 41 29 q8 -162 20 -162q2 0 5.5 29t8.5 72t9 93t8 92t6 69.5t2 25.5q25 -59 45 -59q14 0 21.5 25.5t11.5 64.5t5 83t1 81q0 84 -1 149.5t-12 109.5t-39 67.5t-81 23.5q-74 0 -112.5 -4t-63.5 -21q-20 0 -37.5 -29.5t-32 -73.5t-25.5 -95t-18.5 -95t-12.5 -74zM283 293q0 -23 18 -37 l6 -6q23 -31 55 -31q10 0 33 5t45.5 14.5t40 20.5t17.5 24q0 14 -9.5 31.5t-23.5 31.5t-28.5 23.5t-26.5 9.5h-13q-8 4 -14 4q-10 0 -27.5 -9t-34 -22.5t-27.5 -30t-11 -28.5zM367 420l32 6q10 0 20.5 -5t18.5 -11h11l-19 286h-45z" />
<glyph unicode="B" horiz-adv-x="1056" d="M74 1425q0 33 4 93.5t13 119t26.5 101.5t44.5 43q10 0 20.5 -1t16.5 -1q12 0 16 2l14 4q20 10 37 10q20 0 43 -12q49 14 107 14q82 0 170 -33q23 8 34 13.5t29 5.5q39 0 73 -19.5t63.5 -47t58 -56.5t61.5 -47q25 -66 42.5 -134.5t17.5 -140.5q0 -23 -2 -43t-7 -43 q2 -8 2 -20q0 -8 -5 -23.5t-12 -31t-15 -27.5t-15 -14v-29q0 -178 -174 -258l27 -14l14 6q8 4 17 4q29 0 52 -24.5t40.5 -59.5t27 -72t9.5 -63q0 -39 -13 -76v-174q0 -78 -27.5 -145.5t-73.5 -120t-107.5 -82t-131.5 -29.5h-407v1051q-12 -4 -17 -4q-18 0 -31.5 11t-15.5 32 q-10 86 -18 167.5t-8 167.5zM117 1339q0 -59 7 -119.5t23 -119.5q4 -20 21.5 -40t40.5 -20q18 0 24 39q0 -14 6.5 -41.5t12.5 -56.5q8 -35 16 -72q8 0 17 54q8 63 15 90.5t11 37t6 11.5t2 18l-6 97q20 0 35 10q2 -27 2 -52.5v-52.5v-73q0 -18 2 -63.5t5 -90.5t8.5 -80 t9.5 -35q2 0 5 25.5t8 57.5t10 57.5t14 25.5q4 0 15 -13t15 -13q6 0 9.5 21.5t4.5 49l2 55t1 39.5q0 41 -1 81t-1 81q0 57 4 112.5t20 110.5q12 -10 25 -10q12 0 19 6.5t10 6.5l6 4q12 -20 34.5 -33.5t32.5 -32.5q0 -12 10 -22q2 -23 2.5 -43.5t0.5 -40.5v-115 q0 -39 6 -57.5t35 -18.5q10 0 16 2v-50t-2 -30q12 -123 24 -123q8 0 19 76q16 -59 29 -59q6 0 10 22.5t6 49t3 48.5l1 21q0 43 -1 86t-1 88v40t2 42q0 -4 8 -29.5t19.5 -56.5t23.5 -55.5t23 -24.5q23 0 39 25.5t25 56.5t13.5 56.5t4.5 27.5q0 121 -40 220.5t-149 160.5 q-12 6 -26 6v2q-16 10 -35 10q-20 0 -40 -11t-42 -13q-77 65 -171 65h-3q-70 0 -133 -41q-2 2 -4 3l-7 4q-4 0 -10 1t-10 1q-41 0 -76 -24.5t-41 -65.5q-6 -76 -13 -152t-7 -154zM231 1087h2v-6q0 2 -1 3t-1 3zM444 311q0 -35 16.5 -57.5t51.5 -26.5l6 -53q4 -41 7 -62.5 t10 -21.5q4 0 11 13.5t13 13.5t15.5 -8.5t15.5 -8.5q10 0 16 27t6 43q0 35 -4 69.5t-4 69.5v4q0 4 1 8.5t1 8.5q0 29 -19.5 44t-54.5 25q-88 -12 -88 -88zM473 420q20 14 43 14t46.5 -12t39.5 -33q2 6 2 21v180q0 37 -26.5 71.5t-63.5 34.5h-41v-276zM473 1085q14 6 35 7 q23 0 45 -7.5t39 -21.5q12 25 12 51v180q0 104 -90 105h-41v-314zM694 752q12 -109 17.5 -177.5t11.5 -107.5t18.5 -52.5t40.5 -13.5q39 0 39 39q0 10 -1 17.5t-1 15.5v27q14 -10 29 -11q29 0 40 29t11 72v22q0 14 -6 45t-19.5 62t-36 53.5t-55.5 22.5q-20 0 -46 -5t-42 -38 z" />
<glyph unicode="C" horiz-adv-x="1044" d="M88 1343q0 88 39 165t105.5 135.5t153.5 92t183 33.5q86 0 165 -33.5t138 -105.5q41 -76 57.5 -157.5t16.5 -167.5t-8 -171t-14 -167q-10 -23 -31 -34t-45 -11q-25 0 -44.5 11t-23.5 36v6h-192v358q0 66 -66 66q-63 0 -63 -66v-938q31 31 73 31q27 0 56 -14v98 q-16 2 -25.5 18.5t-14.5 39t-6 49t-1 47.5q0 43 20.5 72.5t54 48t74.5 27.5t82 9q27 0 57.5 -7t57 -25.5t43 -51t16.5 -84.5q0 -43 -12 -86t-39 -80v-116q0 -78 -29.5 -145.5t-80 -118t-119 -79t-144.5 -28.5t-143.5 28.5t-118.5 78t-80.5 117t-32.5 147.5v798l-41 66 q-18 51 -18 108zM115 1346q0 -18 1 -39t7 -39.5t21 -30.5t44 -14q8 -4 13 -4q2 0 14 4q8 -43 20.5 -75t53.5 -32q8 0 20 6q-2 -23 -2 -42v-38q0 -16 1 -38.5t6 -43t15.5 -35t28.5 -14.5q37 0 46.5 27t9.5 59q0 68 -2 134.5t-2 134.5q0 35 4 66.5t19.5 58t44 46t77.5 27.5 q12 -12 30.5 -24.5t39.5 -12.5q16 0 32 15q14 -27 16.5 -80t5.5 -108.5t13 -99.5t41 -50q-2 -4 -2 -14q0 -16 7 -31t16.5 -24t17.5 -14t10 -5h4q0 -8 12.5 -25.5t30.5 -17.5q23 0 50.5 23.5t27.5 45.5q0 25 -3 49.5t-3 49.5q0 63 6 126.5t6 125.5q0 63 -17 125.5t-57 112.5 t-103.5 82t-153.5 32q-86 0 -169 -32t-149.5 -85t-107.5 -127t-41 -155zM424 303q0 -20 23.5 -49t64.5 -29q0 -8 -1 -14t-1 -14q0 -59 45 -60q35 0 43 30t8 66v70q0 14 -2 16v5q0 29 -26.5 48t-53.5 19q-35 0 -64.5 -20.5t-33.5 -55.5q0 -4 -1 -6t-1 -6zM567 643 q0 -39 18.5 -69.5t61.5 -34.5q4 -29 4 -66t3 -71.5t13.5 -58.5t37.5 -24q16 0 30 15q0 -18 -1 -35.5t-1 -36.5q0 -27 14.5 -38t30.5 -11q18 0 32.5 11.5t14.5 37.5q4 61 11.5 125t19.5 127l6 6q27 23 38 48.5t11 54.5q0 31 -12 60.5t-32.5 52t-48 36.5t-60.5 14 q-25 0 -64 -11t-63 -40q-6 2 -15 2q-33 0 -41 -39q-8 -25 -8 -55z" />
<glyph unicode="D" horiz-adv-x="1001" d="M76 1495q0 104 3 164.5t17.5 90.5t44 38t84.5 8h13q18 0 52 -6t46 -6q55 0 96 -4t69.5 -8.5t50 -7.5t40.5 -3q16 0 24 2l170 -39q70 -61 97.5 -150t28.5 -181v-46.5t-3.5 -45t-10.5 -37t-19 -21.5v-872q0 -78 -26 -145.5t-72 -118t-110.5 -79t-140.5 -28.5h-395v1266 q-18 0 -28.5 6t-15.5 29.5t-8 69.5t-7 124zM104 1341q0 -20 12.5 -32.5t30.5 -12.5q14 0 17 2q0 -18 26.5 -34.5t42.5 -16.5l19 -172q2 -18 15.5 -25.5t29.5 -7.5h8q-2 -10 -3 -17t-1 -13v-8q27 -43 47 -43q12 0 27.5 9t19.5 31q18 123 25.5 242t11.5 242q10 14 18 31 q0 -4 -2 -7.5t-2 -9.5v-6q0 -20 14.5 -33.5t33.5 -13.5q23 0 32 12t23 43l57 -43v-100q-12 -59 -12 -119q29 -78 47 -78q10 0 31 10q0 -76 8 -121.5t18.5 -70.5t20.5 -32t16 -7q18 0 39 11.5t21 29.5q2 61 3 118.5t5 114.5h12q23 0 35 18.5t18 46.5t7.5 60.5t1.5 59.5 q0 94 -26 159.5t-66 106.5t-86 59.5t-85 18.5l-67 -6l-121 18q-41 0 -80 1t-74 1q-43 0 -69.5 -5t-39.5 -12t-18.5 -15.5t-7.5 -14.5q-12 -92 -20 -181t-13 -181v-7zM420 338q0 -6 3 -19.5t9 -29t17.5 -29.5t29.5 -22v-93q0 -25 13.5 -37t33.5 -12q29 0 37 25.5t8 56.5 q0 76 -3 119t-11 64.5t-19.5 25.5t-25.5 4q-29 0 -47.5 -6.5t-34.5 -24.5q-10 -6 -10 -22zM442 406l9 6q29 23 55 22q41 0 65 -31v930q0 66 -65 66h-64v-993z" />
<glyph unicode="E" d="M74 1333q0 29 2 83t6 140l-4 74q0 53 16.5 95t79.5 49q68 -12 145 -13l193 2q45 -2 70.5 -4t41 -4t27 -4t25.5 -2l112 12q25 0 41.5 -10t24.5 -24.5t11 -32t3 -31.5q0 -233 -10 -250q-6 -16 -23.5 -30.5t-37.5 -14.5l-39 10l-8 21h-312v-324q45 18 97 19l92 16 q45 0 65.5 -28.5t20.5 -80.5v-38q0 -31 -7.5 -82.5t-18.5 -100.5t-26.5 -85t-29.5 -36t-28.5 10.5t-16.5 28.5h-148v-336q61 10 126 20.5t130 10.5q33 0 67 -3t61.5 -16.5t45 -41t17.5 -76.5q0 -14 -4 -57t-13.5 -89.5t-24 -83t-32.5 -36.5q-20 0 -31 10h-651v1085 q-31 2 -39 58.5t-16 189.5zM111 1329q0 -59 6 -80v-88q0 -25 13 -36t32 -11q16 0 47 41q63 -74 86 -74q14 0 27.5 9.5t17.5 31.5q10 100 12 198.5t10 197.5l35 12q14 -25 39 -40t51 -15q18 0 28.5 6t21 14t23.5 14.5t38 6.5q29 0 41 32l2 -10q12 -25 39 -25q20 0 35 15 q10 -16 14 -35.5t10 -37t15.5 -30t27.5 -12.5q25 0 34 11.5t11 39t2 70.5t9 108v7q0 31 -23.5 44t-56.5 17t-64.5 4t-50.5 6q-63 -14 -129 -14q-80 0 -156.5 11.5t-156.5 15.5q-23 -4 -52.5 -19.5t-29.5 -44.5l-6 -260q0 -23 -1 -43t-1 -37zM397 1032q0 -23 45 -106 q94 -70 121 -70q10 0 23 6q0 -18 2 -41.5t7 -44t16.5 -34t33.5 -13.5q25 78 36 128t11 73q0 59 -6 86.5t-17.5 38t-27.5 11.5t-39 9q-19 -12 -164 -22q-14 0 -27.5 -5.5t-13.5 -15.5zM438 272q0 -27 25 -39l20 -12q6 -12 11.5 -25.5t12.5 -25.5t18.5 -20.5t29.5 -8.5 q29 0 45 10.5t27 22.5q8 14 12 35l4 2q16 -4 33 -14h33q23 -10 29.5 -33t12 -47.5t15.5 -43t37 -18.5q18 0 57 174q0 27 -5 49.5t-19.5 40t-41 26.5t-69.5 9q-96 0 -152.5 -4t-85 -11t-36 -14.5t-7.5 -13.5q0 -2 1 -4t1 -4q-8 -10 -8 -31zM451 926l10 -2q-2 -2 -4 -2z" />
<glyph unicode="F" horiz-adv-x="913" d="M53 1511q0 59 13.5 118t44.5 112q16 23 63 28t96 5q143 0 282.5 -7.5t283.5 -17.5q16 0 26 -10t16.5 -24.5t9.5 -31t3 -28.5q0 -45 -15.5 -92t-19.5 -93q2 -8 3 -14t1 -14q0 -18 -8 -37t-22.5 -35t-31 -26.5t-30.5 -10.5q-16 0 -31.5 11.5t-15.5 29.5q0 4 1 5t1 5v15 h-295v-301q14 2 27.5 2h29.5q31 0 68 -1t68.5 -14.5t53 -46t21.5 -94.5q0 -45 -16 -85t-53 -58v-103h-199v-698h-307v1292q-23 2 -35 26.5t-20.5 59.5t-10.5 72t-2 61zM80 1464q0 -20 1 -45.5t6 -47t15.5 -36t30.5 -14.5q18 0 33.5 12.5t15.5 34.5v6l-6 39q14 -12 33 -12 q6 0 11 1t11 3l-8 -113q0 -16 4 -35.5t12.5 -37t21.5 -29.5t30 -12q12 0 18 4q4 -20 17.5 -29.5t29.5 -9.5q18 0 32.5 12t14.5 37q0 20 -1 39.5t-1 42.5q0 55 2.5 111.5t2.5 111.5q16 0 32 12l8 9q8 8 13 10q23 -23 49.5 -38t54.5 -15q33 0 72 22.5t72 46.5q6 -18 8 -44.5 t8 -52.5t18.5 -44.5t40.5 -18.5q20 0 32.5 20.5t20 50.5t9.5 62.5t2 57.5q0 23 -1 44t-3 44q-2 25 -32 38t-72 20.5t-87 8.5t-78 1q-86 0 -171 -4.5t-171 -4.5h-47q-27 0 -46 -29.5t-32.5 -70.5t-19.5 -85t-6 -73zM360 950q0 -10 5.5 -19.5t9.5 -15.5q24 -26 57 -26h2l8 -29 q0 -25 14.5 -37t30.5 -12q6 0 19 4q4 -20 20.5 -37.5t36.5 -17.5q25 0 42.5 30.5t17.5 53.5q0 10 -2 14q23 23 42 47.5t19 67.5q0 27 -16.5 44t-41 26.5t-56 13.5t-62.5 4q-20 0 -45 -6t-47.5 -18.5t-38 -34t-15.5 -52.5z" />
<glyph unicode="G" horiz-adv-x="1042" d="M57 1278q0 86 28 171t79 153.5t121.5 110.5t156.5 42q35 0 80 -10q8 2 21 2q37 0 65.5 -17.5t67.5 -21.5h2q2 2 12 2q16 0 49 -13.5t58 -23.5q4 -33 25.5 -54.5t45.5 -41.5q59 -102 60 -227q0 -23 -3 -53.5t-10.5 -58.5t-19.5 -47.5t-31 -19.5q-23 0 -44 11.5t-36 34.5 h-221v116q0 66 -65 66q-66 0 -66 -66v-911q8 0 15.5 2t17.5 2q45 0 98 -27v285q-12 31 -15 62.5t-11 64.5q-16 31 -25.5 65.5t-9.5 71.5q0 39 22.5 63.5t54 39t66.5 19.5t60 5q59 0 121.5 -11t117.5 -11q18 0 31.5 -12.5t21 -31t10.5 -39t3 -36.5q0 -35 -6.5 -61.5 t-6.5 -55.5q0 -20 3.5 -39.5t3.5 -40.5q0 -31 -14.5 -58.5t-43.5 -27.5q-12 0 -18 4t-10.5 10.5t-8.5 14.5t-12 18h-27v-555q0 -72 33 -143h-194q-33 14 -45 96l-7 -4q0 -18 -18 -34.5t-48 -29t-67 -20.5t-71 -8q-74 0 -134.5 28.5t-103.5 78t-66.5 117t-23.5 147.5v598 q-20 12 -25 41l-12 106q-31 76 -31 162zM92 1333q0 -18 2 -50t8.5 -63.5t15.5 -58t23 -33.5v-41q-2 -6 -2 -16t2 -14v-4q0 -18 19 -27l2 -4h2q12 -18 39 -18h6q0 -37 -2 -74t-2 -82q0 -41 8 -74t39 -33q18 0 33.5 11.5t15.5 35.5q0 33 -1 66t-1 66q0 16 1 31.5t1 31.5 q37 0 51.5 28.5t20.5 67.5t10 79t16 65q2 16 3 33.5t1 33.5v43q0 37 4.5 73t22.5 71q23 -27 53 -27q23 0 39.5 19.5t26.5 41.5q10 -12 23.5 -20t31.5 -8q8 0 14 2l3 -2q8 -20 9 -51t6 -61t21.5 -51.5t55.5 -21.5q35 0 41 31q10 -33 34.5 -68.5t59.5 -35.5q33 0 43 25.5 t10 60.5q0 66 -23.5 129t-39.5 123q-10 8 -23.5 17t-28 18.5t-23.5 15.5t-9 8l-23 8l-6 8q-33 8 -59.5 22.5t-53 28t-56.5 22.5t-71 9q-76 0 -146.5 -31.5t-125.5 -85t-88 -124t-33 -146.5zM426 297v-2q-2 -6 -2 -16q0 -20 9 -37t24 -31q0 -10 -1 -21.5t-1 -21.5 q0 -66 45 -66q18 0 33.5 11.5t15.5 36.5q0 8 -1 15t-1 15q0 16 1 32.5t1 33.5q10 4 30.5 18.5t20.5 34.5q0 16 -12.5 31.5t-31.5 27t-40.5 18.5t-40.5 7q-67 0 -67 -46q0 -28 18 -40zM543 932q0 -23 9 -52.5t30 -35.5q-2 -20 -3 -40t-1 -40q0 -16 2 -35.5t8 -36t16 -27 t27 -10.5q23 0 39 21q6 -96 6 -187v-61q0 -25 14.5 -38t28.5 -13q23 0 34 14.5t14 37t2 49t-1 52.5v58.5t-4 62.5q8 -23 35 -22q18 0 34.5 13t16.5 36v18q0 29 2 59.5t4 61.5h10q10 -41 16.5 -64.5t41.5 -23.5q16 0 27.5 11.5t18.5 27.5t10 36.5t3 37.5q0 37 -12.5 72.5 t-36 63.5t-56 45t-71.5 17q-10 0 -18.5 -1t-18.5 -3q-10 2 -19.5 2h-19.5q-29 0 -55.5 -7t-48.5 -23q-12 16 -35 16q-16 0 -30.5 -13t-14.5 -36q-2 -10 -3 -21.5t-1 -21.5zM629 1485h10l2 -8z" />
<glyph unicode="H" horiz-adv-x="1019" d="M82 1532q0 41 12 87t38 86t66 65.5t93 25.5q27 0 51.5 -8t50.5 -8q8 0 15.5 2t15.5 2q20 0 34.5 -13.5t22.5 -33t12.5 -41t4.5 -37.5q0 -29 -4.5 -56.5t-8.5 -56.5q-18 -47 -18 -99t-25 -93v-260q23 8 52 8q43 0 77 -21v193q-20 4 -32.5 28.5t-18.5 58.5t-7 69.5t-1 62.5 q0 162 56.5 223.5t172.5 61.5q57 0 95 -14.5t58.5 -38t29 -54.5t8.5 -63q0 -59 -14.5 -124t-14.5 -120v-12q0 -31 -24 -45v-1307h-308v698h-129v-698h-307v1348q-12 8 -22.5 30.5t-16.5 49t-10 55t-4 49.5zM121 1453q0 -18 4 -34q4 -23 15.5 -33t27.5 -10q8 0 12 2 q0 -57 1 -112.5t1 -112.5q0 -41 -2 -84t-2 -84q0 -25 14.5 -37t28.5 -12q12 0 22.5 23.5t17.5 62.5t10 87t3 95q0 41 -1 82t-1 82h19q8 -29 26.5 -51.5t44.5 -22.5q37 0 51.5 30t14.5 58q2 68 7 103t10.5 56.5t9.5 36.5t4 44q0 31 -16.5 53.5t-42 38t-58.5 23.5t-66 8 q-45 0 -74.5 -28.5t-48 -68.5t-25.5 -85t-7 -76v-34zM391 969q0 -39 21.5 -71t66.5 -36q12 6 21.5 6t19.5 4q4 -4 10.5 -8t16.5 -8q-2 -16 -6 -30.5t-4 -30.5q0 -20 12 -33.5t33 -13.5q25 0 35 32.5t14 71.5t4 71.5t4 32.5l2 -2q0 2 -7 16.5t-34 76.5q-51 16 -69.5 26 t-41.5 10q-47 0 -72.5 -36.5t-25.5 -77.5zM561 1475q0 -33 5 -62t16 -57l12 -6q12 -7 28.5 -13t35 -12t32.5 -6q16 0 29 12v-6l9 -38t21.5 -83t25.5 -83t24 -38q8 0 13 10.5t5 20.5v23q0 74 12 147q27 12 27 37v12q4 61 22.5 126t18.5 126q0 37 -13.5 72t-47.5 65h-11 q-29 0 -54.5 4.5t-53.5 4.5q-23 0 -53 -11q-12 -4 -30 -31.5t-34 -65.5t-27.5 -78t-11.5 -70z" />
<glyph unicode="I" horiz-adv-x="610" d="M76 1448q0 37 2 91t9 104.5t22.5 87t40.5 36.5q4 0 7 -1t7 -1q6 6 98 17q4 -2 14 -2q35 0 70 15t64 15q53 -18 75.5 -37.5t29.5 -41t6 -45t5 -50.5q-4 -35 -5 -70.5t-1 -72.5v-125q0 -86 -9 -170t-50 -160v-1038h-307v1122l-23 6q-10 8 -32.5 93.5t-22.5 226.5zM106 1317 q74 -156 101 -156q4 0 15 -14t26 -14q-20 -43 -21 -89q0 -47 19.5 -78.5t42.5 -31.5q18 0 32.5 27.5t14.5 95.5h2q10 0 30.5 8t41 21.5t38 30t21.5 30.5q12 55 16 109.5t5.5 108.5t2.5 108.5t7 109.5q-4 27 -4 57.5t-5.5 57t-20.5 45t-52 18.5q-16 0 -30.5 -4t-31 -10 t-37 -10t-51.5 -4q-16 0 -31.5 2t-29.5 2q-35 0 -52.5 -28t-25.5 -82t-11.5 -132t-11.5 -178z" />
<glyph unicode="J" horiz-adv-x="1052" d="M80 449q0 35 15.5 68.5t41 60t59 43t70.5 16.5q10 0 21.5 -2t21.5 -2q31 0 62.5 6t60.5 6q41 0 68.5 -27.5t27.5 -60.5q0 -41 -6 -84q4 -16 7 -30.5t3 -30.5q0 -27 -13 -43.5t-38 -16.5q-8 0 -16 4q8 -51 65 -51q63 0 64 66v915q-6 -2 -16 -2q-18 0 -33 14l-25 23 q0 66 -6 130.5t-6 129.5q0 47 5.5 92t21.5 90q8 33 36 33q29 0 45 -18q16 4 27 4q23 0 47 -8q47 10 90 10q20 0 47 -4t50.5 -15.5t41 -30t19.5 -46.5q0 -18 -2 -25q6 -104 9 -195.5t3 -212.5q0 -35 -2 -68.5t-6 -62t-13 -48t-24 -23.5v-682q0 -78 -29.5 -145.5t-81 -118 t-119 -79t-143.5 -28.5q-72 0 -135 24.5t-112.5 68.5t-82 103.5t-40.5 129.5q-20 4 -34.5 19t-25 33.5t-15.5 38t-5 32.5zM119 473q0 -41 21.5 -73.5t58.5 -32.5q6 0 12 2t14 6l2 -2q2 0 4 -2q-2 0 -2 -2q0 -18 17.5 -34t32.5 -20q0 -14 3 -32.5t11 -36t20.5 -29.5t32.5 -12 q27 0 42 27.5t15 56.5q0 16 -2 31.5t-2 31.5q0 18 13 35h18v2q41 0 57.5 32t16.5 56q0 49 -40 87t-93 38q-27 0 -45 -8q-25 -18 -50.5 -15t-50.5 -10q-16 12 -28 13q-17 -1 -31 -13q-23 -16 -35 -41.5t-12 -54.5zM524 1499q0 -25 3 -58.5t12.5 -64t24 -52t36.5 -21.5 q10 0 16 2l21 8q8 -29 29 -45q4 -63 7 -127t3 -127q0 -27 -1 -51.5t-1 -49.5q0 -20 14 -30.5t33 -10.5q25 0 37 28t16 67t4 79.5t2 69.5q8 -16 33 -26h27q25 0 39 10t20 25.5t8 34t2 36.5q0 61 -2 121.5t-2 122.5q0 35 4 64.5t4 66.5q0 12 -10 26l6 58q-8 23 -22.5 47 t-42.5 24h-8q-27 10 -64 11q-33 0 -65.5 -5.5t-65.5 -7.5l-6 -10q-14 20 -41 21q-16 0 -28.5 -9.5t-16.5 -29.5q-10 -47 -17.5 -97.5t-7.5 -99.5z" />
<glyph unicode="K" horiz-adv-x="1032" d="M55 1481q0 119 39 223q10 47 48 61.5t81 14.5q23 0 41.5 -3t34.5 -3q31 0 58.5 13t56.5 13q25 0 42 -12t27.5 -30.5t14.5 -39t4 -35.5q0 -51 -16.5 -106t-16.5 -104q6 -18 6 -35q0 -18 -6 -33l16 27q0 4 -1 9t-1 9q0 31 11.5 60.5t27 58t32.5 55.5t32 53q25 47 63.5 66.5 t83.5 27t92 10.5t90 17q25 -10 47.5 -8t45.5 -16q28 -44 28 -94q0 -38 -11 -72.5t-28.5 -67.5t-38 -64.5t-36.5 -62.5q-4 -37 -32 -52t-61 -15q-25 0 -45 6l-227 -389l12 -27q33 0 61.5 -19.5t43.5 -50.5q10 -88 39.5 -169t68.5 -158l76 -156q39 -80 66 -162q27 -31 49 -73 t22 -82q0 -33 -18 -60l2 -6h-6l-23 -20h-49q-6 4 -10 10t-8 10h-244l-201 481v-481h-309v1249h-6q-23 0 -36 25.5t-20.5 62.5t-9.5 76t-2 68zM86 1425q0 -23 1 -46t9 -43.5t22.5 -34t43.5 -13.5q31 0 47 25l8 10l10 -6q10 -14 27 -14q2 0 14 4q-6 -47 -6 -86q0 -51 9.5 -79 t43.5 -28q16 0 29.5 11.5t13.5 33.5q0 14 -2 28.5t-2 29.5q0 39 6 75q18 0 34 19.5t16 56.5q16 4 25 24.5t14.5 49t7.5 61.5t2 62t1 59.5t-5 56t-22.5 42t-49.5 16.5q-31 0 -61.5 -18.5t-57.5 -34.5q-14 10 -28.5 25t-32.5 15q-43 0 -66.5 -38.5t-35 -89t-13.5 -100.5 t-2 -73zM252 1677q0 6 4 6zM489 815q0 -14 4.5 -34.5t10.5 -39t14 -33t17 -16.5q14 -35 36.5 -68.5t43 -68.5t36 -70.5t15.5 -76.5q6 -45 20 -87t57 -65q23 -18 41.5 -56t36 -75t35.5 -65.5t41 -28.5q18 0 32.5 13t14.5 34q0 4 -1 6t-1 6q-31 94 -75 189.5t-89 189.5 t-84 185t-59 180q0 23 -21.5 36t-42.5 13q-12 0 -24 -6q-4 2 -12 2q-16 0 -29.5 -12.5t-13.5 -35.5q-2 -6 -3 -16zM518 1477q0 -12 4 -27.5t15 -22.5v-26q0 -31 13 -52.5t36 -21.5q8 0 12 2q16 -51 51 -51q25 0 41.5 16.5t27.5 38t19 44t17 34.5l8 -6q8 -18 35 -19 q37 0 69.5 23t56 57.5t37 74.5t13.5 75q0 20 -4 42.5t-14.5 42t-28 33t-43.5 13.5q-29 0 -55.5 -6t-55.5 -6q-10 0 -18.5 1t-18.5 5q-16 -4 -28.5 -15.5t-26.5 -11.5q-4 0 -5 1t-3 1q-27 -25 -54.5 -55.5t-49 -64t-36 -64.5t-14.5 -55zM829 141h2q0 -2 1.5 -4t1.5 -6z" />
<glyph unicode="L" horiz-adv-x="800" d="M55 1423q0 35 6.5 73t6.5 75q0 12 -2.5 23.5t-2.5 21.5q0 39 16.5 70.5t44.5 55t61.5 37t70.5 13.5q18 0 38.5 -3t39.5 -13q14 -6 28.5 -8.5t30 -4.5t28.5 -8t23 -22q23 -8 35.5 -35t18.5 -59.5t8 -67.5t2 -62q0 -59 -7 -117.5t-14 -121.5l-6 -56q-4 -27 -11 -50t-32 -40 v-751h23q45 0 71 -21q27 4 52.5 14.5t48.5 10.5q55 0 91 -46t36 -104q0 -35 -17 -67v-10q0 -23 -14 -39.5t-31 -26.5v-84h-569v1276l-6 4q-41 27 -54.5 64.5t-13.5 78.5zM96 1458q0 -25 3 -51.5t10.5 -49t18.5 -37.5t30 -15q12 0 22 6q2 -2 10 -2t13 2q0 -29 -1 -55.5 t-1 -53.5q0 -53 8 -76.5t39 -23.5q18 0 33.5 11t15.5 38q-2 6 -2 18v21q12 8 16 22.5t8 49.5q8 -23 12.5 -39.5t12.5 -28.5t21.5 -20.5t37.5 -14.5q18 12 33 23.5t15 34.5q0 63 15 139t15 149q0 27 -6 65t-20.5 72.5t-41 59t-65.5 24.5q-12 0 -24.5 -1t-24.5 -1 q-29 29 -70 29q-49 0 -90 -40t-41 -91q1 -27 11 -45q-4 -29 -8.5 -59.5t-4.5 -59.5zM369 270q0 -21 16 -37q0 -4 -3 -11t-3 -13q0 -33 35 -41l32 -6l15 12q10 -23 28.5 -36t40.5 -13q12 0 19 2q8 -10 12 -22.5t9 -24.5t13.5 -20.5t24.5 -8.5q6 0 27.5 11.5t44 32t41 49 t18.5 61.5q0 43 -27.5 82t-72.5 39q-23 0 -44.5 -12.5t-45.5 -12.5q-29 0 -53.5 14.5t-53.5 14.5q-23 0 -48 -18.5t-25 -41.5z" />
<glyph unicode="M" horiz-adv-x="1333" d="M80 1384q0 88 5 169t34 163q6 16 27.5 26.5t52 15.5t65.5 7t64 2q68 0 109.5 -18t64 -49t31 -71t8.5 -85q0 -53 -6.5 -108.5t-6.5 -104.5l62 -334q61 0 100 -65l86 409q-18 10 -24.5 43t-6.5 56q0 61 18.5 121.5t22.5 115.5q2 37 22.5 59.5t50.5 33t67 13.5t71 3 q141 0 194.5 -58.5t53.5 -154.5q0 -68 -23.5 -137.5t-54.5 -128.5v-1307h-309v594l-166 -594h-76l-167 594v-594h-308v1122q-23 8 -35 36t-18 66t-7 81t-1 79zM115 1366q0 -31 3 -74t11 -84t24.5 -69.5t41.5 -28.5q18 0 31.5 11.5t13.5 31.5q0 12 -2 18q-4 2 -7 19 q10 10 13.5 27.5t5.5 29.5l6 -2v-37q0 -27 14.5 -38t30.5 -11q18 0 33.5 11.5t15.5 37.5v76q8 10 16.5 18.5t14.5 18.5q0 -23 1 -50.5t7 -50t17.5 -38t31.5 -15.5q31 0 48.5 47.5t24.5 105.5t9 109.5t2 59.5q0 41 -7 82t-25.5 72.5t-47 51t-71.5 19.5h-15.5t-17.5 -2 q-16 4 -33.5 6t-36.5 2q-39 0 -72.5 -13t-50.5 -50q-10 -72 -20 -145.5t-10 -145.5zM532 883q0 -31 21 -43l-2 -6q-6 -10 -6 -23q0 -25 8 -37t19.5 -22.5t19.5 -19.5t8 -27v-33q0 -20 2 -31v-74q0 -25 14.5 -37t30.5 -12q20 0 31.5 9.5t16.5 24.5t8.5 34.5t9.5 40.5l2 4 q10 8 20 33.5t17.5 57.5t12.5 64.5t5 55.5q0 76 -47 76q-27 0 -43 -23q-4 4 -7 3t-9 3q-6 27 -16.5 39t-23 16.5t-23.5 4.5t-15 2q-23 -12 -38.5 -34t-15.5 -46zM782 1466q0 -25 4.5 -49t16.5 -47l16 -6q4 -10 17 -14q4 -31 25.5 -68t60.5 -37q16 0 32.5 6t30.5 17 q6 -23 7 -60t7.5 -71.5t20.5 -60t43 -25.5t51.5 15t22.5 46v8q10 29 13 56.5t3 56.5q0 47 9 88t21.5 81t21.5 82t9 91q0 29 -7 58.5t-22.5 53t-41 39t-62.5 15.5q-29 0 -56.5 -6t-55.5 -6q-14 0 -25.5 4t-25.5 4q-23 0 -60 -11q-14 -4 -27.5 -32.5t-24.5 -69.5t-17.5 -84 t-6.5 -74zM915 1616l5 4q-4 -4 -5 -4z" />
<glyph unicode="N" horiz-adv-x="1075" d="M82 1622q0 45 20.5 78t52 54.5t72.5 32.5t84 11q63 0 102.5 -19.5t60 -50t26.5 -70.5t6 -79q0 -23 -1 -45.5t-3 -44.5l53 -186q29 0 45 -25l6 -10v188q-12 4 -19 21.5t-10.5 40t-4.5 46t-1 42.5q0 25 3.5 58.5t13.5 63t30.5 51t55.5 21.5q41 0 83 -10t83 -10q14 0 27.5 3 t27.5 3q27 0 45 -14.5t29.5 -34t15.5 -42t4 -38.5q0 -41 -10 -84t-12 -82q-10 -37 -18.5 -86t-35.5 -80v-1325h-270l-166 532v-532h-309v1274q-53 25 -65.5 74t-12.5 108v64q0 29 -4 54t-4 48zM117 1450q0 -16 1 -42t8 -49.5t21.5 -39.5t42.5 -16q25 0 47.5 20t24.5 31 l2 -35q0 -18 15.5 -28.5t33.5 -10.5q20 0 32.5 15.5t18 37t6.5 46t1 44.5q2 -12 14 -28q6 -9 10 -17q2 -4 11.5 -34.5t26 -75.5t35.5 -96.5t41.5 -94.5t44 -71.5t42.5 -28.5q16 0 28.5 11t19.5 28.5t11 36t4 32.5q0 66 -38.5 120.5t-92.5 78.5q-12 12 -18 45t-14 55 q6 12 6 31q0 27 -7.5 55.5t-9.5 53.5q-8 39 -10 81t-15.5 76.5t-45 58t-99.5 23.5q-35 0 -69.5 -10t-63 -28.5t-46 -45t-17.5 -61.5q0 -14 2 -23q0 -39 -2 -74.5t-2 -70.5zM594 1128l4 5l10 -31zM596 1593q0 -47 19.5 -85t76.5 -38q4 -4 8 -4v-159q0 -41 7.5 -77t40.5 -36 q18 0 33.5 11.5t15.5 37.5q0 39 -1 75t-1 75q10 -16 24.5 -34t36.5 -18q18 0 30.5 11.5t33.5 21.5q4 66 19 128.5t15 125.5q0 51 -16 71.5t-40 27t-51.5 4.5t-49.5 8h2q-10 4 -17.5 9t-15.5 5q-10 0 -14 -4q-25 18 -54 18q-35 0 -63.5 -23.5t-28.5 -62.5v-6q-10 -41 -10 -82 zM698 1667v2h2z" />
<glyph unicode="O" horiz-adv-x="1034" d="M76 1307q0 45 28 86v20q0 45 16.5 82t63.5 51q0 12 12.5 45t34 67t51 60.5t62.5 26.5q8 0 13 -1t14 -3q25 33 63.5 47t77.5 14q35 0 74 -10t73.5 -25.5t60 -36t34.5 -38.5v-2q4 0 4 -2l4 -5l16 3q23 0 41 -19l6 -12h6q16 0 25.5 -15.5t17.5 -25.5l3 -8q25 -4 39 -24.5 t14 -49.5v-16q10 -6 12 -20.5t2 -31.5v-16q12 -10 12 -39v-25q-10 -25 -10 -47l10 -94q0 -23 -6 -35q6 -10 6 -22q0 -25 -18 -38t-45 -20v-757q0 -78 -29.5 -145.5t-80 -118t-119 -79t-144.5 -28.5t-143.5 28.5t-118.5 78t-81 117t-30 147.5v704q-18 12 -24 44t-12 57 q0 4 1 9t1 9l-2 18q-16 16 -25.5 46t-9.5 49zM156 1307q0 -27 9 -53.5t28 -45.5l28 -303q10 -43 47 -43q18 0 32.5 12.5t14.5 32.5v6q-6 41 -9 81t-7 79l2 -2q0 -20 12.5 -43.5t38.5 -28.5l23 -2q35 0 50 36t23.5 83t18.5 95.5t35 70.5q45 -2 70.5 -22.5t42 -49t28.5 -62.5 t31 -65l14 -2q6 -27 9 -68.5t11.5 -81.5t25 -68.5t48.5 -28.5q25 0 40.5 15t25.5 36.5t14 46t4 41.5l-10 121q20 33 21 77q0 35 -17 62q10 20 27.5 34.5t17.5 49.5q0 31 -13 57.5t-24 52.5q27 20 27 54q0 33 -19.5 56.5t-45 38.5t-54 23.5t-47.5 8.5q-8 0 -12 -2 q-8 14 -15.5 31.5t-15.5 33t-19.5 25.5t-25.5 10h-2q-41 41 -100 41q-37 0 -73 -16.5t-54 -47.5l-50 3q-37 0 -59 -21l-14 -14l-11 -13q-12 -14 -24 -34.5t-22.5 -44t-10.5 -43.5q-27 -10 -45 -34t-18 -50q0 -23 16 -43v-13q-18 -29 -18 -69zM457 371q0 -66 63 -66 q66 0 66 66v676q-20 37 -29.5 78.5t-36.5 74.5q-8 -27 -12 -58.5t-8 -62t-13.5 -58.5t-29.5 -48v-602z" />
<glyph unicode="P" horiz-adv-x="940" d="M66 1350q0 43 11 81.5t11 79.5q0 25 -6 49.5t-6 49.5q0 31 10 52t23 46q27 2 46 16.5t38.5 29.5t40 27.5t47.5 12.5h2q98 -37 211 -37h18q14 0 23.5 -8t18.5 -17.5t19.5 -17.5t26.5 -10q12 0 24.5 8t30.5 8q43 0 82 -24.5t70 -66.5t49 -96t18 -116q0 -35 7.5 -67.5 t7.5 -55.5q0 -31 -19 -51v-158q0 -72 -29.5 -140t-78.5 -123.5t-114.5 -89.5t-137.5 -34h-78v-698h-307v1178q-33 33 -46 77.5t-13 94.5zM109 1370q0 -33 3 -68.5t31 -52.5q14 -10 20.5 -21t7.5 -23.5t2 -24t7 -21.5q0 -12 4 -29.5t12.5 -32t19.5 -24.5t26 -10h20 q37 0 50.5 32.5t20.5 75.5t17 84t39 60v20q0 47 19 76q14 -18 35.5 -31.5t48.5 -13.5h4q29 -23 57 -25l16 -12q4 -14 12.5 -19t16.5 -9.5t14 -12.5t6 -28v-35q0 -18 2.5 -39t9.5 -39.5t19.5 -30.5t32.5 -12q25 0 40 13t23.5 33.5t12.5 42t4 40.5v8q33 23 61.5 59.5 t28.5 90.5q0 33 -2 64.5t-10.5 61t-25.5 53t-46 38.5q-14 33 -37.5 43t-52.5 10q-16 0 -33.5 -3t-38.5 -7h-6q-31 0 -59.5 13t-58 30.5t-63.5 31t-77 13.5q-29 0 -51 -15q-10 2 -16.5 3.5t-10.5 1.5q-25 0 -46 -16.5t-28 -51.5q-41 -8 -57 -44t-16 -73q0 -31 7 -47t7 -41 q-4 -16 -11 -29.5t-11 -31.5v-25zM184 1645l4 4v-13zM432 1008h41q37 0 63.5 33.5t26.5 72.5v146q-16 14 -37.5 37.5t-38.5 23.5l-55 -14v-299z" />
<glyph unicode="Q" horiz-adv-x="1021" d="M63 1272q0 45 11.5 88t31.5 82l11 10q-6 14 -10.5 29.5t-10.5 31.5q20 39 44 83t67 63q12 20 30.5 52t45 62.5t64.5 52t91 21.5q37 0 68 -18v-2q61 -14 110 -70q18 18 46 27.5t57 9.5q43 0 80 -20.5t49 -63.5q27 -31 52.5 -68.5t25.5 -78.5q0 -16 -2 -25q10 -14 18 -30.5 t8 -32.5q0 -10 -2 -17.5t-6 -15.5q4 -23 21.5 -51.5t17.5 -53.5q0 -23 -6 -44t-6 -44t9 -48t9 -52q0 -47 -20.5 -87t-57.5 -69v-622q0 -137 -129 -293q31 8 77 16t110 19v-281q-168 -8 -273 -141l-221 155q37 61 148 154h-93q-76 0 -142.5 28.5t-115.5 80t-77.5 118 t-28.5 144.5v696q-51 29 -76 88t-25 117zM113 1352q0 -27 3 -57.5t10 -60.5t20.5 -55.5t33.5 -43.5q16 -29 21.5 -69t13.5 -77t26.5 -62.5t61.5 -25.5q37 0 68.5 22.5t31.5 63.5q0 10 -2 19.5t-2 19.5q0 43 26 76t55.5 63.5t55 64.5t25.5 79v20q18 -12 37 -12q18 0 37 12 q27 -27 33 -57.5t6 -63.5v-49q0 -27 3 -50.5t19 -45.5v-8q0 -14 11 -39q0 -39 -7.5 -71t-23.5 -62q8 -37 10 -73t7 -72t17.5 -68.5t37.5 -61.5q0 -2 6 -8t15 -13t19.5 -12.5t18.5 -5.5q27 0 46 28t19 62q0 16 -2 29.5t-2 26.5q4 55 6.5 109.5t2.5 107.5q0 29 -1.5 56.5 t-3.5 55.5q8 12 29 21q10 29 13.5 56.5t3.5 56.5v43q0 23 1 44t7 44q0 20 -16.5 43.5t-16.5 40.5q0 10 8 26.5t8 32.5q0 25 -11 47.5t-25.5 38.5t-25.5 26l-11 11q0 10 4 21.5t4 23.5q0 45 -34 81t-77 36q-29 0 -42 -12.5t-54 -26.5q-35 6 -60.5 23.5t-49 36t-48 32.5 t-57.5 14q-80 0 -113 -125q-53 -14 -93 -57t-40 -92q0 -31 19 -55v-15q-6 -16 -19.5 -29.5t-27 -26.5t-24.5 -25.5t-11 -26.5zM469 371q0 -66 68 -66q66 0 65 66v846q-2 -27 -14 -50q-14 -41 -41 -69.5t-66 -28.5q-4 0 -6 1t-6 1v-700z" />
<glyph unicode="R" horiz-adv-x="1007" d="M80 1616q0 25 4 56.5t17.5 61t38 50t65.5 20.5q14 0 31 -12q4 0 6 2q53 20 113.5 30.5t119.5 10.5q37 0 68.5 -15.5t62.5 -35t60.5 -41t64.5 -33.5l10 -6q16 -6 22.5 -14.5t16.5 -18.5l60 -41q47 -33 61 -77t14 -95q0 -41 -5 -82t-5 -82q0 -37 10 -77q-6 -12 -9 -26.5 t-9 -29.5v-76q0 -123 -98 -235q98 -121 98 -232v-618h-307v590q0 106 -129 106v-696h-307v883q-53 31 -64 86q12 117 14 232.5t7 234.5q-12 43 -21.5 88t-9.5 92zM111 993q0 -4 5 -20.5t14 -33.5t22.5 -30.5t31.5 -13.5q16 0 31.5 12.5t30.5 32.5q20 0 26 -2 q-2 -33 -2 -65.5v-65.5v-127q0 -25 14.5 -37t30.5 -12q18 0 32.5 12t14.5 37q0 88 2.5 176t6.5 178q18 27 23 58.5t7 64.5t7.5 65.5t21.5 61.5q10 -4 20.5 -8t20.5 -4q18 0 37.5 11t40 26.5t40 32t38.5 26.5q12 -86 14 -170t2 -170q0 -25 23.5 -41t40.5 -16q37 0 54 29.5 t26.5 69.5t13.5 81t16 63q4 -2 10 -2q18 0 31.5 14.5t22 35t11.5 44t3 42.5q0 90 -28.5 142t-71.5 86t-93.5 58.5t-93.5 59.5q-6 0 -14 14t-20.5 32.5t-30 33t-41.5 14.5q-12 0 -19 -2q-39 -25 -85 -27t-93 -4t-89 -14.5t-71 -57.5q-6 -47 -8 -95t-2 -97q0 -76 3 -150.5 t7 -150.5q-6 -49 -20 -99.5t-14 -97.5zM461 1008h39q37 0 63.5 33.5t26.5 72.5v178q-20 -20 -44 -32.5t-48 -12.5q-20 0 -29 4l-8 -8v-235z" />
<glyph unicode="S" d="M76 1333q0 72 22.5 143.5t42.5 143.5q10 41 42 65.5t71 36.5q41 39 93 69t106 30h22q4 0 21 -4l63 -5q90 -6 154.5 -64t101.5 -132q2 -18 10.5 -40t16.5 -44.5t14 -45t6 -40.5q0 -4 -1 -10t-3 -17q8 -43 19 -237q0 -20 -3.5 -46t-12.5 -48.5t-24.5 -38t-41.5 -15.5 q-31 0 -45.5 8.5t-25.5 19.5t-25.5 19.5t-45.5 8.5q-25 0 -35 10q-4 0 -25.5 14t-27.5 33l-2 8q-8 18 -13 36.5t-5 37.5v14q0 5 4 17q4 14 10 20v53q0 66 -63 66q-66 0 -66 -66q0 -92 28.5 -167.5t75 -140t103.5 -123t117 -118.5q114 -157 114 -409q0 -82 -29.5 -149.5 t-80.5 -118t-119 -79t-143 -28.5q-78 0 -145.5 28.5t-119 79t-80 118t-28.5 145.5v69q-12 12 -12 27q0 8 6 20l6 19v35h8q10 39 36 59.5t48 20.5q18 0 46 -6.5t40 -10.5q4 0 12.5 5t16.5 5q6 0 22 -4q10 0 21.5 8.5t21.5 8.5q18 0 33.5 -11.5t28 -28t19.5 -36t9 -37.5v-12 q0 -59 -55 -82v-49q0 -66 66 -66q63 0 63 66q0 201 -113 319q-61 59 -109 104.5t-88 98.5t-76 128t-73 191q0 2 -2 5.5t-2 7.5q-20 49 -20 108zM127 1331q0 -31 3 -49t26 -29q0 -29 8 -78t21.5 -97t33 -84t43.5 -36q18 0 32.5 11.5t14.5 31.5q0 13 -4 21q-14 33 -25.5 66.5 t-17.5 68.5h2q6 -6 23 -6q4 0 8 1t8 1q10 -10 29 -10q33 0 41 43t18 96t35 98t90 50q6 -8 17.5 -12.5t21.5 -7.5t17.5 -8t7.5 -13v-5q4 -14 5 -28.5t3 -26.5v-18q0 -43 12 -80t55 -60q14 10 27 11q16 0 34.5 -11.5t35 -26t30 -26.5t23.5 -14q23 0 39 20.5t16 49.5 q0 18 -6 42.5t-14.5 59.5t-17.5 81t-17 109q0 66 -24.5 121t-68.5 95t-102.5 62.5t-126.5 22.5q-66 0 -129 -24.5t-113.5 -76.5t-82 -135t-31.5 -200zM139 496q0 -23 9.5 -36.5t21.5 -24.5t21.5 -24.5t9.5 -35.5v-47q0 -18 3 -39t10 -38.5t18.5 -28.5t29.5 -11 q35 0 48.5 28.5t17.5 65.5t6 72t16 49q12 0 29.5 4t33 12.5t27 22.5t11.5 37q0 35 -33 58.5t-62 23.5t-57.5 -7.5t-44.5 -11.5q-10 27 -43 27q-6 0 -14.5 -2t-14.5 -8q-20 -14 -31.5 -38t-11.5 -48z" />
<glyph unicode="T" horiz-adv-x="813" d="M25 1487q0 133 18 274q10 41 45 41q20 0 37 -16l37 2q10 0 37.5 -3t79.5 -11q8 -2 44.5 -4.5t88 -6.5t109 -8t108.5 -9t87 -11t44 -13q0 -2 3 5.5t7 7.5t8 -19.5t4 -36.5q0 -12 -1 -19t-1 -16.5t-1 -22.5t-1 -40v-186q0 -10 -4 -25.5t-13 -30t-22.5 -23.5t-29.5 -9 q-29 0 -58 32l2 -4h-12q-25 0 -45.5 14.5t-38.5 34.5v-1384h-307v1399h-14l-41 -23q-12 -18 -36 -41.5t-57 -23.5q-29 0 -44 16t-22 42t-9 56.5t-2 61.5zM48 1532v-12q0 -24 3 -46q4 -28 15.5 -46.5t33.5 -18.5q27 0 46.5 11.5t29.5 27.5l12 8q14 14 22.5 16.5t37.5 6.5 q4 -18 15 -25.5t23.5 -17t22.5 -26.5t10 -54l-10 -303q14 -68 47 -68q8 0 22.5 4t18.5 6q-6 -117 -6 -227v-76q18 -51 43 -51q23 0 49 51v58q0 135 8.5 261t8.5 257q0 35 -1 69.5t-3 69.5l8 -2q23 0 41 25l22 8q10 -16 22.5 -34t35.5 -18q20 0 34 15q2 -2 15 -2q8 0 16 5 t16.5 26.5t17.5 63.5t19 116q0 27 -14 55.5t-41 28.5q-139 4 -254 12q-49 2 -98 5t-92 6t-75 6t-46 8q-47 -8 -60.5 -51.5t-13.5 -90.5q0 -25 -1 -57z" />
<glyph unicode="U" horiz-adv-x="1054" d="M76 1440q0 61 6 122.5t6 120.5v31q41 53 107 82q23 0 36 -9t25 -11q27 4 52.5 6t51.5 2q39 0 77 -7.5t75 -27.5l14 -39q-14 -37 -16 -72.5t-2 -72.5t-2 -73t-14 -71q0 -4 1 -6t1 -6q0 -23 -7.5 -46.5t-7.5 -45.5q0 -61 10.5 -127t14.5 -127l-17 -16q-4 -16 -7 -34 t-17 -30l-2 -2v-565l14 -13q39 31 88 31q16 0 27 -2v903q-4 8 -4 15q0 4 4 16v47l-19 70q-31 12 -30 49v72q0 100 48 134t126 34q27 0 37 -3q20 12 41 13q74 0 105.5 -31t41.5 -76q8 -38 8 -79v-17v-17q0 -41 8 -77q16 -25 17 -55q0 -41 -13.5 -88.5t-13.5 -94.5 q0 -33 4 -65.5t4 -65.5q0 -39 -14 -87t-43 -71v-587q0 -78 -29.5 -144.5t-80 -118t-118 -80t-143.5 -28.5q-78 0 -145.5 28.5t-118.5 79t-79.5 118t-28.5 145.5v518q-31 18 -37 51t-21 59q14 43 15 97q0 35 -7 71q2 27 2 52.5v52.5q0 29 -15 70.5t-15 97.5zM100 1464 q0 -29 23 -39l-6 -22q33 -57 36 -128t5 -141.5t20.5 -133t81.5 -105.5q2 -10 3 -22.5t1 -22.5q0 -35 -5 -68.5t-5 -66.5q0 -35 10 -68t39 -33q16 0 42 14.5t26 43.5q0 4 -1 5t-1 5q0 76 11 151.5t23 145.5q20 27 36 55.5t16 63.5q0 10 -4 30q4 27 5 52.5t1 52.5q0 51 -3 101 t-3 100q0 49 6 98t26 98v23q0 33 -9 44t-24.5 15t-34 7t-36.5 22q-12 -10 -31 -10q-12 0 -23.5 2t-23.5 2q-27 0 -39 -19q-47 -4 -78.5 -14t-50 -37t-26 -75t-7.5 -126zM270 692h2v-4zM465 303q0 -23 13.5 -35t31.5 -12q10 0 22 6q2 -20 14.5 -29.5t28.5 -9.5 q27 0 41.5 22.5t14.5 57.5q0 31 -21.5 61.5t-50.5 30.5q-8 0 -14 -2q-29 -8 -54.5 -31.5t-25.5 -58.5zM590 1614q0 -37 14 -82t60 -59q8 -47 10 -92.5t2 -90.5q0 -72 -2 -140.5t-2 -139.5q0 -33 7 -59.5t38 -26.5q20 0 35 14q-4 -86 -7.5 -172t-3.5 -172q0 -25 13.5 -36 t29.5 -11q18 0 34 11t16 36q0 141 7 273t7 274l10 4q20 8 28.5 33.5t13.5 56.5t12.5 64.5t25.5 58.5q6 8 6 22t-7 24.5t-15.5 18t-15.5 14.5t-7 19q0 18 10.5 39t10.5 49q0 37 -12.5 73t-34 63.5t-54.5 45t-71 17.5h-21q-4 0 -10 1t-10 1q-25 0 -57 -16.5t-42 -45.5 q-18 -35 -18 -69z" />
<glyph unicode="V" horiz-adv-x="919" d="M20 1737q0 23 14.5 32t31.5 9q14 0 20 -2q29 14 68 14h13t15 -2q18 4 40 6t44 2q188 0 189 -172q0 -72 -35 -123l37 -266q4 4 6 3t6 3h8l25 170q-4 39 -7 76t-3 74q0 111 37.5 168t136.5 57q41 0 84 -17h22q57 0 96 -23.5t39 -76.5q0 -25 -5 -43t-13 -40.5t-16.5 -53.5 t-14.5 -82q-10 -84 -25.5 -121t-46.5 -61l-182 -1268h-280l-127 903q-20 4 -33.5 22.5t-21 42t-10.5 48t-3 43.5q0 10 1 22.5t1 22.5q-41 63 -62.5 142t-32.5 162t-13.5 167t-2.5 162zM57 1696q0 -16 3 -33.5t3 -34.5q0 -16 -1 -34.5t-1 -34.5q0 -23 3.5 -52.5t19.5 -36.5 q8 -88 34.5 -168.5t55.5 -162.5q2 -6 3 -11.5t1 -11.5q0 -23 -3 -36t-3 -42q0 -14 1 -30.5t4 -30.5t10.5 -24.5t19.5 -10.5q16 0 45 19l45 -19l12 -94q4 -37 14.5 -53.5t18.5 -16.5q16 0 26.5 41t18.5 89t18.5 89t26.5 41q10 0 25.5 -22.5t33 -48t36 -48t34.5 -22.5 q31 0 66 68q16 0 30.5 10t16.5 33l14 174q6 92 6 129v28q4 -4 23.5 -11t42.5 -7q41 0 57 109q8 55 17.5 83.5t17.5 45t13 28.5t5 35q0 45 -25.5 77t-72.5 32q-6 0 -12 -1t-19 -1q-33 0 -75.5 5t-63.5 5q-33 0 -48 -34t-15 -67q0 -12 2 -18q-12 -10 -13 -27q0 -8 4 -20 q12 -37 13 -76q0 -47 -13.5 -95t-13.5 -95q0 -14 12 -27q-4 -12 -11 -30.5t-16 -37t-20.5 -32t-23.5 -13.5h-15q-4 10 -26 45q-23 37 -30 78t-9 84q8 18 8 45t-5 51.5t-5 49.5q0 31 16.5 56.5t16.5 57.5q0 14 -1 33t-15.5 35t-48.5 27.5t-97 11.5q-84 0 -111 -15 q-14 14 -35 15q-18 0 -31.5 -11.5t-13.5 -33.5z" />
<glyph unicode="W" horiz-adv-x="1314" d="M31 1507q0 59 7 121t17 121q2 10 35 25.5t92 15.5q18 0 30.5 -4t23.5 -10h10q23 0 45 -3.5t45 -5.5q16 4 24 5q41 0 67 -15.5t41 -38t20.5 -49.5t5.5 -51q0 -35 -4.5 -73t-4.5 -70q-18 -18 -25 -44t-16 -53l23 -151h10q16 0 27 -6l28 206q-22 65 -22 124v5q0 31 8 69 t26.5 69.5t47.5 54.5t72 23q53 0 83.5 -25t46 -61.5t19.5 -78.5t4 -75q0 -37 -3 -62.5t-28 -52.5l27 -190h8q18 0 29 -10l27 184q-18 8 -22.5 43t-4.5 72q0 63 6 122.5t39 116.5q6 10 23.5 16.5t41 9.5t51 4t52.5 1q41 0 83 -8.5t74.5 -27.5t53 -51t20.5 -79 q0 -29 -19.5 -113t-33.5 -215q-31 -27 -37 -60.5t-8 -69.5t-10 -68.5t-41 -57.5l-135 -1036h-258l-93 639l-94 -639h-258l-170 1323q-16 -6 -35 -6q-25 0 -39 19.5t-21 48t-9 61.5t-2 61zM73 1522q1 -43 7 -77t18.5 -55.5t32.5 -21.5q6 0 10 2q12 -29 43 -29l4 -2 q-4 -12 -4 -23v-22q0 -47 9.5 -93t9.5 -93q0 -20 14 -30.5t33 -10.5q4 -18 7 -39.5t9 -39t16.5 -29t28.5 -11.5q27 0 41.5 23.5t18.5 62.5q10 -14 24 -16l43 -23q20 -10 37 -10q20 0 46 19.5t67 76.5q25 4 29 17.5t18 23.5q6 -25 15 -39t21.5 -26.5t31 -28.5t47.5 -43 q76 -35 116.5 -54.5t46.5 -23.5l-4 -39q0 -6 -1 -12t-1 -12q0 -18 2 -39t8.5 -38t17.5 -27.5t30 -10.5q10 0 19 4t13 12q14 -10 31 -10q25 0 41 42t27.5 100.5t17.5 118t12 96.5q18 12 28.5 38.5t16 60.5t9.5 67.5t10 60.5q20 92 28.5 140t8.5 50v4q2 14 3 26.5t1 27.5 q0 16 -2 32.5t-6 32.5q-6 10 -21.5 24.5t-35 29t-41 23.5t-38.5 9q-12 0 -21 -7t-17 -7h-7q-10 10 -65 10q-53 0 -53 -41q0 -29 -3 -47t-6.5 -33.5t-6.5 -31t-3 -35.5q0 -27 5 -49.5t28 -40.5q-10 -47 -27.5 -95.5t-17.5 -95.5q0 -16 2 -24q-4 -18 -4 -37t-3 -35 t-11.5 -28.5t-26.5 -18.5l-16 -4q-8 12 -13.5 27.5t-11.5 30.5t-13.5 28.5t-19.5 19.5q-2 18 -3 37t-1 37q0 39 2 77t2 75q0 39 -6 88t-19.5 91t-34 70.5t-46.5 28.5q-12 0 -32 -14.5t-36 -37t-28.5 -53t-12.5 -63.5q0 -18 7 -38.5t7 -43.5q0 -78 -28.5 -150.5t-48.5 -144.5 q-6 4 -17 4l-12 4q-18 -2 -29 -10q-10 68 -22 133.5t-31 130.5l-2 5l-4 8q35 18 50 54t15 75q0 66 -25.5 108.5t-90.5 42.5q-10 0 -20.5 -1t-20.5 -3l-21 -6q-16 4 -24 4q-4 0 -9.5 -1t-9.5 -1q-18 18 -43 29q-110 -10 -110 -129q0 -45 1 -88z" />
<glyph unicode="X" horiz-adv-x="1032" d="M45 1692q0 37 11.5 64.5t39.5 27.5q14 0 33 -15q4 10 44 16.5t69 6.5q20 0 54 -2t70.5 -12.5t70.5 -32t57 -57.5q-6 -23 -7 -43q0 -16 6.5 -33t6.5 -33q0 -27 -21 -47l25 -88l10 8q10 8 27 8h10l14 51q-20 14 -32.5 36t-12.5 44q0 -2 7.5 28t21.5 65.5t37.5 65.5t54.5 30 q16 0 31 -15q8 6 47 7q35 0 88 -4.5t129 -12.5q23 -10 31 -29.5t8 -37.5q0 -25 -11.5 -51.5t-25.5 -59.5t-25.5 -74t-11.5 -92q0 -23 2 -47.5t2 -40.5q0 -25 -10 -42t-23.5 -29.5t-29 -17.5t-25.5 -5h-6l-117 -375l264 -854h-333l-99 342l-98 -342h-334l264 854l-159 514 q-6 -2 -17 -2q-41 0 -61 37q-4 37 -15.5 72.5t-25.5 71.5t-24.5 72t-10.5 73zM94 1679q0 -6 2 -8q12 -53 29.5 -106.5t17.5 -108.5q0 -18 14.5 -32.5t32.5 -14.5q8 -4 16.5 -5t18.5 -5q6 -20 22.5 -38t33.5 -28v-12q0 -2 6 -16.5t16 -32t25.5 -30.5t33.5 -13q10 0 18.5 7 t14.5 15.5t13.5 15.5t15.5 7q12 0 27.5 -26.5t15.5 -63.5q0 -20 -2 -29q0 -20 18 -39q0 -6 -1 -10t-1 -8v-4q-2 -4 -2 -13q0 -20 17 -20q18 0 34.5 10t28.5 23.5t18.5 28t6.5 24.5t-2 22.5t-2 24.5q14 12 30 12q12 0 25.5 -10t27 -23.5t29 -23.5t33.5 -10t28.5 16t18.5 40 t14.5 47.5t12.5 37.5q14 -14 32 -14q16 0 31 16t15 57q0 59 -17 99q2 20 11.5 41.5t19.5 45t18.5 46t8.5 45.5q0 29 -10.5 41t-29 18t-41 9.5t-46.5 11.5q-8 -4 -14.5 -5t-10.5 -1q-16 0 -29.5 7t-34.5 7q-41 0 -64.5 -16.5t-36.5 -40t-17 -50t-4 -47.5q0 -37 10 -75.5 t16 -67.5l-12 -12q-2 0 -6 -2t-6 -2l-15 -7q-4 0 -7 -1t-7 -1q-53 0 -70.5 15.5t-21.5 39t-8 53.5t-31 58q12 20 22.5 42t10.5 44q0 25 -26 44.5t-62.5 32.5t-77.5 19.5t-72 6.5q-18 0 -39.5 -2t-40 -8.5t-31 -17.5t-12.5 -30zM256 1356l2 -2q-2 0 -2 2z" />
<glyph unicode="Y" d="M8 1683q0 27 22.5 43.5t60.5 23.5t89 9t111 2q74 0 116 -41t42 -90q0 -59 -35 -100l63 -195l39 127q-14 27 -14 58q0 12 4 32q14 49 20 89t30 68t77 43t164 15q90 0 125.5 -27.5t35.5 -78.5q0 -41 -15 -97.5t-38.5 -107.5t-50.5 -87t-49 -36q-6 0 -8 2l-166 -536v-799 h-307v788l-158 523q-10 0 -28.5 23.5t-38 51t-33.5 50.5l-15 22q-4 59 -23.5 112.5t-19.5 112.5zM39 1642q0 -12 2 -16l20 -74q2 -6 3.5 -11t1.5 -11q0 -4 -1.5 -8t-1.5 -9q14 -14 23 -32q-2 -4 -2 -15q0 -41 43 -71q2 -4 16.5 -11.5t32 -17.5t31.5 -21.5t20 -21.5l9 -6 q-2 -6 -3 -19q0 -23 18.5 -44t43.5 -21q16 0 30.5 12t14.5 35q0 33 -9 62.5t-14 62.5q25 0 40.5 14.5t15.5 46.5q0 10 -1 22.5t-3 24.5q23 10 36 33t13 56q0 41 -16.5 65.5t-55.5 37.5t-102.5 17t-157.5 4q-23 0 -34 -15t-11 -32q0 -6 2 -10v-2q-4 -16 -4 -25zM539 1546 q0 -18 15 -44.5t43 -51.5t63.5 -43t78.5 -18q29 0 39 10l8 10q4 -2 15 -2q43 0 57 20.5t19.5 49t8.5 58.5t21 48q2 8 2 25q0 20 -4 38.5t-23.5 33t-60.5 22.5t-114 8q-68 0 -84 -16h-7q-22 -1 -34 -19q-23 -27 -33 -60.5t-10 -68.5z" />
<glyph unicode="Z" horiz-adv-x="976" d="M53 1688q0 29 21.5 59.5t48.5 30.5q10 0 27 -9h10q2 4 11 6.5t17 4.5q66 -18 135.5 -22t141.5 -3l211 8q174 -18 190 -30q12 -10 15.5 -28.5t3.5 -37.5q0 -16 -1 -31.5t-10 -29.5v-109l-372 -1155q68 0 137.5 8t138.5 8q154 0 154 -110q0 -37 -58 -248h-745v142.5 t-2 64.5l373 1153q-4 31 -19 31q-10 0 -28 -13q-12 -8 -37 -12t-49.5 -6t-45 -4t-26.5 -4q-6 0 -11 1t-12 1l-32 -47q-23 -31 -99 -33q-14 4 -24.5 15t-10.5 26q-20 129 -36.5 223t-16.5 150zM94 1708l49 -344q10 -53 33 -53q12 0 24.5 13t28.5 36l41 57h6q14 0 23.5 -13 t28.5 -13q27 0 54.5 9t52 20.5t41 21.5t20.5 10q29 -6 39 -24.5t10 -49.5q-23 -74 -47.5 -144.5t-48.5 -141.5q-2 -6 -3 -15q0 -16 7.5 -27.5t35.5 -11.5q31 0 48.5 12.5t27.5 26t17.5 25.5t19.5 12q4 0 7 -8t8.5 -18.5t13.5 -18.5t22 -8t26.5 9t25 36t28 76t35.5 129 q29 113 43 178t14 84q0 14 -2 35.5t-15 44t-40 40t-76 23.5q-33 -6 -65.5 -8t-65.5 -2q-39 0 -77 2t-76 2q-53 0 -103 -6q-25 6 -56.5 21.5t-53.5 15.5q-4 0 -8.5 -1t-8.5 -1q-16 18 -41 18q-16 0 -29.5 -10t-13.5 -33v-6zM477 262q29 -74 71 -108.5t73 -34.5q16 0 24 8 q27 -10 58.5 -27.5t60.5 -17.5q12 0 33.5 16.5t41 39t34 48t14.5 41.5q0 25 -12.5 49.5t-32.5 38.5q-102 -6 -175 -10t-114 -4h-23q-28 0 -53 -39z" />
<glyph unicode="^" horiz-adv-x="847" d="M72 1108v252l342 346l346 -346v-252l-346 346z" />
<glyph unicode="_" horiz-adv-x="1046" d="M68 -162h954v-211h-954v211z" />
<glyph unicode="`" horiz-adv-x="706" d="M303 1927q0 31 39 31q78 0 123 -23.5t45 -40.5q0 -12 -14 -12l-2 -16q0 -4 -2 -4l14 -52h-78q-18 8 -39.5 16.5t-41 20t-32 30.5t-12.5 50zM322 1905q0 -14 16 -24.5t29 -10.5l63 -10q8 -2 15.5 -2h13.5q33 0 33 16q0 20 -13.5 30.5t-33 14.5t-41 7t-37.5 11 q-8 0 -19 -10h-6q-10 0 -15 -7t-5 -15z" />
<glyph unicode="a" horiz-adv-x="802" d="M23 -2l172 1202q-23 0 -36.5 14.5t-19.5 35t-8 45t-2 46.5q0 47 15.5 129t39 161t51 136.5t52.5 57.5q23 0 37 -15q55 43 129 43q53 0 101 -22.5t81 -67.5q10 -63 14 -124.5t4 -122.5q0 -37 -1 -88.5t-4 -98.5t-10 -82t-20 -43l170 -1206h-303l-12 195h-129l-16 -195 h-305zM172 1372q0 -25 5.5 -50t17.5 -52q6 -16 17 -23.5t21 -7.5q2 0 3.5 1t3.5 1q10 0 16 -94t6 -242q0 -29 -1 -56.5t-1 -55.5q0 -10 3 -16.5t8 -14.5t12.5 -23.5t15.5 -44.5q29 80 43 133.5t16 81.5l4 117q12 -6 19 -6q2 0 3 1t3 1q4 -125 16 -125q8 0 25 104q31 0 41 29 q8 -162 20 -162q2 0 5.5 29t8.5 72t9 93t8 92t6 69.5t2 25.5q25 -59 45 -59q14 0 21.5 25.5t11.5 64.5t5 83t1 81q0 84 -1 149.5t-12 109.5t-39 67.5t-81 23.5q-74 0 -112.5 -4t-63.5 -21q-20 0 -37.5 -29.5t-32 -73.5t-25.5 -95t-18.5 -95t-12.5 -74zM283 293q0 -23 18 -37 l6 -6q23 -31 55 -31q10 0 33 5t45.5 14.5t40 20.5t17.5 24q0 14 -9.5 31.5t-23.5 31.5t-28.5 23.5t-26.5 9.5h-13q-8 4 -14 4q-10 0 -27.5 -9t-34 -22.5t-27.5 -30t-11 -28.5zM367 420l32 6q10 0 20.5 -5t18.5 -11h11l-19 286h-45z" />
<glyph unicode="b" horiz-adv-x="1056" d="M74 1425q0 33 4 93.5t13 119t26.5 101.5t44.5 43q10 0 20.5 -1t16.5 -1q12 0 16 2l14 4q20 10 37 10q20 0 43 -12q49 14 107 14q82 0 170 -33q23 8 34 13.5t29 5.5q39 0 73 -19.5t63.5 -47t58 -56.5t61.5 -47q25 -66 42.5 -134.5t17.5 -140.5q0 -23 -2 -43t-7 -43 q2 -8 2 -20q0 -8 -5 -23.5t-12 -31t-15 -27.5t-15 -14v-29q0 -178 -174 -258l27 -14l14 6q8 4 17 4q29 0 52 -24.5t40.5 -59.5t27 -72t9.5 -63q0 -39 -13 -76v-174q0 -78 -27.5 -145.5t-73.5 -120t-107.5 -82t-131.5 -29.5h-407v1051q-12 -4 -17 -4q-18 0 -31.5 11t-15.5 32 q-10 86 -18 167.5t-8 167.5zM117 1339q0 -59 7 -119.5t23 -119.5q4 -20 21.5 -40t40.5 -20q18 0 24 39q0 -14 6.5 -41.5t12.5 -56.5q8 -35 16 -72q8 0 17 54q8 63 15 90.5t11 37t6 11.5t2 18l-6 97q20 0 35 10q2 -27 2 -52.5v-52.5v-73q0 -18 2 -63.5t5 -90.5t8.5 -80 t9.5 -35q2 0 5 25.5t8 57.5t10 57.5t14 25.5q4 0 15 -13t15 -13q6 0 9.5 21.5t4.5 49l2 55t1 39.5q0 41 -1 81t-1 81q0 57 4 112.5t20 110.5q12 -10 25 -10q12 0 19 6.5t10 6.5l6 4q12 -20 34.5 -33.5t32.5 -32.5q0 -12 10 -22q2 -23 2.5 -43.5t0.5 -40.5v-115 q0 -39 6 -57.5t35 -18.5q10 0 16 2v-50t-2 -30q12 -123 24 -123q8 0 19 76q16 -59 29 -59q6 0 10 22.5t6 49t3 48.5l1 21q0 43 -1 86t-1 88v40t2 42q0 -4 8 -29.5t19.5 -56.5t23.5 -55.5t23 -24.5q23 0 39 25.5t25 56.5t13.5 56.5t4.5 27.5q0 121 -40 220.5t-149 160.5 q-12 6 -26 6v2q-16 10 -35 10q-20 0 -40 -11t-42 -13q-77 65 -171 65h-3q-70 0 -133 -41q-2 2 -4 3l-7 4q-4 0 -10 1t-10 1q-41 0 -76 -24.5t-41 -65.5q-6 -76 -13 -152t-7 -154zM231 1087h2v-6q0 2 -1 3t-1 3zM444 311q0 -35 16.5 -57.5t51.5 -26.5l6 -53q4 -41 7 -62.5 t10 -21.5q4 0 11 13.5t13 13.5t15.5 -8.5t15.5 -8.5q10 0 16 27t6 43q0 35 -4 69.5t-4 69.5v4q0 4 1 8.5t1 8.5q0 29 -19.5 44t-54.5 25q-88 -12 -88 -88zM473 420q20 14 43 14t46.5 -12t39.5 -33q2 6 2 21v180q0 37 -26.5 71.5t-63.5 34.5h-41v-276zM473 1085q14 6 35 7 q23 0 45 -7.5t39 -21.5q12 25 12 51v180q0 104 -90 105h-41v-314zM694 752q12 -109 17.5 -177.5t11.5 -107.5t18.5 -52.5t40.5 -13.5q39 0 39 39q0 10 -1 17.5t-1 15.5v27q14 -10 29 -11q29 0 40 29t11 72v22q0 14 -6 45t-19.5 62t-36 53.5t-55.5 22.5q-20 0 -46 -5t-42 -38 z" />
<glyph unicode="c" horiz-adv-x="1044" d="M88 1343q0 88 39 165t105.5 135.5t153.5 92t183 33.5q86 0 165 -33.5t138 -105.5q41 -76 57.5 -157.5t16.5 -167.5t-8 -171t-14 -167q-10 -23 -31 -34t-45 -11q-25 0 -44.5 11t-23.5 36v6h-192v358q0 66 -66 66q-63 0 -63 -66v-938q31 31 73 31q27 0 56 -14v98 q-16 2 -25.5 18.5t-14.5 39t-6 49t-1 47.5q0 43 20.5 72.5t54 48t74.5 27.5t82 9q27 0 57.5 -7t57 -25.5t43 -51t16.5 -84.5q0 -43 -12 -86t-39 -80v-116q0 -78 -29.5 -145.5t-80 -118t-119 -79t-144.5 -28.5t-143.5 28.5t-118.5 78t-80.5 117t-32.5 147.5v798l-41 66 q-18 51 -18 108zM115 1346q0 -18 1 -39t7 -39.5t21 -30.5t44 -14q8 -4 13 -4q2 0 14 4q8 -43 20.5 -75t53.5 -32q8 0 20 6q-2 -23 -2 -42v-38q0 -16 1 -38.5t6 -43t15.5 -35t28.5 -14.5q37 0 46.5 27t9.5 59q0 68 -2 134.5t-2 134.5q0 35 4 66.5t19.5 58t44 46t77.5 27.5 q12 -12 30.5 -24.5t39.5 -12.5q16 0 32 15q14 -27 16.5 -80t5.5 -108.5t13 -99.5t41 -50q-2 -4 -2 -14q0 -16 7 -31t16.5 -24t17.5 -14t10 -5h4q0 -8 12.5 -25.5t30.5 -17.5q23 0 50.5 23.5t27.5 45.5q0 25 -3 49.5t-3 49.5q0 63 6 126.5t6 125.5q0 63 -17 125.5t-57 112.5 t-103.5 82t-153.5 32q-86 0 -169 -32t-149.5 -85t-107.5 -127t-41 -155zM424 303q0 -20 23.5 -49t64.5 -29q0 -8 -1 -14t-1 -14q0 -59 45 -60q35 0 43 30t8 66v70q0 14 -2 16v5q0 29 -26.5 48t-53.5 19q-35 0 -64.5 -20.5t-33.5 -55.5q0 -4 -1 -6t-1 -6zM567 643 q0 -39 18.5 -69.5t61.5 -34.5q4 -29 4 -66t3 -71.5t13.5 -58.5t37.5 -24q16 0 30 15q0 -18 -1 -35.5t-1 -36.5q0 -27 14.5 -38t30.5 -11q18 0 32.5 11.5t14.5 37.5q4 61 11.5 125t19.5 127l6 6q27 23 38 48.5t11 54.5q0 31 -12 60.5t-32.5 52t-48 36.5t-60.5 14 q-25 0 -64 -11t-63 -40q-6 2 -15 2q-33 0 -41 -39q-8 -25 -8 -55z" />
<glyph unicode="d" horiz-adv-x="1001" d="M76 1495q0 104 3 164.5t17.5 90.5t44 38t84.5 8h13q18 0 52 -6t46 -6q55 0 96 -4t69.5 -8.5t50 -7.5t40.5 -3q16 0 24 2l170 -39q70 -61 97.5 -150t28.5 -181v-46.5t-3.5 -45t-10.5 -37t-19 -21.5v-872q0 -78 -26 -145.5t-72 -118t-110.5 -79t-140.5 -28.5h-395v1266 q-18 0 -28.5 6t-15.5 29.5t-8 69.5t-7 124zM104 1341q0 -20 12.5 -32.5t30.5 -12.5q14 0 17 2q0 -18 26.5 -34.5t42.5 -16.5l19 -172q2 -18 15.5 -25.5t29.5 -7.5h8q-2 -10 -3 -17t-1 -13v-8q27 -43 47 -43q12 0 27.5 9t19.5 31q18 123 25.5 242t11.5 242q10 14 18 31 q0 -4 -2 -7.5t-2 -9.5v-6q0 -20 14.5 -33.5t33.5 -13.5q23 0 32 12t23 43l57 -43v-100q-12 -59 -12 -119q29 -78 47 -78q10 0 31 10q0 -76 8 -121.5t18.5 -70.5t20.5 -32t16 -7q18 0 39 11.5t21 29.5q2 61 3 118.5t5 114.5h12q23 0 35 18.5t18 46.5t7.5 60.5t1.5 59.5 q0 94 -26 159.5t-66 106.5t-86 59.5t-85 18.5l-67 -6l-121 18q-41 0 -80 1t-74 1q-43 0 -69.5 -5t-39.5 -12t-18.5 -15.5t-7.5 -14.5q-12 -92 -20 -181t-13 -181v-7zM420 338q0 -6 3 -19.5t9 -29t17.5 -29.5t29.5 -22v-93q0 -25 13.5 -37t33.5 -12q29 0 37 25.5t8 56.5 q0 76 -3 119t-11 64.5t-19.5 25.5t-25.5 4q-29 0 -47.5 -6.5t-34.5 -24.5q-10 -6 -10 -22zM442 406l9 6q29 23 55 22q41 0 65 -31v930q0 66 -65 66h-64v-993z" />
<glyph unicode="e" d="M74 1333q0 29 2 83t6 140l-4 74q0 53 16.5 95t79.5 49q68 -12 145 -13l193 2q45 -2 70.5 -4t41 -4t27 -4t25.5 -2l112 12q25 0 41.5 -10t24.5 -24.5t11 -32t3 -31.5q0 -233 -10 -250q-6 -16 -23.5 -30.5t-37.5 -14.5l-39 10l-8 21h-312v-324q45 18 97 19l92 16 q45 0 65.5 -28.5t20.5 -80.5v-38q0 -31 -7.5 -82.5t-18.5 -100.5t-26.5 -85t-29.5 -36t-28.5 10.5t-16.5 28.5h-148v-336q61 10 126 20.5t130 10.5q33 0 67 -3t61.5 -16.5t45 -41t17.5 -76.5q0 -14 -4 -57t-13.5 -89.5t-24 -83t-32.5 -36.5q-20 0 -31 10h-651v1085 q-31 2 -39 58.5t-16 189.5zM111 1329q0 -59 6 -80v-88q0 -25 13 -36t32 -11q16 0 47 41q63 -74 86 -74q14 0 27.5 9.5t17.5 31.5q10 100 12 198.5t10 197.5l35 12q14 -25 39 -40t51 -15q18 0 28.5 6t21 14t23.5 14.5t38 6.5q29 0 41 32l2 -10q12 -25 39 -25q20 0 35 15 q10 -16 14 -35.5t10 -37t15.5 -30t27.5 -12.5q25 0 34 11.5t11 39t2 70.5t9 108v7q0 31 -23.5 44t-56.5 17t-64.5 4t-50.5 6q-63 -14 -129 -14q-80 0 -156.5 11.5t-156.5 15.5q-23 -4 -52.5 -19.5t-29.5 -44.5l-6 -260q0 -23 -1 -43t-1 -37zM397 1032q0 -23 45 -106 q94 -70 121 -70q10 0 23 6q0 -18 2 -41.5t7 -44t16.5 -34t33.5 -13.5q25 78 36 128t11 73q0 59 -6 86.5t-17.5 38t-27.5 11.5t-39 9q-19 -12 -164 -22q-14 0 -27.5 -5.5t-13.5 -15.5zM438 272q0 -27 25 -39l20 -12q6 -12 11.5 -25.5t12.5 -25.5t18.5 -20.5t29.5 -8.5 q29 0 45 10.5t27 22.5q8 14 12 35l4 2q16 -4 33 -14h33q23 -10 29.5 -33t12 -47.5t15.5 -43t37 -18.5q18 0 57 174q0 27 -5 49.5t-19.5 40t-41 26.5t-69.5 9q-96 0 -152.5 -4t-85 -11t-36 -14.5t-7.5 -13.5q0 -2 1 -4t1 -4q-8 -10 -8 -31zM451 926l10 -2q-2 -2 -4 -2z" />
<glyph unicode="f" horiz-adv-x="913" d="M53 1511q0 59 13.5 118t44.5 112q16 23 63 28t96 5q143 0 282.5 -7.5t283.5 -17.5q16 0 26 -10t16.5 -24.5t9.5 -31t3 -28.5q0 -45 -15.5 -92t-19.5 -93q2 -8 3 -14t1 -14q0 -18 -8 -37t-22.5 -35t-31 -26.5t-30.5 -10.5q-16 0 -31.5 11.5t-15.5 29.5q0 4 1 5t1 5v15 h-295v-301q14 2 27.5 2h29.5q31 0 68 -1t68.5 -14.5t53 -46t21.5 -94.5q0 -45 -16 -85t-53 -58v-103h-199v-698h-307v1292q-23 2 -35 26.5t-20.5 59.5t-10.5 72t-2 61zM80 1464q0 -20 1 -45.5t6 -47t15.5 -36t30.5 -14.5q18 0 33.5 12.5t15.5 34.5v6l-6 39q14 -12 33 -12 q6 0 11 1t11 3l-8 -113q0 -16 4 -35.5t12.5 -37t21.5 -29.5t30 -12q12 0 18 4q4 -20 17.5 -29.5t29.5 -9.5q18 0 32.5 12t14.5 37q0 20 -1 39.5t-1 42.5q0 55 2.5 111.5t2.5 111.5q16 0 32 12l8 9q8 8 13 10q23 -23 49.5 -38t54.5 -15q33 0 72 22.5t72 46.5q6 -18 8 -44.5 t8 -52.5t18.5 -44.5t40.5 -18.5q20 0 32.5 20.5t20 50.5t9.5 62.5t2 57.5q0 23 -1 44t-3 44q-2 25 -32 38t-72 20.5t-87 8.5t-78 1q-86 0 -171 -4.5t-171 -4.5h-47q-27 0 -46 -29.5t-32.5 -70.5t-19.5 -85t-6 -73zM360 950q0 -10 5.5 -19.5t9.5 -15.5q24 -26 57 -26h2l8 -29 q0 -25 14.5 -37t30.5 -12q6 0 19 4q4 -20 20.5 -37.5t36.5 -17.5q25 0 42.5 30.5t17.5 53.5q0 10 -2 14q23 23 42 47.5t19 67.5q0 27 -16.5 44t-41 26.5t-56 13.5t-62.5 4q-20 0 -45 -6t-47.5 -18.5t-38 -34t-15.5 -52.5z" />
<glyph unicode="g" horiz-adv-x="1042" d="M57 1278q0 86 28 171t79 153.5t121.5 110.5t156.5 42q35 0 80 -10q8 2 21 2q37 0 65.5 -17.5t67.5 -21.5h2q2 2 12 2q16 0 49 -13.5t58 -23.5q4 -33 25.5 -54.5t45.5 -41.5q59 -102 60 -227q0 -23 -3 -53.5t-10.5 -58.5t-19.5 -47.5t-31 -19.5q-23 0 -44 11.5t-36 34.5 h-221v116q0 66 -65 66q-66 0 -66 -66v-911q8 0 15.5 2t17.5 2q45 0 98 -27v285q-12 31 -15 62.5t-11 64.5q-16 31 -25.5 65.5t-9.5 71.5q0 39 22.5 63.5t54 39t66.5 19.5t60 5q59 0 121.5 -11t117.5 -11q18 0 31.5 -12.5t21 -31t10.5 -39t3 -36.5q0 -35 -6.5 -61.5 t-6.5 -55.5q0 -20 3.5 -39.5t3.5 -40.5q0 -31 -14.5 -58.5t-43.5 -27.5q-12 0 -18 4t-10.5 10.5t-8.5 14.5t-12 18h-27v-555q0 -72 33 -143h-194q-33 14 -45 96l-7 -4q0 -18 -18 -34.5t-48 -29t-67 -20.5t-71 -8q-74 0 -134.5 28.5t-103.5 78t-66.5 117t-23.5 147.5v598 q-20 12 -25 41l-12 106q-31 76 -31 162zM92 1333q0 -18 2 -50t8.5 -63.5t15.5 -58t23 -33.5v-41q-2 -6 -2 -16t2 -14v-4q0 -18 19 -27l2 -4h2q12 -18 39 -18h6q0 -37 -2 -74t-2 -82q0 -41 8 -74t39 -33q18 0 33.5 11.5t15.5 35.5q0 33 -1 66t-1 66q0 16 1 31.5t1 31.5 q37 0 51.5 28.5t20.5 67.5t10 79t16 65q2 16 3 33.5t1 33.5v43q0 37 4.5 73t22.5 71q23 -27 53 -27q23 0 39.5 19.5t26.5 41.5q10 -12 23.5 -20t31.5 -8q8 0 14 2l3 -2q8 -20 9 -51t6 -61t21.5 -51.5t55.5 -21.5q35 0 41 31q10 -33 34.5 -68.5t59.5 -35.5q33 0 43 25.5 t10 60.5q0 66 -23.5 129t-39.5 123q-10 8 -23.5 17t-28 18.5t-23.5 15.5t-9 8l-23 8l-6 8q-33 8 -59.5 22.5t-53 28t-56.5 22.5t-71 9q-76 0 -146.5 -31.5t-125.5 -85t-88 -124t-33 -146.5zM426 297v-2q-2 -6 -2 -16q0 -20 9 -37t24 -31q0 -10 -1 -21.5t-1 -21.5 q0 -66 45 -66q18 0 33.5 11.5t15.5 36.5q0 8 -1 15t-1 15q0 16 1 32.5t1 33.5q10 4 30.5 18.5t20.5 34.5q0 16 -12.5 31.5t-31.5 27t-40.5 18.5t-40.5 7q-67 0 -67 -46q0 -28 18 -40zM543 932q0 -23 9 -52.5t30 -35.5q-2 -20 -3 -40t-1 -40q0 -16 2 -35.5t8 -36t16 -27 t27 -10.5q23 0 39 21q6 -96 6 -187v-61q0 -25 14.5 -38t28.5 -13q23 0 34 14.5t14 37t2 49t-1 52.5v58.5t-4 62.5q8 -23 35 -22q18 0 34.5 13t16.5 36v18q0 29 2 59.5t4 61.5h10q10 -41 16.5 -64.5t41.5 -23.5q16 0 27.5 11.5t18.5 27.5t10 36.5t3 37.5q0 37 -12.5 72.5 t-36 63.5t-56 45t-71.5 17q-10 0 -18.5 -1t-18.5 -3q-10 2 -19.5 2h-19.5q-29 0 -55.5 -7t-48.5 -23q-12 16 -35 16q-16 0 -30.5 -13t-14.5 -36q-2 -10 -3 -21.5t-1 -21.5zM629 1485h10l2 -8z" />
<glyph unicode="h" horiz-adv-x="1019" d="M82 1532q0 41 12 87t38 86t66 65.5t93 25.5q27 0 51.5 -8t50.5 -8q8 0 15.5 2t15.5 2q20 0 34.5 -13.5t22.5 -33t12.5 -41t4.5 -37.5q0 -29 -4.5 -56.5t-8.5 -56.5q-18 -47 -18 -99t-25 -93v-260q23 8 52 8q43 0 77 -21v193q-20 4 -32.5 28.5t-18.5 58.5t-7 69.5t-1 62.5 q0 162 56.5 223.5t172.5 61.5q57 0 95 -14.5t58.5 -38t29 -54.5t8.5 -63q0 -59 -14.5 -124t-14.5 -120v-12q0 -31 -24 -45v-1307h-308v698h-129v-698h-307v1348q-12 8 -22.5 30.5t-16.5 49t-10 55t-4 49.5zM121 1453q0 -18 4 -34q4 -23 15.5 -33t27.5 -10q8 0 12 2 q0 -57 1 -112.5t1 -112.5q0 -41 -2 -84t-2 -84q0 -25 14.5 -37t28.5 -12q12 0 22.5 23.5t17.5 62.5t10 87t3 95q0 41 -1 82t-1 82h19q8 -29 26.5 -51.5t44.5 -22.5q37 0 51.5 30t14.5 58q2 68 7 103t10.5 56.5t9.5 36.5t4 44q0 31 -16.5 53.5t-42 38t-58.5 23.5t-66 8 q-45 0 -74.5 -28.5t-48 -68.5t-25.5 -85t-7 -76v-34zM391 969q0 -39 21.5 -71t66.5 -36q12 6 21.5 6t19.5 4q4 -4 10.5 -8t16.5 -8q-2 -16 -6 -30.5t-4 -30.5q0 -20 12 -33.5t33 -13.5q25 0 35 32.5t14 71.5t4 71.5t4 32.5l2 -2q0 2 -7 16.5t-34 76.5q-51 16 -69.5 26 t-41.5 10q-47 0 -72.5 -36.5t-25.5 -77.5zM561 1475q0 -33 5 -62t16 -57l12 -6q12 -7 28.5 -13t35 -12t32.5 -6q16 0 29 12v-6l9 -38t21.5 -83t25.5 -83t24 -38q8 0 13 10.5t5 20.5v23q0 74 12 147q27 12 27 37v12q4 61 22.5 126t18.5 126q0 37 -13.5 72t-47.5 65h-11 q-29 0 -54.5 4.5t-53.5 4.5q-23 0 -53 -11q-12 -4 -30 -31.5t-34 -65.5t-27.5 -78t-11.5 -70z" />
<glyph unicode="i" horiz-adv-x="610" d="M76 1448q0 37 2 91t9 104.5t22.5 87t40.5 36.5q4 0 7 -1t7 -1q6 6 98 17q4 -2 14 -2q35 0 70 15t64 15q53 -18 75.5 -37.5t29.5 -41t6 -45t5 -50.5q-4 -35 -5 -70.5t-1 -72.5v-125q0 -86 -9 -170t-50 -160v-1038h-307v1122l-23 6q-10 8 -32.5 93.5t-22.5 226.5zM106 1317 q74 -156 101 -156q4 0 15 -14t26 -14q-20 -43 -21 -89q0 -47 19.5 -78.5t42.5 -31.5q18 0 32.5 27.5t14.5 95.5h2q10 0 30.5 8t41 21.5t38 30t21.5 30.5q12 55 16 109.5t5.5 108.5t2.5 108.5t7 109.5q-4 27 -4 57.5t-5.5 57t-20.5 45t-52 18.5q-16 0 -30.5 -4t-31 -10 t-37 -10t-51.5 -4q-16 0 -31.5 2t-29.5 2q-35 0 -52.5 -28t-25.5 -82t-11.5 -132t-11.5 -178z" />
<glyph unicode="j" horiz-adv-x="1052" d="M80 449q0 35 15.5 68.5t41 60t59 43t70.5 16.5q10 0 21.5 -2t21.5 -2q31 0 62.5 6t60.5 6q41 0 68.5 -27.5t27.5 -60.5q0 -41 -6 -84q4 -16 7 -30.5t3 -30.5q0 -27 -13 -43.5t-38 -16.5q-8 0 -16 4q8 -51 65 -51q63 0 64 66v915q-6 -2 -16 -2q-18 0 -33 14l-25 23 q0 66 -6 130.5t-6 129.5q0 47 5.5 92t21.5 90q8 33 36 33q29 0 45 -18q16 4 27 4q23 0 47 -8q47 10 90 10q20 0 47 -4t50.5 -15.5t41 -30t19.5 -46.5q0 -18 -2 -25q6 -104 9 -195.5t3 -212.5q0 -35 -2 -68.5t-6 -62t-13 -48t-24 -23.5v-682q0 -78 -29.5 -145.5t-81 -118 t-119 -79t-143.5 -28.5q-72 0 -135 24.5t-112.5 68.5t-82 103.5t-40.5 129.5q-20 4 -34.5 19t-25 33.5t-15.5 38t-5 32.5zM119 473q0 -41 21.5 -73.5t58.5 -32.5q6 0 12 2t14 6l2 -2q2 0 4 -2q-2 0 -2 -2q0 -18 17.5 -34t32.5 -20q0 -14 3 -32.5t11 -36t20.5 -29.5t32.5 -12 q27 0 42 27.5t15 56.5q0 16 -2 31.5t-2 31.5q0 18 13 35h18v2q41 0 57.5 32t16.5 56q0 49 -40 87t-93 38q-27 0 -45 -8q-25 -18 -50.5 -15t-50.5 -10q-16 12 -28 13q-17 -1 -31 -13q-23 -16 -35 -41.5t-12 -54.5zM524 1499q0 -25 3 -58.5t12.5 -64t24 -52t36.5 -21.5 q10 0 16 2l21 8q8 -29 29 -45q4 -63 7 -127t3 -127q0 -27 -1 -51.5t-1 -49.5q0 -20 14 -30.5t33 -10.5q25 0 37 28t16 67t4 79.5t2 69.5q8 -16 33 -26h27q25 0 39 10t20 25.5t8 34t2 36.5q0 61 -2 121.5t-2 122.5q0 35 4 64.5t4 66.5q0 12 -10 26l6 58q-8 23 -22.5 47 t-42.5 24h-8q-27 10 -64 11q-33 0 -65.5 -5.5t-65.5 -7.5l-6 -10q-14 20 -41 21q-16 0 -28.5 -9.5t-16.5 -29.5q-10 -47 -17.5 -97.5t-7.5 -99.5z" />
<glyph unicode="k" horiz-adv-x="1032" d="M55 1481q0 119 39 223q10 47 48 61.5t81 14.5q23 0 41.5 -3t34.5 -3q31 0 58.5 13t56.5 13q25 0 42 -12t27.5 -30.5t14.5 -39t4 -35.5q0 -51 -16.5 -106t-16.5 -104q6 -18 6 -35q0 -18 -6 -33l16 27q0 4 -1 9t-1 9q0 31 11.5 60.5t27 58t32.5 55.5t32 53q25 47 63.5 66.5 t83.5 27t92 10.5t90 17q25 -10 47.5 -8t45.5 -16q28 -44 28 -94q0 -38 -11 -72.5t-28.5 -67.5t-38 -64.5t-36.5 -62.5q-4 -37 -32 -52t-61 -15q-25 0 -45 6l-227 -389l12 -27q33 0 61.5 -19.5t43.5 -50.5q10 -88 39.5 -169t68.5 -158l76 -156q39 -80 66 -162q27 -31 49 -73 t22 -82q0 -33 -18 -60l2 -6h-6l-23 -20h-49q-6 4 -10 10t-8 10h-244l-201 481v-481h-309v1249h-6q-23 0 -36 25.5t-20.5 62.5t-9.5 76t-2 68zM86 1425q0 -23 1 -46t9 -43.5t22.5 -34t43.5 -13.5q31 0 47 25l8 10l10 -6q10 -14 27 -14q2 0 14 4q-6 -47 -6 -86q0 -51 9.5 -79 t43.5 -28q16 0 29.5 11.5t13.5 33.5q0 14 -2 28.5t-2 29.5q0 39 6 75q18 0 34 19.5t16 56.5q16 4 25 24.5t14.5 49t7.5 61.5t2 62t1 59.5t-5 56t-22.5 42t-49.5 16.5q-31 0 -61.5 -18.5t-57.5 -34.5q-14 10 -28.5 25t-32.5 15q-43 0 -66.5 -38.5t-35 -89t-13.5 -100.5 t-2 -73zM252 1677q0 6 4 6zM489 815q0 -14 4.5 -34.5t10.5 -39t14 -33t17 -16.5q14 -35 36.5 -68.5t43 -68.5t36 -70.5t15.5 -76.5q6 -45 20 -87t57 -65q23 -18 41.5 -56t36 -75t35.5 -65.5t41 -28.5q18 0 32.5 13t14.5 34q0 4 -1 6t-1 6q-31 94 -75 189.5t-89 189.5 t-84 185t-59 180q0 23 -21.5 36t-42.5 13q-12 0 -24 -6q-4 2 -12 2q-16 0 -29.5 -12.5t-13.5 -35.5q-2 -6 -3 -16zM518 1477q0 -12 4 -27.5t15 -22.5v-26q0 -31 13 -52.5t36 -21.5q8 0 12 2q16 -51 51 -51q25 0 41.5 16.5t27.5 38t19 44t17 34.5l8 -6q8 -18 35 -19 q37 0 69.5 23t56 57.5t37 74.5t13.5 75q0 20 -4 42.5t-14.5 42t-28 33t-43.5 13.5q-29 0 -55.5 -6t-55.5 -6q-10 0 -18.5 1t-18.5 5q-16 -4 -28.5 -15.5t-26.5 -11.5q-4 0 -5 1t-3 1q-27 -25 -54.5 -55.5t-49 -64t-36 -64.5t-14.5 -55zM829 141h2q0 -2 1.5 -4t1.5 -6z" />
<glyph unicode="l" horiz-adv-x="800" d="M55 1423q0 35 6.5 73t6.5 75q0 12 -2.5 23.5t-2.5 21.5q0 39 16.5 70.5t44.5 55t61.5 37t70.5 13.5q18 0 38.5 -3t39.5 -13q14 -6 28.5 -8.5t30 -4.5t28.5 -8t23 -22q23 -8 35.5 -35t18.5 -59.5t8 -67.5t2 -62q0 -59 -7 -117.5t-14 -121.5l-6 -56q-4 -27 -11 -50t-32 -40 v-751h23q45 0 71 -21q27 4 52.5 14.5t48.5 10.5q55 0 91 -46t36 -104q0 -35 -17 -67v-10q0 -23 -14 -39.5t-31 -26.5v-84h-569v1276l-6 4q-41 27 -54.5 64.5t-13.5 78.5zM96 1458q0 -25 3 -51.5t10.5 -49t18.5 -37.5t30 -15q12 0 22 6q2 -2 10 -2t13 2q0 -29 -1 -55.5 t-1 -53.5q0 -53 8 -76.5t39 -23.5q18 0 33.5 11t15.5 38q-2 6 -2 18v21q12 8 16 22.5t8 49.5q8 -23 12.5 -39.5t12.5 -28.5t21.5 -20.5t37.5 -14.5q18 12 33 23.5t15 34.5q0 63 15 139t15 149q0 27 -6 65t-20.5 72.5t-41 59t-65.5 24.5q-12 0 -24.5 -1t-24.5 -1 q-29 29 -70 29q-49 0 -90 -40t-41 -91q1 -27 11 -45q-4 -29 -8.5 -59.5t-4.5 -59.5zM369 270q0 -21 16 -37q0 -4 -3 -11t-3 -13q0 -33 35 -41l32 -6l15 12q10 -23 28.5 -36t40.5 -13q12 0 19 2q8 -10 12 -22.5t9 -24.5t13.5 -20.5t24.5 -8.5q6 0 27.5 11.5t44 32t41 49 t18.5 61.5q0 43 -27.5 82t-72.5 39q-23 0 -44.5 -12.5t-45.5 -12.5q-29 0 -53.5 14.5t-53.5 14.5q-23 0 -48 -18.5t-25 -41.5z" />
<glyph unicode="m" horiz-adv-x="1333" d="M80 1384q0 88 5 169t34 163q6 16 27.5 26.5t52 15.5t65.5 7t64 2q68 0 109.5 -18t64 -49t31 -71t8.5 -85q0 -53 -6.5 -108.5t-6.5 -104.5l62 -334q61 0 100 -65l86 409q-18 10 -24.5 43t-6.5 56q0 61 18.5 121.5t22.5 115.5q2 37 22.5 59.5t50.5 33t67 13.5t71 3 q141 0 194.5 -58.5t53.5 -154.5q0 -68 -23.5 -137.5t-54.5 -128.5v-1307h-309v594l-166 -594h-76l-167 594v-594h-308v1122q-23 8 -35 36t-18 66t-7 81t-1 79zM115 1366q0 -31 3 -74t11 -84t24.5 -69.5t41.5 -28.5q18 0 31.5 11.5t13.5 31.5q0 12 -2 18q-4 2 -7 19 q10 10 13.5 27.5t5.5 29.5l6 -2v-37q0 -27 14.5 -38t30.5 -11q18 0 33.5 11.5t15.5 37.5v76q8 10 16.5 18.5t14.5 18.5q0 -23 1 -50.5t7 -50t17.5 -38t31.5 -15.5q31 0 48.5 47.5t24.5 105.5t9 109.5t2 59.5q0 41 -7 82t-25.5 72.5t-47 51t-71.5 19.5h-15.5t-17.5 -2 q-16 4 -33.5 6t-36.5 2q-39 0 -72.5 -13t-50.5 -50q-10 -72 -20 -145.5t-10 -145.5zM532 883q0 -31 21 -43l-2 -6q-6 -10 -6 -23q0 -25 8 -37t19.5 -22.5t19.5 -19.5t8 -27v-33q0 -20 2 -31v-74q0 -25 14.5 -37t30.5 -12q20 0 31.5 9.5t16.5 24.5t8.5 34.5t9.5 40.5l2 4 q10 8 20 33.5t17.5 57.5t12.5 64.5t5 55.5q0 76 -47 76q-27 0 -43 -23q-4 4 -7 3t-9 3q-6 27 -16.5 39t-23 16.5t-23.5 4.5t-15 2q-23 -12 -38.5 -34t-15.5 -46zM782 1466q0 -25 4.5 -49t16.5 -47l16 -6q4 -10 17 -14q4 -31 25.5 -68t60.5 -37q16 0 32.5 6t30.5 17 q6 -23 7 -60t7.5 -71.5t20.5 -60t43 -25.5t51.5 15t22.5 46v8q10 29 13 56.5t3 56.5q0 47 9 88t21.5 81t21.5 82t9 91q0 29 -7 58.5t-22.5 53t-41 39t-62.5 15.5q-29 0 -56.5 -6t-55.5 -6q-14 0 -25.5 4t-25.5 4q-23 0 -60 -11q-14 -4 -27.5 -32.5t-24.5 -69.5t-17.5 -84 t-6.5 -74zM915 1616l5 4q-4 -4 -5 -4z" />
<glyph unicode="n" horiz-adv-x="1075" d="M82 1622q0 45 20.5 78t52 54.5t72.5 32.5t84 11q63 0 102.5 -19.5t60 -50t26.5 -70.5t6 -79q0 -23 -1 -45.5t-3 -44.5l53 -186q29 0 45 -25l6 -10v188q-12 4 -19 21.5t-10.5 40t-4.5 46t-1 42.5q0 25 3.5 58.5t13.5 63t30.5 51t55.5 21.5q41 0 83 -10t83 -10q14 0 27.5 3 t27.5 3q27 0 45 -14.5t29.5 -34t15.5 -42t4 -38.5q0 -41 -10 -84t-12 -82q-10 -37 -18.5 -86t-35.5 -80v-1325h-270l-166 532v-532h-309v1274q-53 25 -65.5 74t-12.5 108v64q0 29 -4 54t-4 48zM117 1450q0 -16 1 -42t8 -49.5t21.5 -39.5t42.5 -16q25 0 47.5 20t24.5 31 l2 -35q0 -18 15.5 -28.5t33.5 -10.5q20 0 32.5 15.5t18 37t6.5 46t1 44.5q2 -12 14 -28q6 -9 10 -17q2 -4 11.5 -34.5t26 -75.5t35.5 -96.5t41.5 -94.5t44 -71.5t42.5 -28.5q16 0 28.5 11t19.5 28.5t11 36t4 32.5q0 66 -38.5 120.5t-92.5 78.5q-12 12 -18 45t-14 55 q6 12 6 31q0 27 -7.5 55.5t-9.5 53.5q-8 39 -10 81t-15.5 76.5t-45 58t-99.5 23.5q-35 0 -69.5 -10t-63 -28.5t-46 -45t-17.5 -61.5q0 -14 2 -23q0 -39 -2 -74.5t-2 -70.5zM594 1128l4 5l10 -31zM596 1593q0 -47 19.5 -85t76.5 -38q4 -4 8 -4v-159q0 -41 7.5 -77t40.5 -36 q18 0 33.5 11.5t15.5 37.5q0 39 -1 75t-1 75q10 -16 24.5 -34t36.5 -18q18 0 30.5 11.5t33.5 21.5q4 66 19 128.5t15 125.5q0 51 -16 71.5t-40 27t-51.5 4.5t-49.5 8h2q-10 4 -17.5 9t-15.5 5q-10 0 -14 -4q-25 18 -54 18q-35 0 -63.5 -23.5t-28.5 -62.5v-6q-10 -41 -10 -82 zM698 1667v2h2z" />
<glyph unicode="o" horiz-adv-x="1034" d="M76 1307q0 45 28 86v20q0 45 16.5 82t63.5 51q0 12 12.5 45t34 67t51 60.5t62.5 26.5q8 0 13 -1t14 -3q25 33 63.5 47t77.5 14q35 0 74 -10t73.5 -25.5t60 -36t34.5 -38.5v-2q4 0 4 -2l4 -5l16 3q23 0 41 -19l6 -12h6q16 0 25.5 -15.5t17.5 -25.5l3 -8q25 -4 39 -24.5 t14 -49.5v-16q10 -6 12 -20.5t2 -31.5v-16q12 -10 12 -39v-25q-10 -25 -10 -47l10 -94q0 -23 -6 -35q6 -10 6 -22q0 -25 -18 -38t-45 -20v-757q0 -78 -29.5 -145.5t-80 -118t-119 -79t-144.5 -28.5t-143.5 28.5t-118.5 78t-81 117t-30 147.5v704q-18 12 -24 44t-12 57 q0 4 1 9t1 9l-2 18q-16 16 -25.5 46t-9.5 49zM156 1307q0 -27 9 -53.5t28 -45.5l28 -303q10 -43 47 -43q18 0 32.5 12.5t14.5 32.5v6q-6 41 -9 81t-7 79l2 -2q0 -20 12.5 -43.5t38.5 -28.5l23 -2q35 0 50 36t23.5 83t18.5 95.5t35 70.5q45 -2 70.5 -22.5t42 -49t28.5 -62.5 t31 -65l14 -2q6 -27 9 -68.5t11.5 -81.5t25 -68.5t48.5 -28.5q25 0 40.5 15t25.5 36.5t14 46t4 41.5l-10 121q20 33 21 77q0 35 -17 62q10 20 27.5 34.5t17.5 49.5q0 31 -13 57.5t-24 52.5q27 20 27 54q0 33 -19.5 56.5t-45 38.5t-54 23.5t-47.5 8.5q-8 0 -12 -2 q-8 14 -15.5 31.5t-15.5 33t-19.5 25.5t-25.5 10h-2q-41 41 -100 41q-37 0 -73 -16.5t-54 -47.5l-50 3q-37 0 -59 -21l-14 -14l-11 -13q-12 -14 -24 -34.5t-22.5 -44t-10.5 -43.5q-27 -10 -45 -34t-18 -50q0 -23 16 -43v-13q-18 -29 -18 -69zM457 371q0 -66 63 -66 q66 0 66 66v676q-20 37 -29.5 78.5t-36.5 74.5q-8 -27 -12 -58.5t-8 -62t-13.5 -58.5t-29.5 -48v-602z" />
<glyph unicode="p" horiz-adv-x="940" d="M66 1350q0 43 11 81.5t11 79.5q0 25 -6 49.5t-6 49.5q0 31 10 52t23 46q27 2 46 16.5t38.5 29.5t40 27.5t47.5 12.5h2q98 -37 211 -37h18q14 0 23.5 -8t18.5 -17.5t19.5 -17.5t26.5 -10q12 0 24.5 8t30.5 8q43 0 82 -24.5t70 -66.5t49 -96t18 -116q0 -35 7.5 -67.5 t7.5 -55.5q0 -31 -19 -51v-158q0 -72 -29.5 -140t-78.5 -123.5t-114.5 -89.5t-137.5 -34h-78v-698h-307v1178q-33 33 -46 77.5t-13 94.5zM109 1370q0 -33 3 -68.5t31 -52.5q14 -10 20.5 -21t7.5 -23.5t2 -24t7 -21.5q0 -12 4 -29.5t12.5 -32t19.5 -24.5t26 -10h20 q37 0 50.5 32.5t20.5 75.5t17 84t39 60v20q0 47 19 76q14 -18 35.5 -31.5t48.5 -13.5h4q29 -23 57 -25l16 -12q4 -14 12.5 -19t16.5 -9.5t14 -12.5t6 -28v-35q0 -18 2.5 -39t9.5 -39.5t19.5 -30.5t32.5 -12q25 0 40 13t23.5 33.5t12.5 42t4 40.5v8q33 23 61.5 59.5 t28.5 90.5q0 33 -2 64.5t-10.5 61t-25.5 53t-46 38.5q-14 33 -37.5 43t-52.5 10q-16 0 -33.5 -3t-38.5 -7h-6q-31 0 -59.5 13t-58 30.5t-63.5 31t-77 13.5q-29 0 -51 -15q-10 2 -16.5 3.5t-10.5 1.5q-25 0 -46 -16.5t-28 -51.5q-41 -8 -57 -44t-16 -73q0 -31 7 -47t7 -41 q-4 -16 -11 -29.5t-11 -31.5v-25zM184 1645l4 4v-13zM432 1008h41q37 0 63.5 33.5t26.5 72.5v146q-16 14 -37.5 37.5t-38.5 23.5l-55 -14v-299z" />
<glyph unicode="q" horiz-adv-x="1021" d="M63 1272q0 45 11.5 88t31.5 82l11 10q-6 14 -10.5 29.5t-10.5 31.5q20 39 44 83t67 63q12 20 30.5 52t45 62.5t64.5 52t91 21.5q37 0 68 -18v-2q61 -14 110 -70q18 18 46 27.5t57 9.5q43 0 80 -20.5t49 -63.5q27 -31 52.5 -68.5t25.5 -78.5q0 -16 -2 -25q10 -14 18 -30.5 t8 -32.5q0 -10 -2 -17.5t-6 -15.5q4 -23 21.5 -51.5t17.5 -53.5q0 -23 -6 -44t-6 -44t9 -48t9 -52q0 -47 -20.5 -87t-57.5 -69v-622q0 -137 -129 -293q31 8 77 16t110 19v-281q-168 -8 -273 -141l-221 155q37 61 148 154h-93q-76 0 -142.5 28.5t-115.5 80t-77.5 118 t-28.5 144.5v696q-51 29 -76 88t-25 117zM113 1352q0 -27 3 -57.5t10 -60.5t20.5 -55.5t33.5 -43.5q16 -29 21.5 -69t13.5 -77t26.5 -62.5t61.5 -25.5q37 0 68.5 22.5t31.5 63.5q0 10 -2 19.5t-2 19.5q0 43 26 76t55.5 63.5t55 64.5t25.5 79v20q18 -12 37 -12q18 0 37 12 q27 -27 33 -57.5t6 -63.5v-49q0 -27 3 -50.5t19 -45.5v-8q0 -14 11 -39q0 -39 -7.5 -71t-23.5 -62q8 -37 10 -73t7 -72t17.5 -68.5t37.5 -61.5q0 -2 6 -8t15 -13t19.5 -12.5t18.5 -5.5q27 0 46 28t19 62q0 16 -2 29.5t-2 26.5q4 55 6.5 109.5t2.5 107.5q0 29 -1.5 56.5 t-3.5 55.5q8 12 29 21q10 29 13.5 56.5t3.5 56.5v43q0 23 1 44t7 44q0 20 -16.5 43.5t-16.5 40.5q0 10 8 26.5t8 32.5q0 25 -11 47.5t-25.5 38.5t-25.5 26l-11 11q0 10 4 21.5t4 23.5q0 45 -34 81t-77 36q-29 0 -42 -12.5t-54 -26.5q-35 6 -60.5 23.5t-49 36t-48 32.5 t-57.5 14q-80 0 -113 -125q-53 -14 -93 -57t-40 -92q0 -31 19 -55v-15q-6 -16 -19.5 -29.5t-27 -26.5t-24.5 -25.5t-11 -26.5zM469 371q0 -66 68 -66q66 0 65 66v846q-2 -27 -14 -50q-14 -41 -41 -69.5t-66 -28.5q-4 0 -6 1t-6 1v-700z" />
<glyph unicode="r" horiz-adv-x="1007" d="M80 1616q0 25 4 56.5t17.5 61t38 50t65.5 20.5q14 0 31 -12q4 0 6 2q53 20 113.5 30.5t119.5 10.5q37 0 68.5 -15.5t62.5 -35t60.5 -41t64.5 -33.5l10 -6q16 -6 22.5 -14.5t16.5 -18.5l60 -41q47 -33 61 -77t14 -95q0 -41 -5 -82t-5 -82q0 -37 10 -77q-6 -12 -9 -26.5 t-9 -29.5v-76q0 -123 -98 -235q98 -121 98 -232v-618h-307v590q0 106 -129 106v-696h-307v883q-53 31 -64 86q12 117 14 232.5t7 234.5q-12 43 -21.5 88t-9.5 92zM111 993q0 -4 5 -20.5t14 -33.5t22.5 -30.5t31.5 -13.5q16 0 31.5 12.5t30.5 32.5q20 0 26 -2 q-2 -33 -2 -65.5v-65.5v-127q0 -25 14.5 -37t30.5 -12q18 0 32.5 12t14.5 37q0 88 2.5 176t6.5 178q18 27 23 58.5t7 64.5t7.5 65.5t21.5 61.5q10 -4 20.5 -8t20.5 -4q18 0 37.5 11t40 26.5t40 32t38.5 26.5q12 -86 14 -170t2 -170q0 -25 23.5 -41t40.5 -16q37 0 54 29.5 t26.5 69.5t13.5 81t16 63q4 -2 10 -2q18 0 31.5 14.5t22 35t11.5 44t3 42.5q0 90 -28.5 142t-71.5 86t-93.5 58.5t-93.5 59.5q-6 0 -14 14t-20.5 32.5t-30 33t-41.5 14.5q-12 0 -19 -2q-39 -25 -85 -27t-93 -4t-89 -14.5t-71 -57.5q-6 -47 -8 -95t-2 -97q0 -76 3 -150.5 t7 -150.5q-6 -49 -20 -99.5t-14 -97.5zM461 1008h39q37 0 63.5 33.5t26.5 72.5v178q-20 -20 -44 -32.5t-48 -12.5q-20 0 -29 4l-8 -8v-235z" />
<glyph unicode="s" d="M76 1333q0 72 22.5 143.5t42.5 143.5q10 41 42 65.5t71 36.5q41 39 93 69t106 30h22q4 0 21 -4l63 -5q90 -6 154.5 -64t101.5 -132q2 -18 10.5 -40t16.5 -44.5t14 -45t6 -40.5q0 -4 -1 -10t-3 -17q8 -43 19 -237q0 -20 -3.5 -46t-12.5 -48.5t-24.5 -38t-41.5 -15.5 q-31 0 -45.5 8.5t-25.5 19.5t-25.5 19.5t-45.5 8.5q-25 0 -35 10q-4 0 -25.5 14t-27.5 33l-2 8q-8 18 -13 36.5t-5 37.5v14q0 5 4 17q4 14 10 20v53q0 66 -63 66q-66 0 -66 -66q0 -92 28.5 -167.5t75 -140t103.5 -123t117 -118.5q114 -157 114 -409q0 -82 -29.5 -149.5 t-80.5 -118t-119 -79t-143 -28.5q-78 0 -145.5 28.5t-119 79t-80 118t-28.5 145.5v69q-12 12 -12 27q0 8 6 20l6 19v35h8q10 39 36 59.5t48 20.5q18 0 46 -6.5t40 -10.5q4 0 12.5 5t16.5 5q6 0 22 -4q10 0 21.5 8.5t21.5 8.5q18 0 33.5 -11.5t28 -28t19.5 -36t9 -37.5v-12 q0 -59 -55 -82v-49q0 -66 66 -66q63 0 63 66q0 201 -113 319q-61 59 -109 104.5t-88 98.5t-76 128t-73 191q0 2 -2 5.5t-2 7.5q-20 49 -20 108zM127 1331q0 -31 3 -49t26 -29q0 -29 8 -78t21.5 -97t33 -84t43.5 -36q18 0 32.5 11.5t14.5 31.5q0 13 -4 21q-14 33 -25.5 66.5 t-17.5 68.5h2q6 -6 23 -6q4 0 8 1t8 1q10 -10 29 -10q33 0 41 43t18 96t35 98t90 50q6 -8 17.5 -12.5t21.5 -7.5t17.5 -8t7.5 -13v-5q4 -14 5 -28.5t3 -26.5v-18q0 -43 12 -80t55 -60q14 10 27 11q16 0 34.5 -11.5t35 -26t30 -26.5t23.5 -14q23 0 39 20.5t16 49.5 q0 18 -6 42.5t-14.5 59.5t-17.5 81t-17 109q0 66 -24.5 121t-68.5 95t-102.5 62.5t-126.5 22.5q-66 0 -129 -24.5t-113.5 -76.5t-82 -135t-31.5 -200zM139 496q0 -23 9.5 -36.5t21.5 -24.5t21.5 -24.5t9.5 -35.5v-47q0 -18 3 -39t10 -38.5t18.5 -28.5t29.5 -11 q35 0 48.5 28.5t17.5 65.5t6 72t16 49q12 0 29.5 4t33 12.5t27 22.5t11.5 37q0 35 -33 58.5t-62 23.5t-57.5 -7.5t-44.5 -11.5q-10 27 -43 27q-6 0 -14.5 -2t-14.5 -8q-20 -14 -31.5 -38t-11.5 -48z" />
<glyph unicode="t" horiz-adv-x="813" d="M25 1487q0 133 18 274q10 41 45 41q20 0 37 -16l37 2q10 0 37.5 -3t79.5 -11q8 -2 44.5 -4.5t88 -6.5t109 -8t108.5 -9t87 -11t44 -13q0 -2 3 5.5t7 7.5t8 -19.5t4 -36.5q0 -12 -1 -19t-1 -16.5t-1 -22.5t-1 -40v-186q0 -10 -4 -25.5t-13 -30t-22.5 -23.5t-29.5 -9 q-29 0 -58 32l2 -4h-12q-25 0 -45.5 14.5t-38.5 34.5v-1384h-307v1399h-14l-41 -23q-12 -18 -36 -41.5t-57 -23.5q-29 0 -44 16t-22 42t-9 56.5t-2 61.5zM48 1532v-12q0 -24 3 -46q4 -28 15.5 -46.5t33.5 -18.5q27 0 46.5 11.5t29.5 27.5l12 8q14 14 22.5 16.5t37.5 6.5 q4 -18 15 -25.5t23.5 -17t22.5 -26.5t10 -54l-10 -303q14 -68 47 -68q8 0 22.5 4t18.5 6q-6 -117 -6 -227v-76q18 -51 43 -51q23 0 49 51v58q0 135 8.5 261t8.5 257q0 35 -1 69.5t-3 69.5l8 -2q23 0 41 25l22 8q10 -16 22.5 -34t35.5 -18q20 0 34 15q2 -2 15 -2q8 0 16 5 t16.5 26.5t17.5 63.5t19 116q0 27 -14 55.5t-41 28.5q-139 4 -254 12q-49 2 -98 5t-92 6t-75 6t-46 8q-47 -8 -60.5 -51.5t-13.5 -90.5q0 -25 -1 -57z" />
<glyph unicode="u" horiz-adv-x="1054" d="M76 1440q0 61 6 122.5t6 120.5v31q41 53 107 82q23 0 36 -9t25 -11q27 4 52.5 6t51.5 2q39 0 77 -7.5t75 -27.5l14 -39q-14 -37 -16 -72.5t-2 -72.5t-2 -73t-14 -71q0 -4 1 -6t1 -6q0 -23 -7.5 -46.5t-7.5 -45.5q0 -61 10.5 -127t14.5 -127l-17 -16q-4 -16 -7 -34 t-17 -30l-2 -2v-565l14 -13q39 31 88 31q16 0 27 -2v903q-4 8 -4 15q0 4 4 16v47l-19 70q-31 12 -30 49v72q0 100 48 134t126 34q27 0 37 -3q20 12 41 13q74 0 105.5 -31t41.5 -76q8 -38 8 -79v-17v-17q0 -41 8 -77q16 -25 17 -55q0 -41 -13.5 -88.5t-13.5 -94.5 q0 -33 4 -65.5t4 -65.5q0 -39 -14 -87t-43 -71v-587q0 -78 -29.5 -144.5t-80 -118t-118 -80t-143.5 -28.5q-78 0 -145.5 28.5t-118.5 79t-79.5 118t-28.5 145.5v518q-31 18 -37 51t-21 59q14 43 15 97q0 35 -7 71q2 27 2 52.5v52.5q0 29 -15 70.5t-15 97.5zM100 1464 q0 -29 23 -39l-6 -22q33 -57 36 -128t5 -141.5t20.5 -133t81.5 -105.5q2 -10 3 -22.5t1 -22.5q0 -35 -5 -68.5t-5 -66.5q0 -35 10 -68t39 -33q16 0 42 14.5t26 43.5q0 4 -1 5t-1 5q0 76 11 151.5t23 145.5q20 27 36 55.5t16 63.5q0 10 -4 30q4 27 5 52.5t1 52.5q0 51 -3 101 t-3 100q0 49 6 98t26 98v23q0 33 -9 44t-24.5 15t-34 7t-36.5 22q-12 -10 -31 -10q-12 0 -23.5 2t-23.5 2q-27 0 -39 -19q-47 -4 -78.5 -14t-50 -37t-26 -75t-7.5 -126zM270 692h2v-4zM465 303q0 -23 13.5 -35t31.5 -12q10 0 22 6q2 -20 14.5 -29.5t28.5 -9.5 q27 0 41.5 22.5t14.5 57.5q0 31 -21.5 61.5t-50.5 30.5q-8 0 -14 -2q-29 -8 -54.5 -31.5t-25.5 -58.5zM590 1614q0 -37 14 -82t60 -59q8 -47 10 -92.5t2 -90.5q0 -72 -2 -140.5t-2 -139.5q0 -33 7 -59.5t38 -26.5q20 0 35 14q-4 -86 -7.5 -172t-3.5 -172q0 -25 13.5 -36 t29.5 -11q18 0 34 11t16 36q0 141 7 273t7 274l10 4q20 8 28.5 33.5t13.5 56.5t12.5 64.5t25.5 58.5q6 8 6 22t-7 24.5t-15.5 18t-15.5 14.5t-7 19q0 18 10.5 39t10.5 49q0 37 -12.5 73t-34 63.5t-54.5 45t-71 17.5h-21q-4 0 -10 1t-10 1q-25 0 -57 -16.5t-42 -45.5 q-18 -35 -18 -69z" />
<glyph unicode="v" horiz-adv-x="919" d="M20 1737q0 23 14.5 32t31.5 9q14 0 20 -2q29 14 68 14h13t15 -2q18 4 40 6t44 2q188 0 189 -172q0 -72 -35 -123l37 -266q4 4 6 3t6 3h8l25 170q-4 39 -7 76t-3 74q0 111 37.5 168t136.5 57q41 0 84 -17h22q57 0 96 -23.5t39 -76.5q0 -25 -5 -43t-13 -40.5t-16.5 -53.5 t-14.5 -82q-10 -84 -25.5 -121t-46.5 -61l-182 -1268h-280l-127 903q-20 4 -33.5 22.5t-21 42t-10.5 48t-3 43.5q0 10 1 22.5t1 22.5q-41 63 -62.5 142t-32.5 162t-13.5 167t-2.5 162zM57 1696q0 -16 3 -33.5t3 -34.5q0 -16 -1 -34.5t-1 -34.5q0 -23 3.5 -52.5t19.5 -36.5 q8 -88 34.5 -168.5t55.5 -162.5q2 -6 3 -11.5t1 -11.5q0 -23 -3 -36t-3 -42q0 -14 1 -30.5t4 -30.5t10.5 -24.5t19.5 -10.5q16 0 45 19l45 -19l12 -94q4 -37 14.5 -53.5t18.5 -16.5q16 0 26.5 41t18.5 89t18.5 89t26.5 41q10 0 25.5 -22.5t33 -48t36 -48t34.5 -22.5 q31 0 66 68q16 0 30.5 10t16.5 33l14 174q6 92 6 129v28q4 -4 23.5 -11t42.5 -7q41 0 57 109q8 55 17.5 83.5t17.5 45t13 28.5t5 35q0 45 -25.5 77t-72.5 32q-6 0 -12 -1t-19 -1q-33 0 -75.5 5t-63.5 5q-33 0 -48 -34t-15 -67q0 -12 2 -18q-12 -10 -13 -27q0 -8 4 -20 q12 -37 13 -76q0 -47 -13.5 -95t-13.5 -95q0 -14 12 -27q-4 -12 -11 -30.5t-16 -37t-20.5 -32t-23.5 -13.5h-15q-4 10 -26 45q-23 37 -30 78t-9 84q8 18 8 45t-5 51.5t-5 49.5q0 31 16.5 56.5t16.5 57.5q0 14 -1 33t-15.5 35t-48.5 27.5t-97 11.5q-84 0 -111 -15 q-14 14 -35 15q-18 0 -31.5 -11.5t-13.5 -33.5z" />
<glyph unicode="w" horiz-adv-x="1314" d="M31 1507q0 59 7 121t17 121q2 10 35 25.5t92 15.5q18 0 30.5 -4t23.5 -10h10q23 0 45 -3.5t45 -5.5q16 4 24 5q41 0 67 -15.5t41 -38t20.5 -49.5t5.5 -51q0 -35 -4.5 -73t-4.5 -70q-18 -18 -25 -44t-16 -53l23 -151h10q16 0 27 -6l28 206q-22 65 -22 124v5q0 31 8 69 t26.5 69.5t47.5 54.5t72 23q53 0 83.5 -25t46 -61.5t19.5 -78.5t4 -75q0 -37 -3 -62.5t-28 -52.5l27 -190h8q18 0 29 -10l27 184q-18 8 -22.5 43t-4.5 72q0 63 6 122.5t39 116.5q6 10 23.5 16.5t41 9.5t51 4t52.5 1q41 0 83 -8.5t74.5 -27.5t53 -51t20.5 -79 q0 -29 -19.5 -113t-33.5 -215q-31 -27 -37 -60.5t-8 -69.5t-10 -68.5t-41 -57.5l-135 -1036h-258l-93 639l-94 -639h-258l-170 1323q-16 -6 -35 -6q-25 0 -39 19.5t-21 48t-9 61.5t-2 61zM73 1522q1 -43 7 -77t18.5 -55.5t32.5 -21.5q6 0 10 2q12 -29 43 -29l4 -2 q-4 -12 -4 -23v-22q0 -47 9.5 -93t9.5 -93q0 -20 14 -30.5t33 -10.5q4 -18 7 -39.5t9 -39t16.5 -29t28.5 -11.5q27 0 41.5 23.5t18.5 62.5q10 -14 24 -16l43 -23q20 -10 37 -10q20 0 46 19.5t67 76.5q25 4 29 17.5t18 23.5q6 -25 15 -39t21.5 -26.5t31 -28.5t47.5 -43 q76 -35 116.5 -54.5t46.5 -23.5l-4 -39q0 -6 -1 -12t-1 -12q0 -18 2 -39t8.5 -38t17.5 -27.5t30 -10.5q10 0 19 4t13 12q14 -10 31 -10q25 0 41 42t27.5 100.5t17.5 118t12 96.5q18 12 28.5 38.5t16 60.5t9.5 67.5t10 60.5q20 92 28.5 140t8.5 50v4q2 14 3 26.5t1 27.5 q0 16 -2 32.5t-6 32.5q-6 10 -21.5 24.5t-35 29t-41 23.5t-38.5 9q-12 0 -21 -7t-17 -7h-7q-10 10 -65 10q-53 0 -53 -41q0 -29 -3 -47t-6.5 -33.5t-6.5 -31t-3 -35.5q0 -27 5 -49.5t28 -40.5q-10 -47 -27.5 -95.5t-17.5 -95.5q0 -16 2 -24q-4 -18 -4 -37t-3 -35 t-11.5 -28.5t-26.5 -18.5l-16 -4q-8 12 -13.5 27.5t-11.5 30.5t-13.5 28.5t-19.5 19.5q-2 18 -3 37t-1 37q0 39 2 77t2 75q0 39 -6 88t-19.5 91t-34 70.5t-46.5 28.5q-12 0 -32 -14.5t-36 -37t-28.5 -53t-12.5 -63.5q0 -18 7 -38.5t7 -43.5q0 -78 -28.5 -150.5t-48.5 -144.5 q-6 4 -17 4l-12 4q-18 -2 -29 -10q-10 68 -22 133.5t-31 130.5l-2 5l-4 8q35 18 50 54t15 75q0 66 -25.5 108.5t-90.5 42.5q-10 0 -20.5 -1t-20.5 -3l-21 -6q-16 4 -24 4q-4 0 -9.5 -1t-9.5 -1q-18 18 -43 29q-110 -10 -110 -129q0 -45 1 -88z" />
<glyph unicode="x" horiz-adv-x="1032" d="M45 1692q0 37 11.5 64.5t39.5 27.5q14 0 33 -15q4 10 44 16.5t69 6.5q20 0 54 -2t70.5 -12.5t70.5 -32t57 -57.5q-6 -23 -7 -43q0 -16 6.5 -33t6.5 -33q0 -27 -21 -47l25 -88l10 8q10 8 27 8h10l14 51q-20 14 -32.5 36t-12.5 44q0 -2 7.5 28t21.5 65.5t37.5 65.5t54.5 30 q16 0 31 -15q8 6 47 7q35 0 88 -4.5t129 -12.5q23 -10 31 -29.5t8 -37.5q0 -25 -11.5 -51.5t-25.5 -59.5t-25.5 -74t-11.5 -92q0 -23 2 -47.5t2 -40.5q0 -25 -10 -42t-23.5 -29.5t-29 -17.5t-25.5 -5h-6l-117 -375l264 -854h-333l-99 342l-98 -342h-334l264 854l-159 514 q-6 -2 -17 -2q-41 0 -61 37q-4 37 -15.5 72.5t-25.5 71.5t-24.5 72t-10.5 73zM94 1679q0 -6 2 -8q12 -53 29.5 -106.5t17.5 -108.5q0 -18 14.5 -32.5t32.5 -14.5q8 -4 16.5 -5t18.5 -5q6 -20 22.5 -38t33.5 -28v-12q0 -2 6 -16.5t16 -32t25.5 -30.5t33.5 -13q10 0 18.5 7 t14.5 15.5t13.5 15.5t15.5 7q12 0 27.5 -26.5t15.5 -63.5q0 -20 -2 -29q0 -20 18 -39q0 -6 -1 -10t-1 -8v-4q-2 -4 -2 -13q0 -20 17 -20q18 0 34.5 10t28.5 23.5t18.5 28t6.5 24.5t-2 22.5t-2 24.5q14 12 30 12q12 0 25.5 -10t27 -23.5t29 -23.5t33.5 -10t28.5 16t18.5 40 t14.5 47.5t12.5 37.5q14 -14 32 -14q16 0 31 16t15 57q0 59 -17 99q2 20 11.5 41.5t19.5 45t18.5 46t8.5 45.5q0 29 -10.5 41t-29 18t-41 9.5t-46.5 11.5q-8 -4 -14.5 -5t-10.5 -1q-16 0 -29.5 7t-34.5 7q-41 0 -64.5 -16.5t-36.5 -40t-17 -50t-4 -47.5q0 -37 10 -75.5 t16 -67.5l-12 -12q-2 0 -6 -2t-6 -2l-15 -7q-4 0 -7 -1t-7 -1q-53 0 -70.5 15.5t-21.5 39t-8 53.5t-31 58q12 20 22.5 42t10.5 44q0 25 -26 44.5t-62.5 32.5t-77.5 19.5t-72 6.5q-18 0 -39.5 -2t-40 -8.5t-31 -17.5t-12.5 -30zM256 1356l2 -2q-2 0 -2 2z" />
<glyph unicode="y" d="M8 1683q0 27 22.5 43.5t60.5 23.5t89 9t111 2q74 0 116 -41t42 -90q0 -59 -35 -100l63 -195l39 127q-14 27 -14 58q0 12 4 32q14 49 20 89t30 68t77 43t164 15q90 0 125.5 -27.5t35.5 -78.5q0 -41 -15 -97.5t-38.5 -107.5t-50.5 -87t-49 -36q-6 0 -8 2l-166 -536v-799 h-307v788l-158 523q-10 0 -28.5 23.5t-38 51t-33.5 50.5l-15 22q-4 59 -23.5 112.5t-19.5 112.5zM39 1642q0 -12 2 -16l20 -74q2 -6 3.5 -11t1.5 -11q0 -4 -1.5 -8t-1.5 -9q14 -14 23 -32q-2 -4 -2 -15q0 -41 43 -71q2 -4 16.5 -11.5t32 -17.5t31.5 -21.5t20 -21.5l9 -6 q-2 -6 -3 -19q0 -23 18.5 -44t43.5 -21q16 0 30.5 12t14.5 35q0 33 -9 62.5t-14 62.5q25 0 40.5 14.5t15.5 46.5q0 10 -1 22.5t-3 24.5q23 10 36 33t13 56q0 41 -16.5 65.5t-55.5 37.5t-102.5 17t-157.5 4q-23 0 -34 -15t-11 -32q0 -6 2 -10v-2q-4 -16 -4 -25zM539 1546 q0 -18 15 -44.5t43 -51.5t63.5 -43t78.5 -18q29 0 39 10l8 10q4 -2 15 -2q43 0 57 20.5t19.5 49t8.5 58.5t21 48q2 8 2 25q0 20 -4 38.5t-23.5 33t-60.5 22.5t-114 8q-68 0 -84 -16h-7q-22 -1 -34 -19q-23 -27 -33 -60.5t-10 -68.5z" />
<glyph unicode="z" horiz-adv-x="976" d="M53 1688q0 29 21.5 59.5t48.5 30.5q10 0 27 -9h10q2 4 11 6.5t17 4.5q66 -18 135.5 -22t141.5 -3l211 8q174 -18 190 -30q12 -10 15.5 -28.5t3.5 -37.5q0 -16 -1 -31.5t-10 -29.5v-109l-372 -1155q68 0 137.5 8t138.5 8q154 0 154 -110q0 -37 -58 -248h-745v142.5 t-2 64.5l373 1153q-4 31 -19 31q-10 0 -28 -13q-12 -8 -37 -12t-49.5 -6t-45 -4t-26.5 -4q-6 0 -11 1t-12 1l-32 -47q-23 -31 -99 -33q-14 4 -24.5 15t-10.5 26q-20 129 -36.5 223t-16.5 150zM94 1708l49 -344q10 -53 33 -53q12 0 24.5 13t28.5 36l41 57h6q14 0 23.5 -13 t28.5 -13q27 0 54.5 9t52 20.5t41 21.5t20.5 10q29 -6 39 -24.5t10 -49.5q-23 -74 -47.5 -144.5t-48.5 -141.5q-2 -6 -3 -15q0 -16 7.5 -27.5t35.5 -11.5q31 0 48.5 12.5t27.5 26t17.5 25.5t19.5 12q4 0 7 -8t8.5 -18.5t13.5 -18.5t22 -8t26.5 9t25 36t28 76t35.5 129 q29 113 43 178t14 84q0 14 -2 35.5t-15 44t-40 40t-76 23.5q-33 -6 -65.5 -8t-65.5 -2q-39 0 -77 2t-76 2q-53 0 -103 -6q-25 6 -56.5 21.5t-53.5 15.5q-4 0 -8.5 -1t-8.5 -1q-16 18 -41 18q-16 0 -29.5 -10t-13.5 -33v-6zM477 262q29 -74 71 -108.5t73 -34.5q16 0 24 8 q27 -10 58.5 -27.5t60.5 -17.5q12 0 33.5 16.5t41 39t34 48t14.5 41.5q0 25 -12.5 49.5t-32.5 38.5q-102 -6 -175 -10t-114 -4h-23q-28 0 -53 -39z" />
<glyph unicode="&#xa1;" horiz-adv-x="514" d="M68 1284q0 41 17 76t46 60.5t67 40t78 14.5q53 0 92.5 -43t39.5 -97v-16t-2 -12q16 -39 16 -80q0 -72 -40 -124t-110 -52q-51 0 -97 36.5t-56 88.5l-2 2l-4 4q-45 43 -45 102zM90 1290q0 -37 33 -76l27 -14q6 -4 29.5 -17.5t47.5 -13.5q47 0 79 34t42 73q16 4 37 18.5 t21 40.5q0 18 -15.5 38t-32.5 30l-2 2q-10 23 -31.5 29t-41.5 6q-33 0 -68 -12.5t-62.5 -32t-45 -47t-17.5 -58.5zM113 -174q0 109 6 192.5t15 150.5t19.5 118t18.5 94l6 76q-12 2 -22.5 18.5t-17.5 36.5t-10 41.5t-3 36.5q0 43 8 88t12 86q-4 20 -4 35q0 31 10.5 60.5 t29 53t43 39t55.5 15.5t52 -15.5t34.5 -37t19.5 -47t6 -44.5q0 -25 -5 -58.5t-13 -65t-16.5 -55t-16.5 -28.5q6 -66 12 -125t15 -110l47 -342q4 -39 6 -91t2 -122q0 -72 -42 -119t-112 -47q-72 0 -113.5 47t-41.5 119zM147 535q0 -59 46 -60q18 0 33.5 11t15.5 36 q-2 12 -3 25.5t-1 27.5t1 27.5t3 28.5q4 -2 16 -2q18 0 34.5 18.5t29 46t19.5 60t7 61.5q0 25 -7 47.5t-24 38.5l-2 2q-25 18 -61 25h-8q-37 0 -56.5 -45t-28.5 -107.5t-11.5 -130t-2.5 -110.5z" />
<glyph unicode="&#xa8;" horiz-adv-x="694" d="M184 1874q0 35 29 61.5t63 26.5q20 0 45 -6t45.5 -17.5t34 -28t13.5 -36.5q0 -16 -6 -29v-6q0 -59 -89 -59q-61 0 -98 23.5t-37 70.5zM217 1892q0 -16 5 -32.5t22 -16.5q6 0 10 2h6q2 -6 14 -6h9q14 -16 36 -16q23 0 40.5 14t17.5 37q0 27 -24.5 37t-92.5 10 q-31 0 -37 -8t-6 -21zM475 1839q0 37 19.5 73t72.5 36q66 0 103 -25t37 -59q0 -18 -11.5 -31.5t-33.5 -13.5h-15q-8 -39 -82 -39q-90 0 -90 59zM516 1872q0 -12 10.5 -28.5t30.5 -16.5q10 0 19.5 12t19.5 12q4 0 18.5 -6t24.5 -10l33 25q12 8 12 22q0 6 -2 16.5t-8 12.5 l-21 12q-47 6 -71 6q-35 0 -50.5 -17.5t-15.5 -39.5z" />
<glyph unicode="&#xa9;" horiz-adv-x="2039" d="M94 891q0 190 73 357t196.5 291t290.5 196.5t356 72.5q190 0 357 -72.5t291 -196.5t196.5 -291t72.5 -357q0 -188 -72.5 -355t-196.5 -291t-291 -197t-357 -73q-188 0 -355.5 73t-291 197t-196.5 291t-73 355zM205 887q0 -168 63.5 -315.5t173 -257t257 -173t317.5 -63.5 q166 0 314.5 63.5t259 173t175 257t64.5 315.5t-64.5 317.5t-175 261t-259 176t-314.5 64.5q-172 0 -319.5 -64.5t-256 -176t-171 -261t-64.5 -317.5zM541 879q0 123 31.5 228t90 181t143.5 119t191 43q256 0 379 -219l-172 -113q-82 119 -207 119q-117 0 -185.5 -93 t-68.5 -265q0 -80 20.5 -144.5t55.5 -112t82 -73t100 -25.5q55 0 110.5 28t92.5 73l166 -113q-125 -205 -373 -205q-98 0 -182 44t-145.5 121t-95 181.5t-33.5 225.5z" />
<glyph unicode="&#xab;" horiz-adv-x="866" d="M94 688v135l363 189v-144l-238 -108l238 -113v-137zM438 688v135l361 189v-144l-236 -108l236 -113v-137z" />
<glyph unicode="&#xad;" horiz-adv-x="780" d="M18 905q0 31 8.5 59.5t25 52t41 38t57.5 16.5q16 -16 40 -16q35 0 67 11t69 21q27 -16 56.5 -20t57.5 -4q23 0 42.5 1t39.5 1q27 0 51.5 -2t49.5 -12q25 25 65 24q39 0 74 -25.5t39 -68.5q-14 -41 -17.5 -82t-3.5 -82v-55q0 -25 -2 -62.5t-10 -73.5t-27.5 -60.5 t-52.5 -24.5q-17 0 -31 8q-23 25 -31 51.5t-8 56.5v20.5t3 20.5h-527v82q-4 -2 -10 -2q-16 0 -28.5 12.5t-20.5 31t-12.5 41t-4.5 42.5zM49 934q0 -47 31 -85t78 -38q6 0 22 4q18 2 27.5 12.5t13.5 24.5l51 -23q4 -12 4 -18q0 -14 -4 -25.5t-4 -21.5q0 -20 15.5 -33.5 t31.5 -13.5q18 0 33 14l14 17q16 16 17 32q0 20 -8 31l2 4q2 0 4 2q4 -33 17.5 -55.5t37.5 -22.5q18 0 33.5 12.5t15.5 32.5q0 16 -6 34t-6 38q41 -16 75 -34.5t79 -18.5q14 0 20 2q0 -23 4 -55.5t11.5 -61.5t20.5 -49.5t36 -20.5q16 0 31.5 11.5t15.5 34.5q-4 18 -4 37.5 v37.5q0 23 1 46.5t1 48.5q0 57 -8 104q8 8 8 29v28q0 18 -13.5 31.5t-31.5 13.5q-10 0 -34 -4t-51.5 -10l-55 -12t-44.5 -13q-43 16 -71 17q-18 0 -27 -2q-35 25 -67 24q-23 0 -43 -14h-66q-31 0 -57 -18q-23 20 -56 20q-35 0 -64.5 -26.5t-29.5 -67.5z" />
<glyph unicode="&#xae;" horiz-adv-x="1249" d="M109 1286q0 100 37.5 189.5t107.5 157t164 106.5t209 39t211 -38t166.5 -104.5t110.5 -155.5t40 -194q0 -96 -41 -184t-111.5 -155.5t-167.5 -107.5t-208 -40q-115 0 -209 40t-164 107.5t-107.5 155.5t-37.5 184zM207 1286q0 -74 28.5 -145.5t83 -127t132 -90 t174.5 -34.5q90 0 171 30.5t142 84t97 126t36 156.5q0 72 -32.5 143.5t-92 128t-141.5 91t-180 34.5q-96 0 -174 -34.5t-132.5 -91t-83 -128t-28.5 -143.5zM465 1014v530h190q74 0 119 -44t45 -126q0 -53 -20.5 -87t-67.5 -62l94 -211h-110l-90 194h-56v-194h-104zM569 1317 h88q55 0 56 57q0 63 -56 64h-88v-121z" />
<glyph unicode="&#xb4;" horiz-adv-x="706" d="M373 1882q0 35 22.5 61.5t57.5 32.5h14q14 0 39.5 -1t50.5 -7t43 -17.5t18 -29.5q-6 -23 -16 -30t-27 -7l-73 -74h-49q-14 -10 -29 -10q-10 0 -22.5 7.5t-12.5 23.5v4q-16 23 -16 47zM393 1872q0 -17 4 -25q6 -20 23 -20q8 0 15 8t16.5 19.5t22.5 22.5t32 15q4 0 6 2h10 q10 10 21.5 13.5t11.5 19.5q0 10 -16.5 19.5t-32.5 9.5q-41 0 -77 -22.5t-36 -61.5z" />
<glyph unicode="&#xb8;" horiz-adv-x="591" d="M211 -231q117 14 117 73q0 14 -6.5 41t-6.5 41q0 41 45 86h43q-29 -45 -28 -67q0 -12 12 -26.5t27.5 -34t29 -45t13.5 -62.5q0 -131 -152 -131q-39 0 -94 6v119z" />
<glyph unicode="&#xbb;" horiz-adv-x="892" d="M121 510v143l235 111l-235 108v140l360 -178v-138zM463 510v143l235 111l-235 108v140l360 -178v-138z" />
<glyph unicode="&#xbf;" horiz-adv-x="874" d="M66 20q0 141 63 267v16q0 70 30.5 115t68.5 84t74 79t46 97q-6 16 -8 32.5t-2 34.5q0 33 9 66t26.5 58.5t44 42t63.5 16.5q53 0 89 -29t58.5 -72t32 -91t9.5 -87q0 -41 -21.5 -79t-54.5 -66q-12 -53 -46 -119t-72 -131.5t-68.5 -122.5t-34.5 -94q10 4 21.5 6t21.5 2 q6 0 12 -1t14 -3q0 70 37 99.5t90.5 37.5t109.5 6t97 6q29 -18 40 -45.5t11 -58.5q0 -84 -27.5 -163t-78.5 -140.5t-123 -98t-160 -36.5q-76 0 -143.5 28.5t-118.5 78.5t-80.5 118.5t-29.5 146.5zM180 348q0 -18 13.5 -31.5t33.5 -13.5q27 0 43.5 13.5t26.5 32t21.5 36.5 t29.5 31l68 94q0 -23 14 -35t33 -12q12 0 24.5 9t18.5 26l8 20q25 0 43 21l12 20q2 0 3 -1t6 -1q20 0 31.5 12.5t17.5 30.5t8 41t2 41q0 39 -9.5 78t-28.5 68.5t-50 48t-74 18.5l-12 -6q-4 0 -6 1t-6 1q-17 0 -31 -12q-20 -12 -29.5 -30t-13.5 -37t-6 -39.5t-9 -39.5 q6 -4 9.5 -14t5.5 -10q0 -53 -24.5 -95.5t-57.5 -80t-64.5 -77.5t-46.5 -87q-4 -16 -4 -21zM258 1221q0 20 15.5 58t41 75t60.5 64.5t76 27.5q86 0 139 -54.5t53 -123.5q0 -16 -2 -33t-16 -31q2 -10 2 -26q0 -35 -12.5 -67t-34 -56.5t-51 -39t-62.5 -14.5q-53 0 -85 30 t-54 77q-35 10 -52.5 45t-17.5 68zM285 1231q0 -29 13 -61.5t42 -32.5q20 0 37 18q12 -12 31 -12h8l10 -35q12 -39 45 -39q18 0 32.5 11.5t14.5 33.5q0 10 -2 20.5t-2 20.5v27l4 6q12 -18 35 -19q21 1 39 21q16 12 22.5 29.5t6.5 35.5q0 31 -14.5 57.5t-37 46t-49 32 t-49.5 12.5q-35 0 -68.5 -14.5t-60.5 -38t-42 -54t-15 -65.5zM344 -33q0 -21 10 -33q-4 -16 -4 -26q0 -23 13.5 -46.5t35.5 -23.5q18 0 35 13.5t17 29.5q6 -4 20 -4q25 0 43 14.5t31.5 35t23 42t15.5 35.5q4 0 4 2l10 -2v-53q0 -25 13.5 -36t29.5 -11q18 0 33.5 11t15.5 36 v45q6 -2 19 -2q35 0 62.5 31.5t27.5 64.5q0 20 -13.5 33.5t-35 21t-46 9.5t-45.5 2q-37 0 -69 -13q-16 10 -27 11q-18 0 -35.5 -10.5t-31 -26t-22.5 -33.5t-9 -35q0 -12 2 -16q-6 -12 -13.5 -21.5t-11.5 -21.5q-12 10 -30.5 18t-26.5 8q-18 0 -29.5 -15t-11.5 -34zM522 -57 q0 4 4 8q0 -4 -2 -6z" />
<glyph unicode="&#xc0;" horiz-adv-x="802" d="M23 -2l172 1202q-23 0 -36.5 14.5t-19.5 35t-8 45t-2 46.5q0 47 15.5 129t39 161t51 136.5t52.5 57.5q23 0 37 -15q55 43 129 43q53 0 101 -22.5t81 -67.5q10 -63 14 -124.5t4 -122.5q0 -37 -1 -88.5t-4 -98.5t-10 -82t-20 -43l170 -1206h-303l-12 195h-129l-16 -195 h-305zM172 1372q0 -25 5.5 -50t17.5 -52q6 -16 17 -23.5t21 -7.5q2 0 3.5 1t3.5 1q10 0 16 -94t6 -242q0 -29 -1 -56.5t-1 -55.5q0 -10 3 -16.5t8 -14.5t12.5 -23.5t15.5 -44.5q29 80 43 133.5t16 81.5l4 117q12 -6 19 -6q2 0 3 1t3 1q4 -125 16 -125q8 0 25 104q31 0 41 29 q8 -162 20 -162q2 0 5.5 29t8.5 72t9 93t8 92t6 69.5t2 25.5q25 -59 45 -59q14 0 21.5 25.5t11.5 64.5t5 83t1 81q0 84 -1 149.5t-12 109.5t-39 67.5t-81 23.5q-74 0 -112.5 -4t-63.5 -21q-20 0 -37.5 -29.5t-32 -73.5t-25.5 -95t-18.5 -95t-12.5 -74zM283 293q0 -23 18 -37 l6 -6q23 -31 55 -31q10 0 33 5t45.5 14.5t40 20.5t17.5 24q0 14 -9.5 31.5t-23.5 31.5t-28.5 23.5t-26.5 9.5h-13q-8 4 -14 4q-10 0 -27.5 -9t-34 -22.5t-27.5 -30t-11 -28.5zM303 1927q0 31 39 31q78 0 123 -23.5t45 -40.5q0 -12 -14 -12l-2 -16q0 -4 -2 -4l14 -52h-78 q-18 8 -39.5 16.5t-41 20t-32 30.5t-12.5 50zM322 1905q0 -14 16 -24.5t29 -10.5l63 -10q8 -2 15.5 -2h13.5q33 0 33 16q0 20 -13.5 30.5t-33 14.5t-41 7t-37.5 11q-8 0 -19 -10h-6q-10 0 -15 -7t-5 -15zM367 420l32 6q10 0 20.5 -5t18.5 -11h11l-19 286h-45z" />
<glyph unicode="&#xc1;" horiz-adv-x="802" d="M23 -2l172 1202q-23 0 -36.5 14.5t-19.5 35t-8 45t-2 46.5q0 47 15.5 129t39 161t51 136.5t52.5 57.5q23 0 37 -15q55 43 129 43q53 0 101 -22.5t81 -67.5q10 -63 14 -124.5t4 -122.5q0 -37 -1 -88.5t-4 -98.5t-10 -82t-20 -43l170 -1206h-303l-12 195h-129l-16 -195 h-305zM172 1372q0 -25 5.5 -50t17.5 -52q6 -16 17 -23.5t21 -7.5q2 0 3.5 1t3.5 1q10 0 16 -94t6 -242q0 -29 -1 -56.5t-1 -55.5q0 -10 3 -16.5t8 -14.5t12.5 -23.5t15.5 -44.5q29 80 43 133.5t16 81.5l4 117q12 -6 19 -6q2 0 3 1t3 1q4 -125 16 -125q8 0 25 104q31 0 41 29 q8 -162 20 -162q2 0 5.5 29t8.5 72t9 93t8 92t6 69.5t2 25.5q25 -59 45 -59q14 0 21.5 25.5t11.5 64.5t5 83t1 81q0 84 -1 149.5t-12 109.5t-39 67.5t-81 23.5q-74 0 -112.5 -4t-63.5 -21q-20 0 -37.5 -29.5t-32 -73.5t-25.5 -95t-18.5 -95t-12.5 -74zM283 293q0 -23 18 -37 l6 -6q23 -31 55 -31q10 0 33 5t45.5 14.5t40 20.5t17.5 24q0 14 -9.5 31.5t-23.5 31.5t-28.5 23.5t-26.5 9.5h-13q-8 4 -14 4q-10 0 -27.5 -9t-34 -22.5t-27.5 -30t-11 -28.5zM287 1882q0 35 22.5 61.5t57.5 32.5h14q14 0 39.5 -1t50.5 -7t43 -17.5t18 -29.5q-6 -23 -16 -30 t-27 -7l-73 -74h-49q-14 -10 -29 -10q-10 0 -22.5 7.5t-12.5 23.5v4q-16 23 -16 47zM307 1872q0 -17 4 -25q6 -20 23 -20q8 0 15 8t16.5 19.5t22.5 22.5t32 15q4 0 6 2h10q10 10 21.5 13.5t11.5 19.5q0 10 -16.5 19.5t-32.5 9.5q-41 0 -77 -22.5t-36 -61.5zM367 420l32 6 q10 0 20.5 -5t18.5 -11h11l-19 286h-45z" />
<glyph unicode="&#xc2;" horiz-adv-x="802" d="M23 -2l172 1202q-23 0 -36.5 14.5t-19.5 35t-8 45t-2 46.5q0 47 15.5 129t39 161t51 136.5t52.5 57.5q23 0 37 -15q55 43 129 43q53 0 101 -22.5t81 -67.5q10 -63 14 -124.5t4 -122.5q0 -37 -1 -88.5t-4 -98.5t-10 -82t-20 -43l170 -1206h-303l-12 195h-129l-16 -195 h-305zM172 1372q0 -25 5.5 -50t17.5 -52q6 -16 17 -23.5t21 -7.5q2 0 3.5 1t3.5 1q10 0 16 -94t6 -242q0 -29 -1 -56.5t-1 -55.5q0 -10 3 -16.5t8 -14.5t12.5 -23.5t15.5 -44.5q29 80 43 133.5t16 81.5l4 117q12 -6 19 -6q2 0 3 1t3 1q4 -125 16 -125q8 0 25 104q31 0 41 29 q8 -162 20 -162q2 0 5.5 29t8.5 72t9 93t8 92t6 69.5t2 25.5q25 -59 45 -59q14 0 21.5 25.5t11.5 64.5t5 83t1 81q0 84 -1 149.5t-12 109.5t-39 67.5t-81 23.5q-74 0 -112.5 -4t-63.5 -21q-20 0 -37.5 -29.5t-32 -73.5t-25.5 -95t-18.5 -95t-12.5 -74zM174 1780v14 q18 33 46 61.5t61.5 50t69.5 34t69 12.5q43 0 80 -19.5t62.5 -43t40.5 -43t15 -21.5q0 -6 -6 -14.5t-8 -12.5l8 -12l-129 45q-10 -27 -35 -27q-14 0 -22 8l-10 19l-80 -2l-43 -43h-35q-12 -10 -27.5 -19.5t-33.5 -9.5q-23 0 -23 23zM207 1819q0 -23 24 -23q10 0 28.5 17.5 t57.5 44.5l101 -17q8 -6 22 -6q16 0 22.5 11.5t20.5 19.5q2 -2 11 -2l10 -6q8 -16 24 -31q41 6 41 18q0 18 -16 33.5t-40 27t-51.5 17.5t-49.5 6q-25 0 -60 -9t-67.5 -24.5t-55 -36t-22.5 -40.5zM283 293q0 -23 18 -37l6 -6q23 -31 55 -31q10 0 33 5t45.5 14.5t40 20.5 t17.5 24q0 14 -9.5 31.5t-23.5 31.5t-28.5 23.5t-26.5 9.5h-13q-8 4 -14 4q-10 0 -27.5 -9t-34 -22.5t-27.5 -30t-11 -28.5zM367 420l32 6q10 0 20.5 -5t18.5 -11h11l-19 286h-45z" />
<glyph unicode="&#xc3;" horiz-adv-x="802" d="M23 -2l172 1202q-23 0 -36.5 14.5t-19.5 35t-8 45t-2 46.5q0 47 15.5 129t39 161t51 136.5t52.5 57.5q23 0 37 -15q55 43 129 43q53 0 101 -22.5t81 -67.5q10 -63 14 -124.5t4 -122.5q0 -37 -1 -88.5t-4 -98.5t-10 -82t-20 -43l170 -1206h-303l-12 195h-129l-16 -195 h-305zM162 1829q0 29 15 55.5t42 46t61.5 30.5t73.5 11q72 0 99 -57q-16 10 -37 18.5t-43 8.5h-15l-27 -2q-28 -3 -62 -14t-61.5 -34.5t-27.5 -68.5q0 -25 23 -25q18 0 26.5 15.5t20.5 33t35.5 32.5t72.5 15q25 0 45.5 -9t39 -19.5t37 -19.5t40.5 -9q27 0 53.5 9t49.5 22 l6 26q0 12 -17 21q-90 -25 -114 -25q-4 0 -5.5 1t-3.5 1l-28 17q12 -2 22.5 -3t22.5 -5q86 33 121 32q18 0 26 -19.5t8 -35.5q0 -25 -17 -47.5t-40 -22.5q-14 1 -24 9q-23 -31 -50 -31q-20 0 -61 29q-18 4 -39.5 3t-32.5 17q-8 14 -23.5 23.5t-33.5 13.5q-35 -8 -57 -80h-35 q-12 -25 -39 -25q-47 0 -47 62zM172 1372q0 -25 5.5 -50t17.5 -52q6 -16 17 -23.5t21 -7.5q2 0 3.5 1t3.5 1q10 0 16 -94t6 -242q0 -29 -1 -56.5t-1 -55.5q0 -10 3 -16.5t8 -14.5t12.5 -23.5t15.5 -44.5q29 80 43 133.5t16 81.5l4 117q12 -6 19 -6q2 0 3 1t3 1 q4 -125 16 -125q8 0 25 104q31 0 41 29q8 -162 20 -162q2 0 5.5 29t8.5 72t9 93t8 92t6 69.5t2 25.5q25 -59 45 -59q14 0 21.5 25.5t11.5 64.5t5 83t1 81q0 84 -1 149.5t-12 109.5t-39 67.5t-81 23.5q-74 0 -112.5 -4t-63.5 -21q-20 0 -37.5 -29.5t-32 -73.5t-25.5 -95 t-18.5 -95t-12.5 -74zM283 293q0 -23 18 -37l6 -6q23 -31 55 -31q10 0 33 5t45.5 14.5t40 20.5t17.5 24q0 14 -9.5 31.5t-23.5 31.5t-28.5 23.5t-26.5 9.5h-13q-8 4 -14 4q-10 0 -27.5 -9t-34 -22.5t-27.5 -30t-11 -28.5zM367 420l32 6q10 0 20.5 -5t18.5 -11h11l-19 286 h-45z" />
<glyph unicode="&#xc4;" horiz-adv-x="802" d="M23 -2l172 1202q-23 0 -36.5 14.5t-19.5 35t-8 45t-2 46.5q0 47 15.5 129t39 161t51 136.5t52.5 57.5q23 0 37 -15q55 43 129 43q53 0 101 -22.5t81 -67.5q10 -63 14 -124.5t4 -122.5q0 -37 -1 -88.5t-4 -98.5t-10 -82t-20 -43l170 -1206h-303l-12 195h-129l-16 -195 h-305zM147 1874q0 35 29 61.5t63 26.5q20 0 45 -6t45.5 -17.5t34 -28t13.5 -36.5q0 -16 -6 -29v-6q0 -59 -89 -59q-61 0 -98 23.5t-37 70.5zM172 1372q0 -25 5.5 -50t17.5 -52q6 -16 17 -23.5t21 -7.5q2 0 3.5 1t3.5 1q10 0 16 -94t6 -242q0 -29 -1 -56.5t-1 -55.5 q0 -10 3 -16.5t8 -14.5t12.5 -23.5t15.5 -44.5q29 80 43 133.5t16 81.5l4 117q12 -6 19 -6q2 0 3 1t3 1q4 -125 16 -125q8 0 25 104q31 0 41 29q8 -162 20 -162q2 0 5.5 29t8.5 72t9 93t8 92t6 69.5t2 25.5q25 -59 45 -59q14 0 21.5 25.5t11.5 64.5t5 83t1 81q0 84 -1 149.5 t-12 109.5t-39 67.5t-81 23.5q-74 0 -112.5 -4t-63.5 -21q-20 0 -37.5 -29.5t-32 -73.5t-25.5 -95t-18.5 -95t-12.5 -74zM180 1892q0 -16 5 -32.5t22 -16.5q6 0 10 2h6q2 -6 14 -6h9q14 -16 36 -16q23 0 40.5 14t17.5 37q0 27 -24.5 37t-92.5 10q-31 0 -37 -8t-6 -21z M283 293q0 -23 18 -37l6 -6q23 -31 55 -31q10 0 33 5t45.5 14.5t40 20.5t17.5 24q0 14 -9.5 31.5t-23.5 31.5t-28.5 23.5t-26.5 9.5h-13q-8 4 -14 4q-10 0 -27.5 -9t-34 -22.5t-27.5 -30t-11 -28.5zM367 420l32 6q10 0 20.5 -5t18.5 -11h11l-19 286h-45zM438 1839 q0 37 19.5 73t72.5 36q66 0 103 -25t37 -59q0 -18 -11.5 -31.5t-33.5 -13.5h-15q-8 -39 -82 -39q-90 0 -90 59zM479 1872q0 -12 10.5 -28.5t30.5 -16.5q10 0 19.5 12t19.5 12q4 0 18.5 -6t24.5 -10l33 25q12 8 12 22q0 6 -2 16.5t-8 12.5l-21 12q-47 6 -71 6 q-35 0 -50.5 -17.5t-15.5 -39.5z" />
<glyph unicode="&#xc5;" horiz-adv-x="802" d="M23 -2l172 1202q-23 0 -36.5 14.5t-19.5 35t-8 45t-2 46.5q0 47 15.5 129t39 161t51 136.5t52.5 57.5q23 0 37 -15q55 43 129 43q53 0 101 -22.5t81 -67.5q10 -63 14 -124.5t4 -122.5q0 -37 -1 -88.5t-4 -98.5t-10 -82t-20 -43l170 -1206h-303l-12 195h-129l-16 -195 h-305zM172 1372q0 -25 5.5 -50t17.5 -52q6 -16 17 -23.5t21 -7.5q2 0 3.5 1t3.5 1q10 0 16 -94t6 -242q0 -29 -1 -56.5t-1 -55.5q0 -10 3 -16.5t8 -14.5t12.5 -23.5t15.5 -44.5q29 80 43 133.5t16 81.5l4 117q12 -6 19 -6q2 0 3 1t3 1q4 -125 16 -125q8 0 25 104q31 0 41 29 q8 -162 20 -162q2 0 5.5 29t8.5 72t9 93t8 92t6 69.5t2 25.5q25 -59 45 -59q14 0 21.5 25.5t11.5 64.5t5 83t1 81q0 84 -1 149.5t-12 109.5t-39 67.5t-81 23.5q-74 0 -112.5 -4t-63.5 -21q-20 0 -37.5 -29.5t-32 -73.5t-25.5 -95t-18.5 -95t-12.5 -74zM260 1853q2 18 5 41 t20 39l18 19q20 20 49 29.5t56 11.5q6 0 30.5 -5.5t52 -14.5t49 -23.5t23.5 -34.5q0 -12 -7 -19.5t-13 -7.5l-2 -2q12 -22 12 -53q0 -53 -40 -87t-95 -34q-47 0 -85 27.5t-48 75.5q-16 0 -20.5 9t-4.5 29zM278 1855q0 -20 19 -20q21 0 29 20q2 25 16 36.5t33.5 17.5t41 9 t38.5 7q20 -4 33.5 -18.5t23.5 -14.5q23 0 22 23q0 14 -11 24.5t-26.5 17.5t-33 10t-27.5 3q-47 0 -92 -24.5t-63 -63.5zM283 293q0 -23 18 -37l6 -6q23 -31 55 -31q10 0 33 5t45.5 14.5t40 20.5t17.5 24q0 14 -9.5 31.5t-23.5 31.5t-28.5 23.5t-26.5 9.5h-13q-8 4 -14 4 q-10 0 -27.5 -9t-34 -22.5t-27.5 -30t-11 -28.5zM348 1841q12 -2 17 -20l2 2q12 10 34 10q20 0 45 -13.5t33 -17.5q8 15 8 33q0 68 -69 68q-68 0 -70 -62zM354 1794q1 -16 17 -20q6 -12 20 -13q8 0 12 2q20 -8 29 -8q29 0 29 25q0 16 -31 27.5t-49 11.5q-14 0 -20.5 -7.5 t-6.5 -17.5zM367 420l32 6q10 0 20.5 -5t18.5 -11h11l-19 286h-45z" />
<glyph unicode="&#xc6;" horiz-adv-x="1329" d="M12 -2l170 1202q-23 0 -36 14.5t-19 35t-8 45t-2 44.5q0 47 15 129t40 161t52.5 137.5t51.5 58.5q23 0 37 -15q57 41 129 41q61 0 115 -30q86 -41 128 -51.5t71 -10.5q14 0 27.5 1t29.5 1h369q51 0 65.5 -33.5t14.5 -64.5q0 -233 -11 -250q-6 -16 -23.5 -30.5 t-37.5 -14.5l-39 10l-8 21h-242v-324q102 23 143 23q43 0 52.5 -30t9.5 -67v-38q0 -31 -7 -82.5t-18.5 -100.5t-26 -85t-28.5 -36q-16 0 -30.5 10.5t-16.5 28.5h-78v-336q37 4 96.5 9.5t137.5 5.5q55 0 84.5 -9.5t43 -26.5t14.5 -38.5t1 -46.5q0 -14 -4 -57t-13.5 -89.5 t-23.5 -83t-33 -36.5q-16 0 -30 10h-699l-14 193h-127l-17 -195h-305zM160 1374q-1 -47 22 -104q14 -31 39 -31q2 0 4 1t4 1q10 0 15.5 -90t5.5 -233q0 -29 -1 -61t-1 -62q0 -12 3 -18.5t8 -14.5t12.5 -23.5t15.5 -44.5q29 80 43 133.5t16 81.5l6 117q12 -6 17 -6q2 0 3 1 t3 1q6 -125 16 -125q12 0 25 104q31 0 43 29q8 -162 20 -162q2 0 5 29t7.5 72t9.5 93t8 93t5 69.5t2 24.5q12 -29 24.5 -52t45.5 -23q12 0 22 6l10 -66h7q16 0 47 41q63 -74 86 -74q14 0 27.5 9.5t17.5 31.5q10 100 12 198.5t10 197.5l35 12q14 -25 39 -40t51 -15 q6 0 28.5 6t49.5 14t50.5 17.5t29.5 15.5q10 -16 14 -35.5t10.5 -37t15.5 -30t28 -12.5q25 0 34 11.5t11 38t2 70.5t8 109v7q0 23 -13.5 35t-33 18t-42 8t-38.5 2q-14 0 -42 -1t-62.5 -2t-72.5 -2t-75 -1q-66 0 -122 13.5t-104 30.5t-89 30.5t-78 13.5q-182 0 -207 -49 l-35 -94q-57 -227 -57 -277zM272 293q0 -20 17 -37l8 -6q20 -31 55 -31q10 0 33 5t45.5 14.5t39.5 20.5t17 24q0 14 -10 30.5t-23.5 30.5t-28.5 24.5t-28 10.5h-10q-12 4 -16 4q-10 0 -27.5 -9t-33 -22.5t-27 -29t-11.5 -29.5zM354 420l33 6q23 0 39 -16l61 -23v320 l-114 -11zM860 1032q2 -10 12.5 -36.5t32.5 -69.5l88 -162q8 -35 45 -35q27 82 37 133t10 74l-6 84q0 10 -7 22.5t-15 18.5l-156 -8q-14 0 -27.5 -5.5t-13.5 -15.5zM901 272q0 -27 25 -39l20 -12q14 -31 18.5 -46t10.5 -23.5t24.5 -13.5t65.5 -13q45 -8 64.5 -20.5 t27.5 -22.5t13.5 -18.5t25.5 -8.5q18 0 57 174q0 25 -4 48.5t-18 40t-39 26.5t-66 10q-88 0 -133 -6t-63.5 -15t-19.5 -17.5t-1 -12.5q-8 -10 -8 -31zM913 926l11 -2q-2 -2 -4 -2z" />
<glyph unicode="&#xc7;" horiz-adv-x="1044" d="M88 1343q0 88 39 165t105.5 135.5t153.5 92t183 33.5q86 0 165 -33.5t138 -105.5q41 -76 57.5 -157.5t16.5 -167.5t-8 -171t-14 -167q-10 -23 -31 -34t-45 -11q-25 0 -44.5 11t-23.5 36v6h-192v358q0 66 -66 66q-63 0 -63 -66v-938q31 31 73 31q27 0 56 -14v98 q-16 2 -25.5 18.5t-14.5 39t-6 49t-1 47.5q0 43 20.5 72.5t54 48t74.5 27.5t82 9q27 0 57.5 -7t57 -25.5t43 -51t16.5 -84.5q0 -43 -12 -86t-39 -80v-116q0 -78 -29.5 -145.5t-80 -118t-119 -79t-144.5 -28.5t-143.5 28.5t-118.5 78t-80.5 117t-32.5 147.5v798l-41 66 q-18 51 -18 108zM115 1346q0 -18 1 -39t7 -39.5t21 -30.5t44 -14q8 -4 13 -4q2 0 14 4q8 -43 20.5 -75t53.5 -32q8 0 20 6q-2 -23 -2 -42v-38q0 -16 1 -38.5t6 -43t15.5 -35t28.5 -14.5q37 0 46.5 27t9.5 59q0 68 -2 134.5t-2 134.5q0 35 4 66.5t19.5 58t44 46t77.5 27.5 q12 -12 30.5 -24.5t39.5 -12.5q16 0 32 15q14 -27 16.5 -80t5.5 -108.5t13 -99.5t41 -50q-2 -4 -2 -14q0 -16 7 -31t16.5 -24t17.5 -14t10 -5h4q0 -8 12.5 -25.5t30.5 -17.5q23 0 50.5 23.5t27.5 45.5q0 25 -3 49.5t-3 49.5q0 63 6 126.5t6 125.5q0 63 -17 125.5t-57 112.5 t-103.5 82t-153.5 32q-86 0 -169 -32t-149.5 -85t-107.5 -127t-41 -155zM399 -231q117 14 117 73q0 14 -6.5 41t-6.5 41q0 41 45 86h43q-29 -45 -28 -67q0 -12 12 -26.5t27.5 -34t29 -45t13.5 -62.5q0 -131 -152 -131q-39 0 -94 6v119zM424 303q0 -20 23.5 -49t64.5 -29 q0 -8 -1 -14t-1 -14q0 -59 45 -60q35 0 43 30t8 66v70q0 14 -2 16v5q0 29 -26.5 48t-53.5 19q-35 0 -64.5 -20.5t-33.5 -55.5q0 -4 -1 -6t-1 -6zM567 643q0 -39 18.5 -69.5t61.5 -34.5q4 -29 4 -66t3 -71.5t13.5 -58.5t37.5 -24q16 0 30 15q0 -18 -1 -35.5t-1 -36.5 q0 -27 14.5 -38t30.5 -11q18 0 32.5 11.5t14.5 37.5q4 61 11.5 125t19.5 127l6 6q27 23 38 48.5t11 54.5q0 31 -12 60.5t-32.5 52t-48 36.5t-60.5 14q-25 0 -64 -11t-63 -40q-6 2 -15 2q-33 0 -41 -39q-8 -25 -8 -55z" />
<glyph unicode="&#xc8;" d="M74 1333q0 29 2 83t6 140l-4 74q0 53 16.5 95t79.5 49q68 -12 145 -13l193 2q45 -2 70.5 -4t41 -4t27 -4t25.5 -2l112 12q25 0 41.5 -10t24.5 -24.5t11 -32t3 -31.5q0 -233 -10 -250q-6 -16 -23.5 -30.5t-37.5 -14.5l-39 10l-8 21h-312v-324q45 18 97 19l92 16 q45 0 65.5 -28.5t20.5 -80.5v-38q0 -31 -7.5 -82.5t-18.5 -100.5t-26.5 -85t-29.5 -36t-28.5 10.5t-16.5 28.5h-148v-336q61 10 126 20.5t130 10.5q33 0 67 -3t61.5 -16.5t45 -41t17.5 -76.5q0 -14 -4 -57t-13.5 -89.5t-24 -83t-32.5 -36.5q-20 0 -31 10h-651v1085 q-31 2 -39 58.5t-16 189.5zM111 1329q0 -59 6 -80v-88q0 -25 13 -36t32 -11q16 0 47 41q63 -74 86 -74q14 0 27.5 9.5t17.5 31.5q10 100 12 198.5t10 197.5l35 12q14 -25 39 -40t51 -15q18 0 28.5 6t21 14t23.5 14.5t38 6.5q29 0 41 32l2 -10q12 -25 39 -25q20 0 35 15 q10 -16 14 -35.5t10 -37t15.5 -30t27.5 -12.5q25 0 34 11.5t11 39t2 70.5t9 108v7q0 31 -23.5 44t-56.5 17t-64.5 4t-50.5 6q-63 -14 -129 -14q-80 0 -156.5 11.5t-156.5 15.5q-23 -4 -52.5 -19.5t-29.5 -44.5l-6 -260q0 -23 -1 -43t-1 -37zM377 1927q0 31 39 31 q78 0 123 -23.5t45 -40.5q0 -12 -14 -12l-2 -16q0 -4 -2 -4l14 -52h-78q-18 8 -39.5 16.5t-41 20t-32 30.5t-12.5 50zM396 1905q0 -14 16 -24.5t29 -10.5l63 -10q8 -2 15.5 -2h13.5q33 0 33 16q0 20 -13.5 30.5t-33 14.5t-41 7t-37.5 11q-8 0 -19 -10h-6q-10 0 -15 -7 t-5 -15zM397 1032q0 -23 45 -106q94 -70 121 -70q10 0 23 6q0 -18 2 -41.5t7 -44t16.5 -34t33.5 -13.5q25 78 36 128t11 73q0 59 -6 86.5t-17.5 38t-27.5 11.5t-39 9q-19 -12 -164 -22q-14 0 -27.5 -5.5t-13.5 -15.5zM438 272q0 -27 25 -39l20 -12q6 -12 11.5 -25.5 t12.5 -25.5t18.5 -20.5t29.5 -8.5q29 0 45 10.5t27 22.5q8 14 12 35l4 2q16 -4 33 -14h33q23 -10 29.5 -33t12 -47.5t15.5 -43t37 -18.5q18 0 57 174q0 27 -5 49.5t-19.5 40t-41 26.5t-69.5 9q-96 0 -152.5 -4t-85 -11t-36 -14.5t-7.5 -13.5q0 -2 1 -4t1 -4q-8 -10 -8 -31z M451 926l10 -2q-2 -2 -4 -2z" />
<glyph unicode="&#xc9;" d="M74 1333q0 29 2 83t6 140l-4 74q0 53 16.5 95t79.5 49q68 -12 145 -13l193 2q45 -2 70.5 -4t41 -4t27 -4t25.5 -2l112 12q25 0 41.5 -10t24.5 -24.5t11 -32t3 -31.5q0 -233 -10 -250q-6 -16 -23.5 -30.5t-37.5 -14.5l-39 10l-8 21h-312v-324q45 18 97 19l92 16 q45 0 65.5 -28.5t20.5 -80.5v-38q0 -31 -7.5 -82.5t-18.5 -100.5t-26.5 -85t-29.5 -36t-28.5 10.5t-16.5 28.5h-148v-336q61 10 126 20.5t130 10.5q33 0 67 -3t61.5 -16.5t45 -41t17.5 -76.5q0 -14 -4 -57t-13.5 -89.5t-24 -83t-32.5 -36.5q-20 0 -31 10h-651v1085 q-31 2 -39 58.5t-16 189.5zM111 1329q0 -59 6 -80v-88q0 -25 13 -36t32 -11q16 0 47 41q63 -74 86 -74q14 0 27.5 9.5t17.5 31.5q10 100 12 198.5t10 197.5l35 12q14 -25 39 -40t51 -15q18 0 28.5 6t21 14t23.5 14.5t38 6.5q29 0 41 32l2 -10q12 -25 39 -25q20 0 35 15 q10 -16 14 -35.5t10 -37t15.5 -30t27.5 -12.5q25 0 34 11.5t11 39t2 70.5t9 108v7q0 31 -23.5 44t-56.5 17t-64.5 4t-50.5 6q-63 -14 -129 -14q-80 0 -156.5 11.5t-156.5 15.5q-23 -4 -52.5 -19.5t-29.5 -44.5l-6 -260q0 -23 -1 -43t-1 -37zM369 1882q0 35 22.5 61.5 t57.5 32.5h14q14 0 39.5 -1t50.5 -7t43 -17.5t18 -29.5q-6 -23 -16 -30t-27 -7l-73 -74h-49q-14 -10 -29 -10q-10 0 -22.5 7.5t-12.5 23.5v4q-16 23 -16 47zM389 1872q0 -17 4 -25q6 -20 23 -20q8 0 15 8t16.5 19.5t22.5 22.5t32 15q4 0 6 2h10q10 10 21.5 13.5t11.5 19.5 q0 10 -16.5 19.5t-32.5 9.5q-41 0 -77 -22.5t-36 -61.5zM397 1032q0 -23 45 -106q94 -70 121 -70q10 0 23 6q0 -18 2 -41.5t7 -44t16.5 -34t33.5 -13.5q25 78 36 128t11 73q0 59 -6 86.5t-17.5 38t-27.5 11.5t-39 9q-19 -12 -164 -22q-14 0 -27.5 -5.5t-13.5 -15.5zM438 272 q0 -27 25 -39l20 -12q6 -12 11.5 -25.5t12.5 -25.5t18.5 -20.5t29.5 -8.5q29 0 45 10.5t27 22.5q8 14 12 35l4 2q16 -4 33 -14h33q23 -10 29.5 -33t12 -47.5t15.5 -43t37 -18.5q18 0 57 174q0 27 -5 49.5t-19.5 40t-41 26.5t-69.5 9q-96 0 -152.5 -4t-85 -11t-36 -14.5 t-7.5 -13.5q0 -2 1 -4t1 -4q-8 -10 -8 -31zM451 926l10 -2q-2 -2 -4 -2z" />
<glyph unicode="&#xca;" d="M74 1333q0 29 2 83t6 140l-4 74q0 53 16.5 95t79.5 49q68 -12 145 -13l193 2q45 -2 70.5 -4t41 -4t27 -4t25.5 -2l112 12q25 0 41.5 -10t24.5 -24.5t11 -32t3 -31.5q0 -233 -10 -250q-6 -16 -23.5 -30.5t-37.5 -14.5l-39 10l-8 21h-312v-324q45 18 97 19l92 16 q45 0 65.5 -28.5t20.5 -80.5v-38q0 -31 -7.5 -82.5t-18.5 -100.5t-26.5 -85t-29.5 -36t-28.5 10.5t-16.5 28.5h-148v-336q61 10 126 20.5t130 10.5q33 0 67 -3t61.5 -16.5t45 -41t17.5 -76.5q0 -14 -4 -57t-13.5 -89.5t-24 -83t-32.5 -36.5q-20 0 -31 10h-651v1085 q-31 2 -39 58.5t-16 189.5zM111 1329q0 -59 6 -80v-88q0 -25 13 -36t32 -11q16 0 47 41q63 -74 86 -74q14 0 27.5 9.5t17.5 31.5q10 100 12 198.5t10 197.5l35 12q14 -25 39 -40t51 -15q18 0 28.5 6t21 14t23.5 14.5t38 6.5q29 0 41 32l2 -10q12 -25 39 -25q20 0 35 15 q10 -16 14 -35.5t10 -37t15.5 -30t27.5 -12.5q25 0 34 11.5t11 39t2 70.5t9 108v7q0 31 -23.5 44t-56.5 17t-64.5 4t-50.5 6q-63 -14 -129 -14q-80 0 -156.5 11.5t-156.5 15.5q-23 -4 -52.5 -19.5t-29.5 -44.5l-6 -260q0 -23 -1 -43t-1 -37zM258 1780v14q18 33 46 61.5 t61.5 50t69.5 34t69 12.5q43 0 80 -19.5t62.5 -43t40.5 -43t15 -21.5q0 -6 -6 -14.5t-8 -12.5l8 -12l-129 45q-10 -27 -35 -27q-14 0 -22 8l-10 19l-80 -2l-43 -43h-35q-12 -10 -27.5 -19.5t-33.5 -9.5q-23 0 -23 23zM291 1819q0 -23 24 -23q10 0 28.5 17.5t57.5 44.5 l101 -17q8 -6 22 -6q16 0 22.5 11.5t20.5 19.5q2 -2 11 -2l10 -6q8 -16 24 -31q41 6 41 18q0 18 -16 33.5t-40 27t-51.5 17.5t-49.5 6q-25 0 -60 -9t-67.5 -24.5t-55 -36t-22.5 -40.5zM397 1032q0 -23 45 -106q94 -70 121 -70q10 0 23 6q0 -18 2 -41.5t7 -44t16.5 -34 t33.5 -13.5q25 78 36 128t11 73q0 59 -6 86.5t-17.5 38t-27.5 11.5t-39 9q-19 -12 -164 -22q-14 0 -27.5 -5.5t-13.5 -15.5zM438 272q0 -27 25 -39l20 -12q6 -12 11.5 -25.5t12.5 -25.5t18.5 -20.5t29.5 -8.5q29 0 45 10.5t27 22.5q8 14 12 35l4 2q16 -4 33 -14h33 q23 -10 29.5 -33t12 -47.5t15.5 -43t37 -18.5q18 0 57 174q0 27 -5 49.5t-19.5 40t-41 26.5t-69.5 9q-96 0 -152.5 -4t-85 -11t-36 -14.5t-7.5 -13.5q0 -2 1 -4t1 -4q-8 -10 -8 -31zM451 926l10 -2q-2 -2 -4 -2z" />
<glyph unicode="&#xcb;" d="M74 1333q0 29 2 83t6 140l-4 74q0 53 16.5 95t79.5 49q68 -12 145 -13l193 2q45 -2 70.5 -4t41 -4t27 -4t25.5 -2l112 12q25 0 41.5 -10t24.5 -24.5t11 -32t3 -31.5q0 -233 -10 -250q-6 -16 -23.5 -30.5t-37.5 -14.5l-39 10l-8 21h-312v-324q45 18 97 19l92 16 q45 0 65.5 -28.5t20.5 -80.5v-38q0 -31 -7.5 -82.5t-18.5 -100.5t-26.5 -85t-29.5 -36t-28.5 10.5t-16.5 28.5h-148v-336q61 10 126 20.5t130 10.5q33 0 67 -3t61.5 -16.5t45 -41t17.5 -76.5q0 -14 -4 -57t-13.5 -89.5t-24 -83t-32.5 -36.5q-20 0 -31 10h-651v1085 q-31 2 -39 58.5t-16 189.5zM111 1329q0 -59 6 -80v-88q0 -25 13 -36t32 -11q16 0 47 41q63 -74 86 -74q14 0 27.5 9.5t17.5 31.5q10 100 12 198.5t10 197.5l35 12q14 -25 39 -40t51 -15q18 0 28.5 6t21 14t23.5 14.5t38 6.5q29 0 41 32l2 -10q12 -25 39 -25q20 0 35 15 q10 -16 14 -35.5t10 -37t15.5 -30t27.5 -12.5q25 0 34 11.5t11 39t2 70.5t9 108v7q0 31 -23.5 44t-56.5 17t-64.5 4t-50.5 6q-63 -14 -129 -14q-80 0 -156.5 11.5t-156.5 15.5q-23 -4 -52.5 -19.5t-29.5 -44.5l-6 -260q0 -23 -1 -43t-1 -37zM221 1874q0 35 29 61.5t63 26.5 q20 0 45 -6t45.5 -17.5t34 -28t13.5 -36.5q0 -16 -6 -29v-6q0 -59 -89 -59q-61 0 -98 23.5t-37 70.5zM254 1892q0 -16 5 -32.5t22 -16.5q6 0 10 2h6q2 -6 14 -6h9q14 -16 36 -16q23 0 40.5 14t17.5 37q0 27 -24.5 37t-92.5 10q-31 0 -37 -8t-6 -21zM397 1032q0 -23 45 -106 q94 -70 121 -70q10 0 23 6q0 -18 2 -41.5t7 -44t16.5 -34t33.5 -13.5q25 78 36 128t11 73q0 59 -6 86.5t-17.5 38t-27.5 11.5t-39 9q-19 -12 -164 -22q-14 0 -27.5 -5.5t-13.5 -15.5zM438 272q0 -27 25 -39l20 -12q6 -12 11.5 -25.5t12.5 -25.5t18.5 -20.5t29.5 -8.5 q29 0 45 10.5t27 22.5q8 14 12 35l4 2q16 -4 33 -14h33q23 -10 29.5 -33t12 -47.5t15.5 -43t37 -18.5q18 0 57 174q0 27 -5 49.5t-19.5 40t-41 26.5t-69.5 9q-96 0 -152.5 -4t-85 -11t-36 -14.5t-7.5 -13.5q0 -2 1 -4t1 -4q-8 -10 -8 -31zM451 926l10 -2q-2 -2 -4 -2z M512 1839q0 37 19.5 73t72.5 36q66 0 103 -25t37 -59q0 -18 -11.5 -31.5t-33.5 -13.5h-15q-8 -39 -82 -39q-90 0 -90 59zM553 1872q0 -12 10.5 -28.5t30.5 -16.5q10 0 19.5 12t19.5 12q4 0 18.5 -6t24.5 -10l33 25q12 8 12 22q0 6 -2 16.5t-8 12.5l-21 12q-47 6 -71 6 q-35 0 -50.5 -17.5t-15.5 -39.5z" />
<glyph unicode="&#xcc;" horiz-adv-x="610" d="M76 1448q0 37 2 91t9 104.5t22.5 87t40.5 36.5q4 0 7 -1t7 -1q6 6 98 17q4 -2 14 -2q35 0 70 15t64 15q53 -18 75.5 -37.5t29.5 -41t6 -45t5 -50.5q-4 -35 -5 -70.5t-1 -72.5v-125q0 -86 -9 -170t-50 -160v-1038h-307v1122l-23 6q-10 8 -32.5 93.5t-22.5 226.5zM106 1317 q74 -156 101 -156q4 0 15 -14t26 -14q-20 -43 -21 -89q0 -47 19.5 -78.5t42.5 -31.5q18 0 32.5 27.5t14.5 95.5h2q10 0 30.5 8t41 21.5t38 30t21.5 30.5q12 55 16 109.5t5.5 108.5t2.5 108.5t7 109.5q-4 27 -4 57.5t-5.5 57t-20.5 45t-52 18.5q-16 0 -30.5 -4t-31 -10 t-37 -10t-51.5 -4q-16 0 -31.5 2t-29.5 2q-35 0 -52.5 -28t-25.5 -82t-11.5 -132t-11.5 -178zM205 1927q0 31 39 31q78 0 123 -23.5t45 -40.5q0 -12 -14 -12l-2 -16q0 -4 -2 -4l14 -52h-78q-18 8 -39.5 16.5t-41 20t-32 30.5t-12.5 50zM224 1905q0 -14 16 -24.5t29 -10.5 l63 -10q8 -2 15.5 -2h13.5q33 0 33 16q0 20 -13.5 30.5t-33 14.5t-41 7t-37.5 11q-8 0 -19 -10h-6q-10 0 -15 -7t-5 -15z" />
<glyph unicode="&#xcd;" horiz-adv-x="610" d="M76 1448q0 37 2 91t9 104.5t22.5 87t40.5 36.5q4 0 7 -1t7 -1q6 6 98 17q4 -2 14 -2q35 0 70 15t64 15q53 -18 75.5 -37.5t29.5 -41t6 -45t5 -50.5q-4 -35 -5 -70.5t-1 -72.5v-125q0 -86 -9 -170t-50 -160v-1038h-307v1122l-23 6q-10 8 -32.5 93.5t-22.5 226.5zM106 1317 q74 -156 101 -156q4 0 15 -14t26 -14q-20 -43 -21 -89q0 -47 19.5 -78.5t42.5 -31.5q18 0 32.5 27.5t14.5 95.5h2q10 0 30.5 8t41 21.5t38 30t21.5 30.5q12 55 16 109.5t5.5 108.5t2.5 108.5t7 109.5q-4 27 -4 57.5t-5.5 57t-20.5 45t-52 18.5q-16 0 -30.5 -4t-31 -10 t-37 -10t-51.5 -4q-16 0 -31.5 2t-29.5 2q-35 0 -52.5 -28t-25.5 -82t-11.5 -132t-11.5 -178zM191 1882q0 35 22.5 61.5t57.5 32.5h14q14 0 39.5 -1t50.5 -7t43 -17.5t18 -29.5q-6 -23 -16 -30t-27 -7l-73 -74h-49q-14 -10 -29 -10q-10 0 -22.5 7.5t-12.5 23.5v4 q-16 23 -16 47zM211 1872q0 -17 4 -25q6 -20 23 -20q8 0 15 8t16.5 19.5t22.5 22.5t32 15q4 0 6 2h10q10 10 21.5 13.5t11.5 19.5q0 10 -16.5 19.5t-32.5 9.5q-41 0 -77 -22.5t-36 -61.5z" />
<glyph unicode="&#xce;" horiz-adv-x="610" d="M76 1448q0 37 2 91t9 104.5t22.5 87t40.5 36.5q4 0 7 -1t7 -1q6 6 98 17q4 -2 14 -2q35 0 70 15t64 15q53 -18 75.5 -37.5t29.5 -41t6 -45t5 -50.5q-4 -35 -5 -70.5t-1 -72.5v-125q0 -86 -9 -170t-50 -160v-1038h-307v1122l-23 6q-10 8 -32.5 93.5t-22.5 226.5zM86 1780 v14q18 33 46 61.5t61.5 50t69.5 34t69 12.5q43 0 80 -19.5t62.5 -43t40.5 -43t15 -21.5q0 -6 -6 -14.5t-8 -12.5l8 -12l-129 45q-10 -27 -35 -27q-14 0 -22 8l-10 19l-80 -2l-43 -43h-35q-12 -10 -27.5 -19.5t-33.5 -9.5q-23 0 -23 23zM106 1317q74 -156 101 -156 q4 0 15 -14t26 -14q-20 -43 -21 -89q0 -47 19.5 -78.5t42.5 -31.5q18 0 32.5 27.5t14.5 95.5h2q10 0 30.5 8t41 21.5t38 30t21.5 30.5q12 55 16 109.5t5.5 108.5t2.5 108.5t7 109.5q-4 27 -4 57.5t-5.5 57t-20.5 45t-52 18.5q-16 0 -30.5 -4t-31 -10t-37 -10t-51.5 -4 q-16 0 -31.5 2t-29.5 2q-35 0 -52.5 -28t-25.5 -82t-11.5 -132t-11.5 -178zM119 1819q0 -23 24 -23q10 0 28.5 17.5t57.5 44.5l101 -17q8 -6 22 -6q16 0 22.5 11.5t20.5 19.5q2 -2 11 -2l10 -6q8 -16 24 -31q41 6 41 18q0 18 -16 33.5t-40 27t-51.5 17.5t-49.5 6 q-25 0 -60 -9t-67.5 -24.5t-55 -36t-22.5 -40.5z" />
<glyph unicode="&#xcf;" horiz-adv-x="610" d="M51 1874q0 35 29 61.5t63 26.5q20 0 45 -6t45.5 -17.5t34 -28t13.5 -36.5q0 -16 -6 -29v-6q0 -59 -89 -59q-61 0 -98 23.5t-37 70.5zM76 1448q0 37 2 91t9 104.5t22.5 87t40.5 36.5q4 0 7 -1t7 -1q6 6 98 17q4 -2 14 -2q35 0 70 15t64 15q53 -18 75.5 -37.5t29.5 -41 t6 -45t5 -50.5q-4 -35 -5 -70.5t-1 -72.5v-125q0 -86 -9 -170t-50 -160v-1038h-307v1122l-23 6q-10 8 -32.5 93.5t-22.5 226.5zM84 1892q0 -16 5 -32.5t22 -16.5q6 0 10 2h6q2 -6 14 -6h9q14 -16 36 -16q23 0 40.5 14t17.5 37q0 27 -24.5 37t-92.5 10q-31 0 -37 -8t-6 -21z M106 1317q74 -156 101 -156q4 0 15 -14t26 -14q-20 -43 -21 -89q0 -47 19.5 -78.5t42.5 -31.5q18 0 32.5 27.5t14.5 95.5h2q10 0 30.5 8t41 21.5t38 30t21.5 30.5q12 55 16 109.5t5.5 108.5t2.5 108.5t7 109.5q-4 27 -4 57.5t-5.5 57t-20.5 45t-52 18.5q-16 0 -30.5 -4 t-31 -10t-37 -10t-51.5 -4q-16 0 -31.5 2t-29.5 2q-35 0 -52.5 -28t-25.5 -82t-11.5 -132t-11.5 -178zM342 1839q0 37 19.5 73t72.5 36q66 0 103 -25t37 -59q0 -18 -11.5 -31.5t-33.5 -13.5h-15q-8 -39 -82 -39q-90 0 -90 59zM383 1872q0 -12 10.5 -28.5t30.5 -16.5 q10 0 19.5 12t19.5 12q4 0 18.5 -6t24.5 -10l33 25q12 8 12 22q0 6 -2 16.5t-8 12.5l-21 12q-47 6 -71 6q-35 0 -50.5 -17.5t-15.5 -39.5z" />
<glyph unicode="&#xd1;" horiz-adv-x="1075" d="M82 1622q0 45 20.5 78t52 54.5t72.5 32.5t84 11q63 0 102.5 -19.5t60 -50t26.5 -70.5t6 -79q0 -23 -1 -45.5t-3 -44.5l53 -186q29 0 45 -25l6 -10v188q-12 4 -19 21.5t-10.5 40t-4.5 46t-1 42.5q0 25 3.5 58.5t13.5 63t30.5 51t55.5 21.5q41 0 83 -10t83 -10q14 0 27.5 3 t27.5 3q27 0 45 -14.5t29.5 -34t15.5 -42t4 -38.5q0 -41 -10 -84t-12 -82q-10 -37 -18.5 -86t-35.5 -80v-1325h-270l-166 532v-532h-309v1274q-53 25 -65.5 74t-12.5 108v64q0 29 -4 54t-4 48zM117 1450q0 -16 1 -42t8 -49.5t21.5 -39.5t42.5 -16q25 0 47.5 20t24.5 31 l2 -35q0 -18 15.5 -28.5t33.5 -10.5q20 0 32.5 15.5t18 37t6.5 46t1 44.5q2 -12 14 -28q6 -9 10 -17q2 -4 11.5 -34.5t26 -75.5t35.5 -96.5t41.5 -94.5t44 -71.5t42.5 -28.5q16 0 28.5 11t19.5 28.5t11 36t4 32.5q0 66 -38.5 120.5t-92.5 78.5q-12 12 -18 45t-14 55 q6 12 6 31q0 27 -7.5 55.5t-9.5 53.5q-8 39 -10 81t-15.5 76.5t-45 58t-99.5 23.5q-35 0 -69.5 -10t-63 -28.5t-46 -45t-17.5 -61.5q0 -14 2 -23q0 -39 -2 -74.5t-2 -70.5zM289 1829q0 29 15 55.5t42 46t61.5 30.5t73.5 11q72 0 99 -57q-16 10 -37 18.5t-43 8.5h-15l-27 -2 q-28 -3 -62 -14t-61.5 -34.5t-27.5 -68.5q0 -25 23 -25q18 0 26.5 15.5t20.5 33t35.5 32.5t72.5 15q25 0 45.5 -9t39 -19.5t37 -19.5t40.5 -9q27 0 53.5 9t49.5 22l6 26q0 12 -17 21q-90 -25 -114 -25q-4 0 -5.5 1t-3.5 1l-28 17q12 -2 22.5 -3t22.5 -5q86 33 121 32 q18 0 26 -19.5t8 -35.5q0 -25 -17 -47.5t-40 -22.5q-14 1 -24 9q-23 -31 -50 -31q-20 0 -61 29q-18 4 -39.5 3t-32.5 17q-8 14 -23.5 23.5t-33.5 13.5q-35 -8 -57 -80h-35q-12 -25 -39 -25q-47 0 -47 62zM594 1128l4 5l10 -31zM596 1593q0 -47 19.5 -85t76.5 -38q4 -4 8 -4 v-159q0 -41 7.5 -77t40.5 -36q18 0 33.5 11.5t15.5 37.5q0 39 -1 75t-1 75q10 -16 24.5 -34t36.5 -18q18 0 30.5 11.5t33.5 21.5q4 66 19 128.5t15 125.5q0 51 -16 71.5t-40 27t-51.5 4.5t-49.5 8h2q-10 4 -17.5 9t-15.5 5q-10 0 -14 -4q-25 18 -54 18q-35 0 -63.5 -23.5 t-28.5 -62.5v-6q-10 -41 -10 -82zM698 1667v2h2z" />
<glyph unicode="&#xd2;" horiz-adv-x="1034" d="M76 1307q0 45 28 86v20q0 45 16.5 82t63.5 51q0 12 12.5 45t34 67t51 60.5t62.5 26.5q8 0 13 -1t14 -3q25 33 63.5 47t77.5 14q35 0 74 -10t73.5 -25.5t60 -36t34.5 -38.5v-2q4 0 4 -2l4 -5l16 3q23 0 41 -19l6 -12h6q16 0 25.5 -15.5t17.5 -25.5l3 -8q25 -4 39 -24.5 t14 -49.5v-16q10 -6 12 -20.5t2 -31.5v-16q12 -10 12 -39v-25q-10 -25 -10 -47l10 -94q0 -23 -6 -35q6 -10 6 -22q0 -25 -18 -38t-45 -20v-757q0 -78 -29.5 -145.5t-80 -118t-119 -79t-144.5 -28.5t-143.5 28.5t-118.5 78t-81 117t-30 147.5v704q-18 12 -24 44t-12 57 q0 4 1 9t1 9l-2 18q-16 16 -25.5 46t-9.5 49zM156 1307q0 -27 9 -53.5t28 -45.5l28 -303q10 -43 47 -43q18 0 32.5 12.5t14.5 32.5v6q-6 41 -9 81t-7 79l2 -2q0 -20 12.5 -43.5t38.5 -28.5l23 -2q35 0 50 36t23.5 83t18.5 95.5t35 70.5q45 -2 70.5 -22.5t42 -49t28.5 -62.5 t31 -65l14 -2q6 -27 9 -68.5t11.5 -81.5t25 -68.5t48.5 -28.5q25 0 40.5 15t25.5 36.5t14 46t4 41.5l-10 121q20 33 21 77q0 35 -17 62q10 20 27.5 34.5t17.5 49.5q0 31 -13 57.5t-24 52.5q27 20 27 54q0 33 -19.5 56.5t-45 38.5t-54 23.5t-47.5 8.5q-8 0 -12 -2 q-8 14 -15.5 31.5t-15.5 33t-19.5 25.5t-25.5 10h-2q-41 41 -100 41q-37 0 -73 -16.5t-54 -47.5l-50 3q-37 0 -59 -21l-14 -14l-11 -13q-12 -14 -24 -34.5t-22.5 -44t-10.5 -43.5q-27 -10 -45 -34t-18 -50q0 -23 16 -43v-13q-18 -29 -18 -69zM409 1927q0 31 39 31 q78 0 123 -23.5t45 -40.5q0 -12 -14 -12l-2 -16q0 -4 -2 -4l14 -52h-78q-18 8 -39.5 16.5t-41 20t-32 30.5t-12.5 50zM428 1905q0 -14 16 -24.5t29 -10.5l63 -10q8 -2 15.5 -2h13.5q33 0 33 16q0 20 -13.5 30.5t-33 14.5t-41 7t-37.5 11q-8 0 -19 -10h-6q-10 0 -15 -7 t-5 -15zM457 371q0 -66 63 -66q66 0 66 66v676q-20 37 -29.5 78.5t-36.5 74.5q-8 -27 -12 -58.5t-8 -62t-13.5 -58.5t-29.5 -48v-602z" />
<glyph unicode="&#xd3;" horiz-adv-x="1034" d="M76 1307q0 45 28 86v20q0 45 16.5 82t63.5 51q0 12 12.5 45t34 67t51 60.5t62.5 26.5q8 0 13 -1t14 -3q25 33 63.5 47t77.5 14q35 0 74 -10t73.5 -25.5t60 -36t34.5 -38.5v-2q4 0 4 -2l4 -5l16 3q23 0 41 -19l6 -12h6q16 0 25.5 -15.5t17.5 -25.5l3 -8q25 -4 39 -24.5 t14 -49.5v-16q10 -6 12 -20.5t2 -31.5v-16q12 -10 12 -39v-25q-10 -25 -10 -47l10 -94q0 -23 -6 -35q6 -10 6 -22q0 -25 -18 -38t-45 -20v-757q0 -78 -29.5 -145.5t-80 -118t-119 -79t-144.5 -28.5t-143.5 28.5t-118.5 78t-81 117t-30 147.5v704q-18 12 -24 44t-12 57 q0 4 1 9t1 9l-2 18q-16 16 -25.5 46t-9.5 49zM156 1307q0 -27 9 -53.5t28 -45.5l28 -303q10 -43 47 -43q18 0 32.5 12.5t14.5 32.5v6q-6 41 -9 81t-7 79l2 -2q0 -20 12.5 -43.5t38.5 -28.5l23 -2q35 0 50 36t23.5 83t18.5 95.5t35 70.5q45 -2 70.5 -22.5t42 -49t28.5 -62.5 t31 -65l14 -2q6 -27 9 -68.5t11.5 -81.5t25 -68.5t48.5 -28.5q25 0 40.5 15t25.5 36.5t14 46t4 41.5l-10 121q20 33 21 77q0 35 -17 62q10 20 27.5 34.5t17.5 49.5q0 31 -13 57.5t-24 52.5q27 20 27 54q0 33 -19.5 56.5t-45 38.5t-54 23.5t-47.5 8.5q-8 0 -12 -2 q-8 14 -15.5 31.5t-15.5 33t-19.5 25.5t-25.5 10h-2q-41 41 -100 41q-37 0 -73 -16.5t-54 -47.5l-50 3q-37 0 -59 -21l-14 -14l-11 -13q-12 -14 -24 -34.5t-22.5 -44t-10.5 -43.5q-27 -10 -45 -34t-18 -50q0 -23 16 -43v-13q-18 -29 -18 -69zM393 1882q0 35 22.5 61.5 t57.5 32.5h14q14 0 39.5 -1t50.5 -7t43 -17.5t18 -29.5q-6 -23 -16 -30t-27 -7l-73 -74h-49q-14 -10 -29 -10q-10 0 -22.5 7.5t-12.5 23.5v4q-16 23 -16 47zM413 1872q0 -17 4 -25q6 -20 23 -20q8 0 15 8t16.5 19.5t22.5 22.5t32 15q4 0 6 2h10q10 10 21.5 13.5t11.5 19.5 q0 10 -16.5 19.5t-32.5 9.5q-41 0 -77 -22.5t-36 -61.5zM457 371q0 -66 63 -66q66 0 66 66v676q-20 37 -29.5 78.5t-36.5 74.5q-8 -27 -12 -58.5t-8 -62t-13.5 -58.5t-29.5 -48v-602z" />
<glyph unicode="&#xd4;" horiz-adv-x="1034" d="M76 1307q0 45 28 86v20q0 45 16.5 82t63.5 51q0 12 12.5 45t34 67t51 60.5t62.5 26.5q8 0 13 -1t14 -3q25 33 63.5 47t77.5 14q35 0 74 -10t73.5 -25.5t60 -36t34.5 -38.5v-2q4 0 4 -2l4 -5l16 3q23 0 41 -19l6 -12h6q16 0 25.5 -15.5t17.5 -25.5l3 -8q25 -4 39 -24.5 t14 -49.5v-16q10 -6 12 -20.5t2 -31.5v-16q12 -10 12 -39v-25q-10 -25 -10 -47l10 -94q0 -23 -6 -35q6 -10 6 -22q0 -25 -18 -38t-45 -20v-757q0 -78 -29.5 -145.5t-80 -118t-119 -79t-144.5 -28.5t-143.5 28.5t-118.5 78t-81 117t-30 147.5v704q-18 12 -24 44t-12 57 q0 4 1 9t1 9l-2 18q-16 16 -25.5 46t-9.5 49zM156 1307q0 -27 9 -53.5t28 -45.5l28 -303q10 -43 47 -43q18 0 32.5 12.5t14.5 32.5v6q-6 41 -9 81t-7 79l2 -2q0 -20 12.5 -43.5t38.5 -28.5l23 -2q35 0 50 36t23.5 83t18.5 95.5t35 70.5q45 -2 70.5 -22.5t42 -49t28.5 -62.5 t31 -65l14 -2q6 -27 9 -68.5t11.5 -81.5t25 -68.5t48.5 -28.5q25 0 40.5 15t25.5 36.5t14 46t4 41.5l-10 121q20 33 21 77q0 35 -17 62q10 20 27.5 34.5t17.5 49.5q0 31 -13 57.5t-24 52.5q27 20 27 54q0 33 -19.5 56.5t-45 38.5t-54 23.5t-47.5 8.5q-8 0 -12 -2 q-8 14 -15.5 31.5t-15.5 33t-19.5 25.5t-25.5 10h-2q-41 41 -100 41q-37 0 -73 -16.5t-54 -47.5l-50 3q-37 0 -59 -21l-14 -14l-11 -13q-12 -14 -24 -34.5t-22.5 -44t-10.5 -43.5q-27 -10 -45 -34t-18 -50q0 -23 16 -43v-13q-18 -29 -18 -69zM291 1780v14q18 33 46 61.5 t61.5 50t69.5 34t69 12.5q43 0 80 -19.5t62.5 -43t40.5 -43t15 -21.5q0 -6 -6 -14.5t-8 -12.5l8 -12l-129 45q-10 -27 -35 -27q-14 0 -22 8l-10 19l-80 -2l-43 -43h-35q-12 -10 -27.5 -19.5t-33.5 -9.5q-23 0 -23 23zM324 1819q0 -23 24 -23q10 0 28.5 17.5t57.5 44.5 l101 -17q8 -6 22 -6q16 0 22.5 11.5t20.5 19.5q2 -2 11 -2l10 -6q8 -16 24 -31q41 6 41 18q0 18 -16 33.5t-40 27t-51.5 17.5t-49.5 6q-25 0 -60 -9t-67.5 -24.5t-55 -36t-22.5 -40.5zM457 371q0 -66 63 -66q66 0 66 66v676q-20 37 -29.5 78.5t-36.5 74.5q-8 -27 -12 -58.5 t-8 -62t-13.5 -58.5t-29.5 -48v-602z" />
<glyph unicode="&#xd5;" horiz-adv-x="1034" d="M76 1307q0 45 28 86v20q0 45 16.5 82t63.5 51q0 12 12.5 45t34 67t51 60.5t62.5 26.5q8 0 13 -1t14 -3q25 33 63.5 47t77.5 14q35 0 74 -10t73.5 -25.5t60 -36t34.5 -38.5v-2q4 0 4 -2l4 -5l16 3q23 0 41 -19l6 -12h6q16 0 25.5 -15.5t17.5 -25.5l3 -8q25 -4 39 -24.5 t14 -49.5v-16q10 -6 12 -20.5t2 -31.5v-16q12 -10 12 -39v-25q-10 -25 -10 -47l10 -94q0 -23 -6 -35q6 -10 6 -22q0 -25 -18 -38t-45 -20v-757q0 -78 -29.5 -145.5t-80 -118t-119 -79t-144.5 -28.5t-143.5 28.5t-118.5 78t-81 117t-30 147.5v704q-18 12 -24 44t-12 57 q0 4 1 9t1 9l-2 18q-16 16 -25.5 46t-9.5 49zM156 1307q0 -27 9 -53.5t28 -45.5l28 -303q10 -43 47 -43q18 0 32.5 12.5t14.5 32.5v6q-6 41 -9 81t-7 79l2 -2q0 -20 12.5 -43.5t38.5 -28.5l23 -2q35 0 50 36t23.5 83t18.5 95.5t35 70.5q45 -2 70.5 -22.5t42 -49t28.5 -62.5 t31 -65l14 -2q6 -27 9 -68.5t11.5 -81.5t25 -68.5t48.5 -28.5q25 0 40.5 15t25.5 36.5t14 46t4 41.5l-10 121q20 33 21 77q0 35 -17 62q10 20 27.5 34.5t17.5 49.5q0 31 -13 57.5t-24 52.5q27 20 27 54q0 33 -19.5 56.5t-45 38.5t-54 23.5t-47.5 8.5q-8 0 -12 -2 q-8 14 -15.5 31.5t-15.5 33t-19.5 25.5t-25.5 10h-2q-41 41 -100 41q-37 0 -73 -16.5t-54 -47.5l-50 3q-37 0 -59 -21l-14 -14l-11 -13q-12 -14 -24 -34.5t-22.5 -44t-10.5 -43.5q-27 -10 -45 -34t-18 -50q0 -23 16 -43v-13q-18 -29 -18 -69zM269 1829q0 29 15 55.5t42 46 t61.5 30.5t73.5 11q72 0 99 -57q-16 10 -37 18.5t-43 8.5h-15l-27 -2q-28 -3 -62 -14t-61.5 -34.5t-27.5 -68.5q0 -25 23 -25q18 0 26.5 15.5t20.5 33t35.5 32.5t72.5 15q25 0 45.5 -9t39 -19.5t37 -19.5t40.5 -9q27 0 53.5 9t49.5 22l6 26q0 12 -17 21q-90 -25 -114 -25 q-4 0 -5.5 1t-3.5 1l-28 17q12 -2 22.5 -3t22.5 -5q86 33 121 32q18 0 26 -19.5t8 -35.5q0 -25 -17 -47.5t-40 -22.5q-14 1 -24 9q-23 -31 -50 -31q-20 0 -61 29q-18 4 -39.5 3t-32.5 17q-8 14 -23.5 23.5t-33.5 13.5q-35 -8 -57 -80h-35q-12 -25 -39 -25q-47 0 -47 62z M457 371q0 -66 63 -66q66 0 66 66v676q-20 37 -29.5 78.5t-36.5 74.5q-8 -27 -12 -58.5t-8 -62t-13.5 -58.5t-29.5 -48v-602z" />
<glyph unicode="&#xd6;" horiz-adv-x="1034" d="M76 1307q0 45 28 86v20q0 45 16.5 82t63.5 51q0 12 12.5 45t34 67t51 60.5t62.5 26.5q8 0 13 -1t14 -3q25 33 63.5 47t77.5 14q35 0 74 -10t73.5 -25.5t60 -36t34.5 -38.5v-2q4 0 4 -2l4 -5l16 3q23 0 41 -19l6 -12h6q16 0 25.5 -15.5t17.5 -25.5l3 -8q25 -4 39 -24.5 t14 -49.5v-16q10 -6 12 -20.5t2 -31.5v-16q12 -10 12 -39v-25q-10 -25 -10 -47l10 -94q0 -23 -6 -35q6 -10 6 -22q0 -25 -18 -38t-45 -20v-757q0 -78 -29.5 -145.5t-80 -118t-119 -79t-144.5 -28.5t-143.5 28.5t-118.5 78t-81 117t-30 147.5v704q-18 12 -24 44t-12 57 q0 4 1 9t1 9l-2 18q-16 16 -25.5 46t-9.5 49zM156 1307q0 -27 9 -53.5t28 -45.5l28 -303q10 -43 47 -43q18 0 32.5 12.5t14.5 32.5v6q-6 41 -9 81t-7 79l2 -2q0 -20 12.5 -43.5t38.5 -28.5l23 -2q35 0 50 36t23.5 83t18.5 95.5t35 70.5q45 -2 70.5 -22.5t42 -49t28.5 -62.5 t31 -65l14 -2q6 -27 9 -68.5t11.5 -81.5t25 -68.5t48.5 -28.5q25 0 40.5 15t25.5 36.5t14 46t4 41.5l-10 121q20 33 21 77q0 35 -17 62q10 20 27.5 34.5t17.5 49.5q0 31 -13 57.5t-24 52.5q27 20 27 54q0 33 -19.5 56.5t-45 38.5t-54 23.5t-47.5 8.5q-8 0 -12 -2 q-8 14 -15.5 31.5t-15.5 33t-19.5 25.5t-25.5 10h-2q-41 41 -100 41q-37 0 -73 -16.5t-54 -47.5l-50 3q-37 0 -59 -21l-14 -14l-11 -13q-12 -14 -24 -34.5t-22.5 -44t-10.5 -43.5q-27 -10 -45 -34t-18 -50q0 -23 16 -43v-13q-18 -29 -18 -69zM256 1874q0 35 29 61.5t63 26.5 q20 0 45 -6t45.5 -17.5t34 -28t13.5 -36.5q0 -16 -6 -29v-6q0 -59 -89 -59q-61 0 -98 23.5t-37 70.5zM289 1892q0 -16 5 -32.5t22 -16.5q6 0 10 2h6q2 -6 14 -6h9q14 -16 36 -16q23 0 40.5 14t17.5 37q0 27 -24.5 37t-92.5 10q-31 0 -37 -8t-6 -21zM457 371q0 -66 63 -66 q66 0 66 66v676q-20 37 -29.5 78.5t-36.5 74.5q-8 -27 -12 -58.5t-8 -62t-13.5 -58.5t-29.5 -48v-602zM547 1839q0 37 19.5 73t72.5 36q66 0 103 -25t37 -59q0 -18 -11.5 -31.5t-33.5 -13.5h-15q-8 -39 -82 -39q-90 0 -90 59zM588 1872q0 -12 10.5 -28.5t30.5 -16.5 q10 0 19.5 12t19.5 12q4 0 18.5 -6t24.5 -10l33 25q12 8 12 22q0 6 -2 16.5t-8 12.5l-21 12q-47 6 -71 6q-35 0 -50.5 -17.5t-15.5 -39.5z" />
<glyph unicode="&#xd8;" horiz-adv-x="1034" d="M76 1307q0 45 28 86v20q0 45 16.5 82t63.5 51q0 10 12.5 43t34 68t50 61.5t63.5 26.5q8 0 13 -1t14 -3q25 33 63.5 47t77.5 14q27 0 60.5 -7t65.5 -19.5t58.5 -27.5t40.5 -32l4 -4q4 18 29 43t45 25q10 0 21.5 -8.5t23.5 -30.5v-21q0 -39 -10 -75l6 -7q4 -6 9 -13t9 -11 l3 -8q53 -10 53 -74v-16q10 -6 12 -20.5t2 -31.5v-16q12 -10 12 -39v-25q-10 -16 -10 -47l10 -94q0 -14 -6 -35l6 -22q0 -25 -18 -38t-45 -20v-757q0 -78 -29.5 -145.5t-80 -118t-119 -79t-144.5 -28.5q-111 0 -194 51q2 -8 2 -24v-23q0 -39 -19.5 -78t-40.5 -39 q-59 18 -76.5 47t-17.5 54v55q0 47 8 82l13 59q-47 90 -48 187v704q-16 8 -24 42t-12 59q0 4 1 9t1 9l-2 18q-18 12 -26.5 43t-8.5 52zM156 1307q0 -27 9 -53.5t28 -45.5l28 -303q10 -43 47 -43q18 0 32.5 12.5t14.5 32.5v6q-6 41 -9 81t-7 79l2 -2q0 -23 12.5 -45t38.5 -27 l23 -2q35 0 49 36t23.5 83t19.5 95.5t35 70.5q25 -4 38 -10t35 -19q-59 -180 -98 -360t-100 -361q-25 -53 -53.5 -109t-54 -115.5t-43 -119t-17.5 -116.5q0 -49 21.5 -86t37.5 -37q2 0 6 12q72 375 113 488q45 92 87 209.5t75 227t54.5 193.5t25.5 109l12 -37q8 -33 33 -68 l14 -2q6 -27 9 -68.5t10.5 -81.5t24 -68.5t50.5 -28.5q23 0 39.5 14t26.5 35.5t14 46t4 43.5l-10 121q20 33 21 77q0 39 -17 62q10 18 27.5 33.5t17.5 50.5q0 31 -13 57.5t-24 52.5q27 20 27 54q0 39 -30.5 68.5t-63.5 39.5q23 45 31 75t8 65q0 20 -6 20q-18 0 -34 -16.5 t-28 -40t-21.5 -47t-17.5 -37.5h-4q-10 0 -12 -2q-8 14 -15.5 31.5t-15.5 33t-19.5 25.5t-25.5 10h-2q-41 41 -100 41q-37 0 -73 -16.5t-54 -47.5l-39 3q-37 2 -64.5 -22t-47 -53.5t-30 -58t-10.5 -36.5q-27 -10 -45 -34t-18 -50q0 -27 16 -43v-13q-18 -31 -18 -69zM457 371 q0 -66 63 -66q66 0 66 66v479l-129 -397v-82z" />
<glyph unicode="&#xd9;" horiz-adv-x="1054" d="M76 1440q0 61 6 122.5t6 120.5v31q41 53 107 82q23 0 36 -9t25 -11q27 4 52.5 6t51.5 2q39 0 77 -7.5t75 -27.5l14 -39q-14 -37 -16 -72.5t-2 -72.5t-2 -73t-14 -71q0 -4 1 -6t1 -6q0 -23 -7.5 -46.5t-7.5 -45.5q0 -61 10.5 -127t14.5 -127l-17 -16q-4 -16 -7 -34 t-17 -30l-2 -2v-565l14 -13q39 31 88 31q16 0 27 -2v903q-4 8 -4 15q0 4 4 16v47l-19 70q-31 12 -30 49v72q0 100 48 134t126 34q27 0 37 -3q20 12 41 13q74 0 105.5 -31t41.5 -76t8 -96t8 -94q16 -25 17 -55q0 -41 -13.5 -88.5t-13.5 -94.5q0 -33 4 -65.5t4 -65.5 q0 -39 -14 -87t-43 -71v-587q0 -78 -29.5 -144.5t-80 -118t-118 -80t-143.5 -28.5q-78 0 -145.5 28.5t-118.5 79t-79.5 118t-28.5 145.5v518q-31 18 -37 51t-21 59q14 43 15 97q0 35 -7 71q2 27 2 52.5v52.5q0 29 -15 70.5t-15 97.5zM100 1464q0 -29 23 -39l-6 -22 q33 -57 36 -128t5 -141.5t20.5 -133t81.5 -105.5q2 -10 3 -22.5t1 -22.5q0 -35 -5 -68.5t-5 -66.5q0 -35 10 -68t39 -33q16 0 42 14.5t26 43.5q0 4 -1 5t-1 5q0 76 11 151.5t23 145.5q20 27 36 55.5t16 63.5q0 10 -4 30q4 27 5 52.5t1 52.5q0 51 -3 101t-3 100q0 49 6 98 t26 98v23q0 33 -9 44t-24.5 15t-34 7t-36.5 22q-12 -10 -31 -10q-12 0 -23.5 2t-23.5 2q-27 0 -39 -19q-47 -4 -78.5 -14t-50 -37t-26 -75t-7.5 -126zM270 692h2v-4zM422 1927q0 31 39 31q78 0 123 -23.5t45 -40.5q0 -12 -14 -12l-2 -16q0 -4 -2 -4l14 -52h-78 q-18 8 -39.5 16.5t-41 20t-32 30.5t-12.5 50zM441 1905q0 -14 16 -24.5t29 -10.5l63 -10q8 -2 15.5 -2h13.5q33 0 33 16q0 20 -13.5 30.5t-33 14.5t-41 7t-37.5 11q-8 0 -19 -10h-6q-10 0 -15 -7t-5 -15zM465 303q0 -23 13.5 -35t31.5 -12q10 0 22 6q2 -20 14.5 -29.5 t28.5 -9.5q27 0 41.5 22.5t14.5 57.5q0 31 -21.5 61.5t-50.5 30.5q-8 0 -14 -2q-29 -8 -54.5 -31.5t-25.5 -58.5zM590 1614q0 -37 14 -82t60 -59q8 -47 10 -92.5t2 -90.5q0 -72 -2 -140.5t-2 -139.5q0 -33 7 -59.5t38 -26.5q20 0 35 14q-4 -86 -7.5 -172t-3.5 -172 q0 -25 13.5 -36t29.5 -11q18 0 34 11t16 36q0 141 7 273t7 274l10 4q20 8 28.5 33.5t13.5 56.5t12.5 64.5t25.5 58.5q6 8 6 22t-7 24.5t-15.5 18t-15.5 14.5t-7 19q0 18 10.5 39t10.5 49q0 37 -12.5 73t-34 63.5t-54.5 45t-71 17.5h-21q-4 0 -10 1t-10 1q-25 0 -57 -16.5 t-42 -45.5q-18 -35 -18 -69z" />
<glyph unicode="&#xda;" horiz-adv-x="1054" d="M76 1440q0 61 6 122.5t6 120.5v31q41 53 107 82q23 0 36 -9t25 -11q27 4 52.5 6t51.5 2q39 0 77 -7.5t75 -27.5l14 -39q-14 -37 -16 -72.5t-2 -72.5t-2 -73t-14 -71q0 -4 1 -6t1 -6q0 -23 -7.5 -46.5t-7.5 -45.5q0 -61 10.5 -127t14.5 -127l-17 -16q-4 -16 -7 -34 t-17 -30l-2 -2v-565l14 -13q39 31 88 31q16 0 27 -2v903q-4 8 -4 15q0 4 4 16v47l-19 70q-31 12 -30 49v72q0 100 48 134t126 34q27 0 37 -3q20 12 41 13q74 0 105.5 -31t41.5 -76t8 -96t8 -94q16 -25 17 -55q0 -41 -13.5 -88.5t-13.5 -94.5q0 -33 4 -65.5t4 -65.5 q0 -39 -14 -87t-43 -71v-587q0 -78 -29.5 -144.5t-80 -118t-118 -80t-143.5 -28.5q-78 0 -145.5 28.5t-118.5 79t-79.5 118t-28.5 145.5v518q-31 18 -37 51t-21 59q14 43 15 97q0 35 -7 71q2 27 2 52.5v52.5q0 29 -15 70.5t-15 97.5zM100 1464q0 -29 23 -39l-6 -22 q33 -57 36 -128t5 -141.5t20.5 -133t81.5 -105.5q2 -10 3 -22.5t1 -22.5q0 -35 -5 -68.5t-5 -66.5q0 -35 10 -68t39 -33q16 0 42 14.5t26 43.5q0 4 -1 5t-1 5q0 76 11 151.5t23 145.5q20 27 36 55.5t16 63.5q0 10 -4 30q4 27 5 52.5t1 52.5q0 51 -3 101t-3 100q0 49 6 98 t26 98v23q0 33 -9 44t-24.5 15t-34 7t-36.5 22q-12 -10 -31 -10q-12 0 -23.5 2t-23.5 2q-27 0 -39 -19q-47 -4 -78.5 -14t-50 -37t-26 -75t-7.5 -126zM270 692h2v-4zM406 1882q0 35 22.5 61.5t57.5 32.5h14q14 0 39.5 -1t50.5 -7t43 -17.5t18 -29.5q-6 -23 -16 -30t-27 -7 l-73 -74h-49q-14 -10 -29 -10q-10 0 -22.5 7.5t-12.5 23.5v4q-16 23 -16 47zM426 1872q0 -17 4 -25q6 -20 23 -20q8 0 15 8t16.5 19.5t22.5 22.5t32 15q4 0 6 2h10q10 10 21.5 13.5t11.5 19.5q0 10 -16.5 19.5t-32.5 9.5q-41 0 -77 -22.5t-36 -61.5zM465 303q0 -23 13.5 -35 t31.5 -12q10 0 22 6q2 -20 14.5 -29.5t28.5 -9.5q27 0 41.5 22.5t14.5 57.5q0 31 -21.5 61.5t-50.5 30.5q-8 0 -14 -2q-29 -8 -54.5 -31.5t-25.5 -58.5zM590 1614q0 -37 14 -82t60 -59q8 -47 10 -92.5t2 -90.5q0 -72 -2 -140.5t-2 -139.5q0 -33 7 -59.5t38 -26.5q20 0 35 14 q-4 -86 -7.5 -172t-3.5 -172q0 -25 13.5 -36t29.5 -11q18 0 34 11t16 36q0 141 7 273t7 274l10 4q20 8 28.5 33.5t13.5 56.5t12.5 64.5t25.5 58.5q6 8 6 22t-7 24.5t-15.5 18t-15.5 14.5t-7 19q0 18 10.5 39t10.5 49q0 37 -12.5 73t-34 63.5t-54.5 45t-71 17.5h-21 q-4 0 -10 1t-10 1q-25 0 -57 -16.5t-42 -45.5q-18 -35 -18 -69z" />
<glyph unicode="&#xdb;" horiz-adv-x="1054" d="M76 1440q0 61 6 122.5t6 120.5v31q41 53 107 82q23 0 36 -9t25 -11q27 4 52.5 6t51.5 2q39 0 77 -7.5t75 -27.5l14 -39q-14 -37 -16 -72.5t-2 -72.5t-2 -73t-14 -71q0 -4 1 -6t1 -6q0 -23 -7.5 -46.5t-7.5 -45.5q0 -61 10.5 -127t14.5 -127l-17 -16q-4 -16 -7 -34 t-17 -30l-2 -2v-565l14 -13q39 31 88 31q16 0 27 -2v903q-4 8 -4 15q0 4 4 16v47l-19 70q-31 12 -30 49v72q0 100 48 134t126 34q27 0 37 -3q20 12 41 13q74 0 105.5 -31t41.5 -76t8 -96t8 -94q16 -25 17 -55q0 -41 -13.5 -88.5t-13.5 -94.5q0 -33 4 -65.5t4 -65.5 q0 -39 -14 -87t-43 -71v-587q0 -78 -29.5 -144.5t-80 -118t-118 -80t-143.5 -28.5q-78 0 -145.5 28.5t-118.5 79t-79.5 118t-28.5 145.5v518q-31 18 -37 51t-21 59q14 43 15 97q0 35 -7 71q2 27 2 52.5v52.5q0 29 -15 70.5t-15 97.5zM100 1464q0 -29 23 -39l-6 -22 q33 -57 36 -128t5 -141.5t20.5 -133t81.5 -105.5q2 -10 3 -22.5t1 -22.5q0 -35 -5 -68.5t-5 -66.5q0 -35 10 -68t39 -33q16 0 42 14.5t26 43.5q0 4 -1 5t-1 5q0 76 11 151.5t23 145.5q20 27 36 55.5t16 63.5q0 10 -4 30q4 27 5 52.5t1 52.5q0 51 -3 101t-3 100q0 49 6 98 t26 98v23q0 33 -9 44t-24.5 15t-34 7t-36.5 22q-12 -10 -31 -10q-12 0 -23.5 2t-23.5 2q-27 0 -39 -19q-47 -4 -78.5 -14t-50 -37t-26 -75t-7.5 -126zM270 692h2v-4zM301 1780v14q18 33 46 61.5t61.5 50t69.5 34t69 12.5q43 0 80 -19.5t62.5 -43t40.5 -43t15 -21.5 q0 -6 -6 -14.5t-8 -12.5l8 -12l-129 45q-10 -27 -35 -27q-14 0 -22 8l-10 19l-80 -2l-43 -43h-35q-12 -10 -27.5 -19.5t-33.5 -9.5q-23 0 -23 23zM334 1819q0 -23 24 -23q10 0 28.5 17.5t57.5 44.5l101 -17q8 -6 22 -6q16 0 22.5 11.5t20.5 19.5q2 -2 11 -2l10 -6 q8 -16 24 -31q41 6 41 18q0 18 -16 33.5t-40 27t-51.5 17.5t-49.5 6q-25 0 -60 -9t-67.5 -24.5t-55 -36t-22.5 -40.5zM465 303q0 -23 13.5 -35t31.5 -12q10 0 22 6q2 -20 14.5 -29.5t28.5 -9.5q27 0 41.5 22.5t14.5 57.5q0 31 -21.5 61.5t-50.5 30.5q-8 0 -14 -2 q-29 -8 -54.5 -31.5t-25.5 -58.5zM590 1614q0 -37 14 -82t60 -59q8 -47 10 -92.5t2 -90.5q0 -72 -2 -140.5t-2 -139.5q0 -33 7 -59.5t38 -26.5q20 0 35 14q-4 -86 -7.5 -172t-3.5 -172q0 -25 13.5 -36t29.5 -11q18 0 34 11t16 36q0 141 7 273t7 274l10 4q20 8 28.5 33.5 t13.5 56.5t12.5 64.5t25.5 58.5q6 8 6 22t-7 24.5t-15.5 18t-15.5 14.5t-7 19q0 18 10.5 39t10.5 49q0 37 -12.5 73t-34 63.5t-54.5 45t-71 17.5h-21q-4 0 -10 1t-10 1q-25 0 -57 -16.5t-42 -45.5q-18 -35 -18 -69z" />
<glyph unicode="&#xdc;" horiz-adv-x="1054" d="M76 1440q0 61 6 122.5t6 120.5v31q41 53 107 82q23 0 36 -9t25 -11q27 4 52.5 6t51.5 2q39 0 77 -7.5t75 -27.5l14 -39q-14 -37 -16 -72.5t-2 -72.5t-2 -73t-14 -71q0 -4 1 -6t1 -6q0 -23 -7.5 -46.5t-7.5 -45.5q0 -61 10.5 -127t14.5 -127l-17 -16q-4 -16 -7 -34 t-17 -30l-2 -2v-565l14 -13q39 31 88 31q16 0 27 -2v903q-4 8 -4 15q0 4 4 16v47l-19 70q-31 12 -30 49v72q0 100 48 134t126 34q27 0 37 -3q20 12 41 13q74 0 105.5 -31t41.5 -76t8 -96t8 -94q16 -25 17 -55q0 -41 -13.5 -88.5t-13.5 -94.5q0 -33 4 -65.5t4 -65.5 q0 -39 -14 -87t-43 -71v-587q0 -78 -29.5 -144.5t-80 -118t-118 -80t-143.5 -28.5q-78 0 -145.5 28.5t-118.5 79t-79.5 118t-28.5 145.5v518q-31 18 -37 51t-21 59q14 43 15 97q0 35 -7 71q2 27 2 52.5v52.5q0 29 -15 70.5t-15 97.5zM100 1464q0 -29 23 -39l-6 -22 q33 -57 36 -128t5 -141.5t20.5 -133t81.5 -105.5q2 -10 3 -22.5t1 -22.5q0 -35 -5 -68.5t-5 -66.5q0 -35 10 -68t39 -33q16 0 42 14.5t26 43.5q0 4 -1 5t-1 5q0 76 11 151.5t23 145.5q20 27 36 55.5t16 63.5q0 10 -4 30q4 27 5 52.5t1 52.5q0 51 -3 101t-3 100q0 49 6 98 t26 98v23q0 33 -9 44t-24.5 15t-34 7t-36.5 22q-12 -10 -31 -10q-12 0 -23.5 2t-23.5 2q-27 0 -39 -19q-47 -4 -78.5 -14t-50 -37t-26 -75t-7.5 -126zM266 1874q0 35 29 61.5t63 26.5q20 0 45 -6t45.5 -17.5t34 -28t13.5 -36.5q0 -16 -6 -29v-6q0 -59 -89 -59 q-61 0 -98 23.5t-37 70.5zM270 692h2v-4zM299 1892q0 -16 5 -32.5t22 -16.5q6 0 10 2h6q2 -6 14 -6h9q14 -16 36 -16q23 0 40.5 14t17.5 37q0 27 -24.5 37t-92.5 10q-31 0 -37 -8t-6 -21zM465 303q0 -23 13.5 -35t31.5 -12q10 0 22 6q2 -20 14.5 -29.5t28.5 -9.5 q27 0 41.5 22.5t14.5 57.5q0 31 -21.5 61.5t-50.5 30.5q-8 0 -14 -2q-29 -8 -54.5 -31.5t-25.5 -58.5zM557 1839q0 37 19.5 73t72.5 36q66 0 103 -25t37 -59q0 -18 -11.5 -31.5t-33.5 -13.5h-15q-8 -39 -82 -39q-90 0 -90 59zM590 1614q0 -37 14 -82t60 -59q8 -47 10 -92.5 t2 -90.5q0 -72 -2 -140.5t-2 -139.5q0 -33 7 -59.5t38 -26.5q20 0 35 14q-4 -86 -7.5 -172t-3.5 -172q0 -25 13.5 -36t29.5 -11q18 0 34 11t16 36q0 141 7 273t7 274l10 4q20 8 28.5 33.5t13.5 56.5t12.5 64.5t25.5 58.5q6 8 6 22t-7 24.5t-15.5 18t-15.5 14.5t-7 19 q0 18 10.5 39t10.5 49q0 37 -12.5 73t-34 63.5t-54.5 45t-71 17.5h-21q-4 0 -10 1t-10 1q-25 0 -57 -16.5t-42 -45.5q-18 -35 -18 -69zM598 1872q0 -12 10.5 -28.5t30.5 -16.5q10 0 19.5 12t19.5 12q4 0 18.5 -6t24.5 -10l33 25q12 8 12 22q0 6 -2 16.5t-8 12.5l-21 12 q-47 6 -71 6q-35 0 -50.5 -17.5t-15.5 -39.5z" />
<glyph unicode="&#xdd;" d="M8 1683q0 27 22.5 43.5t60.5 23.5t89 9t111 2q74 0 116 -41t42 -90q0 -59 -35 -100l63 -195l39 127q-14 27 -14 58q0 12 4 32q14 49 20 89t30 68t77 43t164 15q90 0 125.5 -27.5t35.5 -78.5q0 -41 -15 -97.5t-38.5 -107.5t-50.5 -87t-49 -36q-6 0 -8 2l-166 -536v-799 h-307v788l-158 523q-10 0 -28.5 23.5t-38 51t-33.5 50.5l-15 22q-4 59 -23.5 112.5t-19.5 112.5zM39 1642q0 -12 2 -16l20 -74q2 -6 3.5 -11t1.5 -11q0 -4 -1.5 -8t-1.5 -9q14 -14 23 -32q-2 -4 -2 -15q0 -41 43 -71q2 -4 16.5 -11.5t32 -17.5t31.5 -21.5t20 -21.5l9 -6 q-2 -6 -3 -19q0 -23 18.5 -44t43.5 -21q16 0 30.5 12t14.5 35q0 33 -9 62.5t-14 62.5q25 0 40.5 14.5t15.5 46.5q0 10 -1 22.5t-3 24.5q23 10 36 33t13 56q0 41 -16.5 65.5t-55.5 37.5t-102.5 17t-157.5 4q-23 0 -34 -15t-11 -32q0 -6 2 -10v-2q-4 -16 -4 -25zM369 1882 q0 35 22.5 61.5t57.5 32.5h14q14 0 39.5 -1t50.5 -7t43 -17.5t18 -29.5q-6 -23 -16 -30t-27 -7l-73 -74h-49q-14 -10 -29 -10q-10 0 -22.5 7.5t-12.5 23.5v4q-16 23 -16 47zM389 1872q0 -17 4 -25q6 -20 23 -20q8 0 15 8t16.5 19.5t22.5 22.5t32 15q4 0 6 2h10 q10 10 21.5 13.5t11.5 19.5q0 10 -16.5 19.5t-32.5 9.5q-41 0 -77 -22.5t-36 -61.5zM539 1546q0 -18 15 -44.5t43 -51.5t63.5 -43t78.5 -18q29 0 39 10l8 10q4 -2 15 -2q43 0 57 20.5t19.5 49t8.5 58.5t21 48q2 8 2 25q0 20 -4 38.5t-23.5 33t-60.5 22.5t-114 8 q-68 0 -84 -16h-7q-22 -1 -34 -19q-23 -27 -33 -60.5t-10 -68.5z" />
<glyph unicode="&#xdf;" horiz-adv-x="1933" d="M76 1333q0 72 22.5 143.5t42.5 143.5q10 41 42 65.5t71 36.5q41 39 93 69t106 30h22q4 0 21 -4l63 -5q90 -6 154.5 -64t101.5 -132q2 -18 10.5 -40t16.5 -44.5t14 -45t6 -40.5q0 -4 -1 -10t-3 -17q8 -43 19 -237q0 -20 -3.5 -46t-12.5 -48.5t-24.5 -38t-41.5 -15.5 q-31 0 -45.5 8.5t-25.5 19.5t-25.5 19.5t-45.5 8.5q-25 0 -35 10q-4 0 -25.5 14t-27.5 33l-2 8q-8 18 -13 36.5t-5 37.5v14q0 5 4 17q4 14 10 20v53q0 66 -63 66q-66 0 -66 -66q0 -92 28.5 -167.5t75 -140t103.5 -123t117 -118.5q115 -158 114 -413q0 -78 -29.5 -145.5 t-80.5 -118t-119 -79t-143 -28.5q-78 0 -145.5 28.5t-119 79t-80 118t-28.5 145.5v69q-12 12 -12 27q0 8 6 20l6 19v35h8q10 39 36 59.5t48 20.5q18 0 46 -6.5t40 -10.5q4 0 12.5 5t16.5 5q6 0 22 -4q10 0 21.5 8.5t21.5 8.5q18 0 33.5 -11.5t28 -28t19.5 -36t9 -37.5v-12 q0 -59 -55 -82v-49q0 -66 66 -66q63 0 63 66q0 201 -113 319q-61 59 -109 104.5t-88 98.5t-76 128t-73 191q0 2 -2 5.5t-2 7.5q-20 49 -20 108zM127 1331q0 -31 3 -49t26 -29q0 -29 8 -78t21.5 -97t33 -84t43.5 -36q18 0 32.5 11.5t14.5 31.5q0 13 -4 21q-14 33 -25.5 66.5 t-17.5 68.5h2q6 -6 23 -6q4 0 8 1t8 1q10 -10 29 -10q33 0 41 43t18 96t35 98t90 50q6 -8 17.5 -12.5t21.5 -7.5t17.5 -8t7.5 -13v-5q4 -14 5 -28.5t3 -26.5v-18q0 -43 12 -80t55 -60q14 10 27 11q16 0 34.5 -11.5t35 -26t30 -26.5t23.5 -14q23 0 39 20.5t16 49.5 q0 18 -6 42.5t-14.5 59.5t-17.5 81t-17 109q0 66 -24.5 121t-68.5 95t-102.5 62.5t-126.5 22.5q-66 0 -129 -24.5t-113.5 -76.5t-82 -135t-31.5 -200zM139 496q0 -23 9.5 -36.5t21.5 -24.5t21.5 -24.5t9.5 -35.5v-47q0 -18 3 -39t10 -38.5t18.5 -28.5t29.5 -11 q35 0 48.5 28.5t17.5 65.5t6 72t16 49q12 0 29.5 4t33 12.5t27 22.5t11.5 37q0 35 -33 58.5t-62 23.5t-57.5 -7.5t-44.5 -11.5q-10 27 -43 27q-6 0 -14.5 -2t-14.5 -8q-20 -14 -31.5 -38t-11.5 -48zM1043 1333q0 72 22.5 143.5t42.5 143.5q10 41 42 65.5t71 36.5 q41 39 93 69t106 30h22q4 0 21 -4l63 -5q90 -6 154.5 -64t101.5 -132q2 -18 10.5 -40t16.5 -44.5t14 -45t6 -40.5q0 -4 -1 -10t-3 -17q8 -43 19 -237q0 -20 -3.5 -46t-12.5 -48.5t-24.5 -38t-41.5 -15.5q-31 0 -45.5 8.5t-25.5 19.5t-25.5 19.5t-45.5 8.5q-25 0 -35 10 q-4 0 -25.5 14t-27.5 33l-2 8q-8 18 -13 36.5t-5 37.5v14q0 5 4 17q4 14 10 20v53q0 66 -63 66q-66 0 -66 -66q0 -92 28.5 -167.5t75 -140t103.5 -123t117 -118.5q115 -158 114 -413q0 -78 -29.5 -145.5t-80.5 -118t-119 -79t-143 -28.5q-78 0 -145.5 28.5t-119 79t-80 118 t-28.5 145.5v69q-12 12 -12 27q0 8 6 20l6 19v35h8q10 39 36 59.5t48 20.5q18 0 46 -6.5t40 -10.5q4 0 12.5 5t16.5 5q6 0 22 -4q10 0 21.5 8.5t21.5 8.5q18 0 33.5 -11.5t28 -28t19.5 -36t9 -37.5v-12q0 -59 -55 -82v-49q0 -66 66 -66q63 0 63 66q0 201 -113 319 q-61 59 -109 104.5t-88 98.5t-76 128t-73 191q0 2 -2 5.5t-2 7.5q-20 49 -20 108zM1094 1331q0 -31 3 -49t26 -29q0 -29 8 -78t21.5 -97t33 -84t43.5 -36q18 0 32.5 11.5t14.5 31.5q0 13 -4 21q-14 33 -25.5 66.5t-17.5 68.5h2q6 -6 23 -6q4 0 8 1t8 1q10 -10 29 -10 q33 0 41 43t18 96t35 98t90 50q6 -8 17.5 -12.5t21.5 -7.5t17.5 -8t7.5 -13v-5q4 -14 5 -28.5t3 -26.5v-18q0 -43 12 -80t55 -60q14 10 27 11q16 0 34.5 -11.5t35 -26t30 -26.5t23.5 -14q23 0 39 20.5t16 49.5q0 18 -6 42.5t-14.5 59.5t-17.5 81t-17 109q0 66 -24.5 121 t-68.5 95t-102.5 62.5t-126.5 22.5q-66 0 -129 -24.5t-113.5 -76.5t-82 -135t-31.5 -200zM1106 496q0 -23 9.5 -36.5t21.5 -24.5t21.5 -24.5t9.5 -35.5v-47q0 -18 3 -39t10 -38.5t18.5 -28.5t29.5 -11q35 0 48.5 28.5t17.5 65.5t6 72t16 49q12 0 29.5 4t33 12.5t27 22.5 t11.5 37q0 35 -33 58.5t-62 23.5t-57.5 -7.5t-44.5 -11.5q-10 27 -43 27q-6 0 -14.5 -2t-14.5 -8q-20 -14 -31.5 -38t-11.5 -48z" />
<glyph unicode="&#xe0;" horiz-adv-x="802" d="M23 -2l172 1202q-23 0 -36.5 14.5t-19.5 35t-8 45t-2 46.5q0 47 15.5 129t39 161t51 136.5t52.5 57.5q23 0 37 -15q55 43 129 43q53 0 101 -22.5t81 -67.5q10 -63 14 -124.5t4 -122.5q0 -37 -1 -88.5t-4 -98.5t-10 -82t-20 -43l170 -1206h-303l-12 195h-129l-16 -195 h-305zM172 1372q0 -25 5.5 -50t17.5 -52q6 -16 17 -23.5t21 -7.5q2 0 3.5 1t3.5 1q10 0 16 -94t6 -242q0 -29 -1 -56.5t-1 -55.5q0 -10 3 -16.5t8 -14.5t12.5 -23.5t15.5 -44.5q29 80 43 133.5t16 81.5l4 117q12 -6 19 -6q2 0 3 1t3 1q4 -125 16 -125q8 0 25 104q31 0 41 29 q8 -162 20 -162q2 0 5.5 29t8.5 72t9 93t8 92t6 69.5t2 25.5q25 -59 45 -59q14 0 21.5 25.5t11.5 64.5t5 83t1 81q0 84 -1 149.5t-12 109.5t-39 67.5t-81 23.5q-74 0 -112.5 -4t-63.5 -21q-20 0 -37.5 -29.5t-32 -73.5t-25.5 -95t-18.5 -95t-12.5 -74zM283 293q0 -23 18 -37 l6 -6q23 -31 55 -31q10 0 33 5t45.5 14.5t40 20.5t17.5 24q0 14 -9.5 31.5t-23.5 31.5t-28.5 23.5t-26.5 9.5h-13q-8 4 -14 4q-10 0 -27.5 -9t-34 -22.5t-27.5 -30t-11 -28.5zM303 1927q0 31 39 31q78 0 123 -23.5t45 -40.5q0 -12 -14 -12l-2 -16q0 -4 -2 -4l14 -52h-78 q-18 8 -39.5 16.5t-41 20t-32 30.5t-12.5 50zM322 1905q0 -14 16 -24.5t29 -10.5l63 -10q8 -2 15.5 -2h13.5q33 0 33 16q0 20 -13.5 30.5t-33 14.5t-41 7t-37.5 11q-8 0 -19 -10h-6q-10 0 -15 -7t-5 -15zM367 420l32 6q10 0 20.5 -5t18.5 -11h11l-19 286h-45z" />
<glyph unicode="&#xe1;" horiz-adv-x="802" d="M23 -2l172 1202q-23 0 -36.5 14.5t-19.5 35t-8 45t-2 46.5q0 47 15.5 129t39 161t51 136.5t52.5 57.5q23 0 37 -15q55 43 129 43q53 0 101 -22.5t81 -67.5q10 -63 14 -124.5t4 -122.5q0 -37 -1 -88.5t-4 -98.5t-10 -82t-20 -43l170 -1206h-303l-12 195h-129l-16 -195 h-305zM172 1372q0 -25 5.5 -50t17.5 -52q6 -16 17 -23.5t21 -7.5q2 0 3.5 1t3.5 1q10 0 16 -94t6 -242q0 -29 -1 -56.5t-1 -55.5q0 -10 3 -16.5t8 -14.5t12.5 -23.5t15.5 -44.5q29 80 43 133.5t16 81.5l4 117q12 -6 19 -6q2 0 3 1t3 1q4 -125 16 -125q8 0 25 104q31 0 41 29 q8 -162 20 -162q2 0 5.5 29t8.5 72t9 93t8 92t6 69.5t2 25.5q25 -59 45 -59q14 0 21.5 25.5t11.5 64.5t5 83t1 81q0 84 -1 149.5t-12 109.5t-39 67.5t-81 23.5q-74 0 -112.5 -4t-63.5 -21q-20 0 -37.5 -29.5t-32 -73.5t-25.5 -95t-18.5 -95t-12.5 -74zM283 293q0 -23 18 -37 l6 -6q23 -31 55 -31q10 0 33 5t45.5 14.5t40 20.5t17.5 24q0 14 -9.5 31.5t-23.5 31.5t-28.5 23.5t-26.5 9.5h-13q-8 4 -14 4q-10 0 -27.5 -9t-34 -22.5t-27.5 -30t-11 -28.5zM287 1882q0 35 22.5 61.5t57.5 32.5h14q14 0 39.5 -1t50.5 -7t43 -17.5t18 -29.5q-6 -23 -16 -30 t-27 -7l-73 -74h-49q-14 -10 -29 -10q-10 0 -22.5 7.5t-12.5 23.5v4q-16 23 -16 47zM307 1872q0 -17 4 -25q6 -20 23 -20q8 0 15 8t16.5 19.5t22.5 22.5t32 15q4 0 6 2h10q10 10 21.5 13.5t11.5 19.5q0 10 -16.5 19.5t-32.5 9.5q-41 0 -77 -22.5t-36 -61.5zM367 420l32 6 q10 0 20.5 -5t18.5 -11h11l-19 286h-45z" />
<glyph unicode="&#xe2;" horiz-adv-x="802" d="M23 -2l172 1202q-23 0 -36.5 14.5t-19.5 35t-8 45t-2 46.5q0 47 15.5 129t39 161t51 136.5t52.5 57.5q23 0 37 -15q55 43 129 43q53 0 101 -22.5t81 -67.5q10 -63 14 -124.5t4 -122.5q0 -37 -1 -88.5t-4 -98.5t-10 -82t-20 -43l170 -1206h-303l-12 195h-129l-16 -195 h-305zM172 1372q0 -25 5.5 -50t17.5 -52q6 -16 17 -23.5t21 -7.5q2 0 3.5 1t3.5 1q10 0 16 -94t6 -242q0 -29 -1 -56.5t-1 -55.5q0 -10 3 -16.5t8 -14.5t12.5 -23.5t15.5 -44.5q29 80 43 133.5t16 81.5l4 117q12 -6 19 -6q2 0 3 1t3 1q4 -125 16 -125q8 0 25 104q31 0 41 29 q8 -162 20 -162q2 0 5.5 29t8.5 72t9 93t8 92t6 69.5t2 25.5q25 -59 45 -59q14 0 21.5 25.5t11.5 64.5t5 83t1 81q0 84 -1 149.5t-12 109.5t-39 67.5t-81 23.5q-74 0 -112.5 -4t-63.5 -21q-20 0 -37.5 -29.5t-32 -73.5t-25.5 -95t-18.5 -95t-12.5 -74zM174 1780v14 q18 33 46 61.5t61.5 50t69.5 34t69 12.5q43 0 80 -19.5t62.5 -43t40.5 -43t15 -21.5q0 -6 -6 -14.5t-8 -12.5l8 -12l-129 45q-10 -27 -35 -27q-14 0 -22 8l-10 19l-80 -2l-43 -43h-35q-12 -10 -27.5 -19.5t-33.5 -9.5q-23 0 -23 23zM207 1819q0 -23 24 -23q10 0 28.5 17.5 t57.5 44.5l101 -17q8 -6 22 -6q16 0 22.5 11.5t20.5 19.5q2 -2 11 -2l10 -6q8 -16 24 -31q41 6 41 18q0 18 -16 33.5t-40 27t-51.5 17.5t-49.5 6q-25 0 -60 -9t-67.5 -24.5t-55 -36t-22.5 -40.5zM283 293q0 -23 18 -37l6 -6q23 -31 55 -31q10 0 33 5t45.5 14.5t40 20.5 t17.5 24q0 14 -9.5 31.5t-23.5 31.5t-28.5 23.5t-26.5 9.5h-13q-8 4 -14 4q-10 0 -27.5 -9t-34 -22.5t-27.5 -30t-11 -28.5zM367 420l32 6q10 0 20.5 -5t18.5 -11h11l-19 286h-45z" />
<glyph unicode="&#xe3;" horiz-adv-x="802" d="M23 -2l172 1202q-23 0 -36.5 14.5t-19.5 35t-8 45t-2 46.5q0 47 15.5 129t39 161t51 136.5t52.5 57.5q23 0 37 -15q55 43 129 43q53 0 101 -22.5t81 -67.5q10 -63 14 -124.5t4 -122.5q0 -37 -1 -88.5t-4 -98.5t-10 -82t-20 -43l170 -1206h-303l-12 195h-129l-16 -195 h-305zM162 1829q0 29 15 55.5t42 46t61.5 30.5t73.5 11q72 0 99 -57q-16 10 -37 18.5t-43 8.5h-15l-27 -2q-28 -3 -62 -14t-61.5 -34.5t-27.5 -68.5q0 -25 23 -25q18 0 26.5 15.5t20.5 33t35.5 32.5t72.5 15q25 0 45.5 -9t39 -19.5t37 -19.5t40.5 -9q27 0 53.5 9t49.5 22 l6 26q0 12 -17 21q-90 -25 -114 -25q-4 0 -5.5 1t-3.5 1l-28 17q12 -2 22.5 -3t22.5 -5q86 33 121 32q18 0 26 -19.5t8 -35.5q0 -25 -17 -47.5t-40 -22.5q-14 1 -24 9q-23 -31 -50 -31q-20 0 -61 29q-18 4 -39.5 3t-32.5 17q-8 14 -23.5 23.5t-33.5 13.5q-35 -8 -57 -80h-35 q-12 -25 -39 -25q-47 0 -47 62zM172 1372q0 -25 5.5 -50t17.5 -52q6 -16 17 -23.5t21 -7.5q2 0 3.5 1t3.5 1q10 0 16 -94t6 -242q0 -29 -1 -56.5t-1 -55.5q0 -10 3 -16.5t8 -14.5t12.5 -23.5t15.5 -44.5q29 80 43 133.5t16 81.5l4 117q12 -6 19 -6q2 0 3 1t3 1 q4 -125 16 -125q8 0 25 104q31 0 41 29q8 -162 20 -162q2 0 5.5 29t8.5 72t9 93t8 92t6 69.5t2 25.5q25 -59 45 -59q14 0 21.5 25.5t11.5 64.5t5 83t1 81q0 84 -1 149.5t-12 109.5t-39 67.5t-81 23.5q-74 0 -112.5 -4t-63.5 -21q-20 0 -37.5 -29.5t-32 -73.5t-25.5 -95 t-18.5 -95t-12.5 -74zM283 293q0 -23 18 -37l6 -6q23 -31 55 -31q10 0 33 5t45.5 14.5t40 20.5t17.5 24q0 14 -9.5 31.5t-23.5 31.5t-28.5 23.5t-26.5 9.5h-13q-8 4 -14 4q-10 0 -27.5 -9t-34 -22.5t-27.5 -30t-11 -28.5zM367 420l32 6q10 0 20.5 -5t18.5 -11h11l-19 286 h-45z" />
<glyph unicode="&#xe4;" horiz-adv-x="802" d="M23 -2l172 1202q-23 0 -36.5 14.5t-19.5 35t-8 45t-2 46.5q0 47 15.5 129t39 161t51 136.5t52.5 57.5q23 0 37 -15q55 43 129 43q53 0 101 -22.5t81 -67.5q10 -63 14 -124.5t4 -122.5q0 -37 -1 -88.5t-4 -98.5t-10 -82t-20 -43l170 -1206h-303l-12 195h-129l-16 -195 h-305zM147 1874q0 35 29 61.5t63 26.5q20 0 45 -6t45.5 -17.5t34 -28t13.5 -36.5q0 -16 -6 -29v-6q0 -59 -89 -59q-61 0 -98 23.5t-37 70.5zM172 1372q0 -25 5.5 -50t17.5 -52q6 -16 17 -23.5t21 -7.5q2 0 3.5 1t3.5 1q10 0 16 -94t6 -242q0 -29 -1 -56.5t-1 -55.5 q0 -10 3 -16.5t8 -14.5t12.5 -23.5t15.5 -44.5q29 80 43 133.5t16 81.5l4 117q12 -6 19 -6q2 0 3 1t3 1q4 -125 16 -125q8 0 25 104q31 0 41 29q8 -162 20 -162q2 0 5.5 29t8.5 72t9 93t8 92t6 69.5t2 25.5q25 -59 45 -59q14 0 21.5 25.5t11.5 64.5t5 83t1 81q0 84 -1 149.5 t-12 109.5t-39 67.5t-81 23.5q-74 0 -112.5 -4t-63.5 -21q-20 0 -37.5 -29.5t-32 -73.5t-25.5 -95t-18.5 -95t-12.5 -74zM180 1892q0 -16 5 -32.5t22 -16.5q6 0 10 2h6q2 -6 14 -6h9q14 -16 36 -16q23 0 40.5 14t17.5 37q0 27 -24.5 37t-92.5 10q-31 0 -37 -8t-6 -21z M283 293q0 -23 18 -37l6 -6q23 -31 55 -31q10 0 33 5t45.5 14.5t40 20.5t17.5 24q0 14 -9.5 31.5t-23.5 31.5t-28.5 23.5t-26.5 9.5h-13q-8 4 -14 4q-10 0 -27.5 -9t-34 -22.5t-27.5 -30t-11 -28.5zM367 420l32 6q10 0 20.5 -5t18.5 -11h11l-19 286h-45zM438 1839 q0 37 19.5 73t72.5 36q66 0 103 -25t37 -59q0 -18 -11.5 -31.5t-33.5 -13.5h-15q-8 -39 -82 -39q-90 0 -90 59zM479 1872q0 -12 10.5 -28.5t30.5 -16.5q10 0 19.5 12t19.5 12q4 0 18.5 -6t24.5 -10l33 25q12 8 12 22q0 6 -2 16.5t-8 12.5l-21 12q-47 6 -71 6 q-35 0 -50.5 -17.5t-15.5 -39.5z" />
<glyph unicode="&#xe5;" horiz-adv-x="802" d="M23 -2l172 1202q-23 0 -36.5 14.5t-19.5 35t-8 45t-2 46.5q0 47 15.5 129t39 161t51 136.5t52.5 57.5q23 0 37 -15q55 43 129 43q53 0 101 -22.5t81 -67.5q10 -63 14 -124.5t4 -122.5q0 -37 -1 -88.5t-4 -98.5t-10 -82t-20 -43l170 -1206h-303l-12 195h-129l-16 -195 h-305zM172 1372q0 -25 5.5 -50t17.5 -52q6 -16 17 -23.5t21 -7.5q2 0 3.5 1t3.5 1q10 0 16 -94t6 -242q0 -29 -1 -56.5t-1 -55.5q0 -10 3 -16.5t8 -14.5t12.5 -23.5t15.5 -44.5q29 80 43 133.5t16 81.5l4 117q12 -6 19 -6q2 0 3 1t3 1q4 -125 16 -125q8 0 25 104q31 0 41 29 q8 -162 20 -162q2 0 5.5 29t8.5 72t9 93t8 92t6 69.5t2 25.5q25 -59 45 -59q14 0 21.5 25.5t11.5 64.5t5 83t1 81q0 84 -1 149.5t-12 109.5t-39 67.5t-81 23.5q-74 0 -112.5 -4t-63.5 -21q-20 0 -37.5 -29.5t-32 -73.5t-25.5 -95t-18.5 -95t-12.5 -74zM260 1853q2 18 5 41 t20 39l18 19q20 20 49 29.5t56 11.5q6 0 30.5 -5.5t52 -14.5t49 -23.5t23.5 -34.5q0 -12 -7 -19.5t-13 -7.5l-2 -2q12 -22 12 -53q0 -53 -40 -87t-95 -34q-47 0 -85 27.5t-48 75.5q-16 0 -20.5 9t-4.5 29zM278 1855q0 -20 19 -20q21 0 29 20q2 25 16 36.5t33.5 17.5t41 9 t38.5 7q20 -4 33.5 -18.5t23.5 -14.5q23 0 22 23q0 14 -11 24.5t-26.5 17.5t-33 10t-27.5 3q-47 0 -92 -24.5t-63 -63.5zM283 293q0 -23 18 -37l6 -6q23 -31 55 -31q10 0 33 5t45.5 14.5t40 20.5t17.5 24q0 14 -9.5 31.5t-23.5 31.5t-28.5 23.5t-26.5 9.5h-13q-8 4 -14 4 q-10 0 -27.5 -9t-34 -22.5t-27.5 -30t-11 -28.5zM348 1841q12 -2 17 -20l2 2q12 10 34 10q20 0 45 -13.5t33 -17.5q8 15 8 33q0 68 -69 68q-68 0 -70 -62zM354 1794q1 -16 17 -20q6 -12 20 -13q8 0 12 2q20 -8 29 -8q29 0 29 25q0 16 -31 27.5t-49 11.5q-14 0 -20.5 -7.5 t-6.5 -17.5zM367 420l32 6q10 0 20.5 -5t18.5 -11h11l-19 286h-45z" />
<glyph unicode="&#xe6;" horiz-adv-x="1329" d="M12 -2l170 1202q-23 0 -36 14.5t-19 35t-8 45t-2 44.5q0 47 15 129t40 161t52.5 137.5t51.5 58.5q23 0 37 -15q57 41 129 41q61 0 115 -30q86 -41 128 -51.5t71 -10.5q14 0 27.5 1t29.5 1h369q51 0 65.5 -33.5t14.5 -64.5q0 -233 -11 -250q-6 -16 -23.5 -30.5 t-37.5 -14.5l-39 10l-8 21h-242v-324q102 23 143 23q43 0 52.5 -30t9.5 -67v-38q0 -31 -7 -82.5t-18.5 -100.5t-26 -85t-28.5 -36q-16 0 -30.5 10.5t-16.5 28.5h-78v-336q37 4 96.5 9.5t137.5 5.5q55 0 84.5 -9.5t43 -26.5t14.5 -38.5t1 -46.5q0 -14 -4 -57t-13.5 -89.5 t-23.5 -83t-33 -36.5q-16 0 -30 10h-699l-14 193h-127l-17 -195h-305zM160 1374q-1 -47 22 -104q14 -31 39 -31q2 0 4 1t4 1q10 0 15.5 -90t5.5 -233q0 -29 -1 -61t-1 -62q0 -12 3 -18.5t8 -14.5t12.5 -23.5t15.5 -44.5q29 80 43 133.5t16 81.5l6 117q12 -6 17 -6q2 0 3 1 t3 1q6 -125 16 -125q12 0 25 104q31 0 43 29q8 -162 20 -162q2 0 5 29t7.5 72t9.5 93t8 93t5 69.5t2 24.5q12 -29 24.5 -52t45.5 -23q12 0 22 6l10 -66h7q16 0 47 41q63 -74 86 -74q14 0 27.5 9.5t17.5 31.5q10 100 12 198.5t10 197.5l35 12q14 -25 39 -40t51 -15 q6 0 28.5 6t49.5 14t50.5 17.5t29.5 15.5q10 -16 14 -35.5t10.5 -37t15.5 -30t28 -12.5q25 0 34 11.5t11 38t2 70.5t8 109v7q0 23 -13.5 35t-33 18t-42 8t-38.5 2q-14 0 -42 -1t-62.5 -2t-72.5 -2t-75 -1q-66 0 -122 13.5t-104 30.5t-89 30.5t-78 13.5q-182 0 -207 -49 l-35 -94q-57 -227 -57 -277zM272 293q0 -20 17 -37l8 -6q20 -31 55 -31q10 0 33 5t45.5 14.5t39.5 20.5t17 24q0 14 -10 30.5t-23.5 30.5t-28.5 24.5t-28 10.5h-10q-12 4 -16 4q-10 0 -27.5 -9t-33 -22.5t-27 -29t-11.5 -29.5zM354 420l33 6q23 0 39 -16l61 -23v320 l-114 -11zM860 1032q2 -10 12.5 -36.5t32.5 -69.5l88 -162q8 -35 45 -35q27 82 37 133t10 74l-6 84q0 10 -7 22.5t-15 18.5l-156 -8q-14 0 -27.5 -5.5t-13.5 -15.5zM901 272q0 -27 25 -39l20 -12q14 -31 18.5 -46t10.5 -23.5t24.5 -13.5t65.5 -13q45 -8 64.5 -20.5 t27.5 -22.5t13.5 -18.5t25.5 -8.5q18 0 57 174q0 25 -4 48.5t-18 40t-39 26.5t-66 10q-88 0 -133 -6t-63.5 -15t-19.5 -17.5t-1 -12.5q-8 -10 -8 -31zM913 926l11 -2q-2 -2 -4 -2z" />
<glyph unicode="&#xe7;" horiz-adv-x="1044" d="M88 1343q0 88 39 165t105.5 135.5t153.5 92t183 33.5q86 0 165 -33.5t138 -105.5q41 -76 57.5 -157.5t16.5 -167.5t-8 -171t-14 -167q-10 -23 -31 -34t-45 -11q-25 0 -44.5 11t-23.5 36v6h-192v358q0 66 -66 66q-63 0 -63 -66v-938q31 31 73 31q27 0 56 -14v98 q-16 2 -25.5 18.5t-14.5 39t-6 49t-1 47.5q0 43 20.5 72.5t54 48t74.5 27.5t82 9q27 0 57.5 -7t57 -25.5t43 -51t16.5 -84.5q0 -43 -12 -86t-39 -80v-116q0 -78 -29.5 -145.5t-80 -118t-119 -79t-144.5 -28.5t-143.5 28.5t-118.5 78t-80.5 117t-32.5 147.5v798l-41 66 q-18 51 -18 108zM115 1346q0 -18 1 -39t7 -39.5t21 -30.5t44 -14q8 -4 13 -4q2 0 14 4q8 -43 20.5 -75t53.5 -32q8 0 20 6q-2 -23 -2 -42v-38q0 -16 1 -38.5t6 -43t15.5 -35t28.5 -14.5q37 0 46.5 27t9.5 59q0 68 -2 134.5t-2 134.5q0 35 4 66.5t19.5 58t44 46t77.5 27.5 q12 -12 30.5 -24.5t39.5 -12.5q16 0 32 15q14 -27 16.5 -80t5.5 -108.5t13 -99.5t41 -50q-2 -4 -2 -14q0 -16 7 -31t16.5 -24t17.5 -14t10 -5h4q0 -8 12.5 -25.5t30.5 -17.5q23 0 50.5 23.5t27.5 45.5q0 25 -3 49.5t-3 49.5q0 63 6 126.5t6 125.5q0 63 -17 125.5t-57 112.5 t-103.5 82t-153.5 32q-86 0 -169 -32t-149.5 -85t-107.5 -127t-41 -155zM399 -231q117 14 117 73q0 14 -6.5 41t-6.5 41q0 41 45 86h43q-29 -45 -28 -67q0 -12 12 -26.5t27.5 -34t29 -45t13.5 -62.5q0 -131 -152 -131q-39 0 -94 6v119zM424 303q0 -20 23.5 -49t64.5 -29 q0 -8 -1 -14t-1 -14q0 -59 45 -60q35 0 43 30t8 66v70q0 14 -2 16v5q0 29 -26.5 48t-53.5 19q-35 0 -64.5 -20.5t-33.5 -55.5q0 -4 -1 -6t-1 -6zM567 643q0 -39 18.5 -69.5t61.5 -34.5q4 -29 4 -66t3 -71.5t13.5 -58.5t37.5 -24q16 0 30 15q0 -18 -1 -35.5t-1 -36.5 q0 -27 14.5 -38t30.5 -11q18 0 32.5 11.5t14.5 37.5q4 61 11.5 125t19.5 127l6 6q27 23 38 48.5t11 54.5q0 31 -12 60.5t-32.5 52t-48 36.5t-60.5 14q-25 0 -64 -11t-63 -40q-6 2 -15 2q-33 0 -41 -39q-8 -25 -8 -55z" />
<glyph unicode="&#xe8;" d="M74 1333q0 29 2 83t6 140l-4 74q0 53 16.5 95t79.5 49q68 -12 145 -13l193 2q45 -2 70.5 -4t41 -4t27 -4t25.5 -2l112 12q25 0 41.5 -10t24.5 -24.5t11 -32t3 -31.5q0 -233 -10 -250q-6 -16 -23.5 -30.5t-37.5 -14.5l-39 10l-8 21h-312v-324q45 18 97 19l92 16 q45 0 65.5 -28.5t20.5 -80.5v-38q0 -31 -7.5 -82.5t-18.5 -100.5t-26.5 -85t-29.5 -36t-28.5 10.5t-16.5 28.5h-148v-336q61 10 126 20.5t130 10.5q33 0 67 -3t61.5 -16.5t45 -41t17.5 -76.5q0 -14 -4 -57t-13.5 -89.5t-24 -83t-32.5 -36.5q-20 0 -31 10h-651v1085 q-31 2 -39 58.5t-16 189.5zM111 1329q0 -59 6 -80v-88q0 -25 13 -36t32 -11q16 0 47 41q63 -74 86 -74q14 0 27.5 9.5t17.5 31.5q10 100 12 198.5t10 197.5l35 12q14 -25 39 -40t51 -15q18 0 28.5 6t21 14t23.5 14.5t38 6.5q29 0 41 32l2 -10q12 -25 39 -25q20 0 35 15 q10 -16 14 -35.5t10 -37t15.5 -30t27.5 -12.5q25 0 34 11.5t11 39t2 70.5t9 108v7q0 31 -23.5 44t-56.5 17t-64.5 4t-50.5 6q-63 -14 -129 -14q-80 0 -156.5 11.5t-156.5 15.5q-23 -4 -52.5 -19.5t-29.5 -44.5l-6 -260q0 -23 -1 -43t-1 -37zM377 1927q0 31 39 31 q78 0 123 -23.5t45 -40.5q0 -12 -14 -12l-2 -16q0 -4 -2 -4l14 -52h-78q-18 8 -39.5 16.5t-41 20t-32 30.5t-12.5 50zM396 1905q0 -14 16 -24.5t29 -10.5l63 -10q8 -2 15.5 -2h13.5q33 0 33 16q0 20 -13.5 30.5t-33 14.5t-41 7t-37.5 11q-8 0 -19 -10h-6q-10 0 -15 -7 t-5 -15zM397 1032q0 -23 45 -106q94 -70 121 -70q10 0 23 6q0 -18 2 -41.5t7 -44t16.5 -34t33.5 -13.5q25 78 36 128t11 73q0 59 -6 86.5t-17.5 38t-27.5 11.5t-39 9q-19 -12 -164 -22q-14 0 -27.5 -5.5t-13.5 -15.5zM438 272q0 -27 25 -39l20 -12q6 -12 11.5 -25.5 t12.5 -25.5t18.5 -20.5t29.5 -8.5q29 0 45 10.5t27 22.5q8 14 12 35l4 2q16 -4 33 -14h33q23 -10 29.5 -33t12 -47.5t15.5 -43t37 -18.5q18 0 57 174q0 27 -5 49.5t-19.5 40t-41 26.5t-69.5 9q-96 0 -152.5 -4t-85 -11t-36 -14.5t-7.5 -13.5q0 -2 1 -4t1 -4q-8 -10 -8 -31z M451 926l10 -2q-2 -2 -4 -2z" />
<glyph unicode="&#xe9;" d="M74 1333q0 29 2 83t6 140l-4 74q0 53 16.5 95t79.5 49q68 -12 145 -13l193 2q45 -2 70.5 -4t41 -4t27 -4t25.5 -2l112 12q25 0 41.5 -10t24.5 -24.5t11 -32t3 -31.5q0 -233 -10 -250q-6 -16 -23.5 -30.5t-37.5 -14.5l-39 10l-8 21h-312v-324q45 18 97 19l92 16 q45 0 65.5 -28.5t20.5 -80.5v-38q0 -31 -7.5 -82.5t-18.5 -100.5t-26.5 -85t-29.5 -36t-28.5 10.5t-16.5 28.5h-148v-336q61 10 126 20.5t130 10.5q33 0 67 -3t61.5 -16.5t45 -41t17.5 -76.5q0 -14 -4 -57t-13.5 -89.5t-24 -83t-32.5 -36.5q-20 0 -31 10h-651v1085 q-31 2 -39 58.5t-16 189.5zM111 1329q0 -59 6 -80v-88q0 -25 13 -36t32 -11q16 0 47 41q63 -74 86 -74q14 0 27.5 9.5t17.5 31.5q10 100 12 198.5t10 197.5l35 12q14 -25 39 -40t51 -15q18 0 28.5 6t21 14t23.5 14.5t38 6.5q29 0 41 32l2 -10q12 -25 39 -25q20 0 35 15 q10 -16 14 -35.5t10 -37t15.5 -30t27.5 -12.5q25 0 34 11.5t11 39t2 70.5t9 108v7q0 31 -23.5 44t-56.5 17t-64.5 4t-50.5 6q-63 -14 -129 -14q-80 0 -156.5 11.5t-156.5 15.5q-23 -4 -52.5 -19.5t-29.5 -44.5l-6 -260q0 -23 -1 -43t-1 -37zM369 1882q0 35 22.5 61.5 t57.5 32.5h14q14 0 39.5 -1t50.5 -7t43 -17.5t18 -29.5q-6 -23 -16 -30t-27 -7l-73 -74h-49q-14 -10 -29 -10q-10 0 -22.5 7.5t-12.5 23.5v4q-16 23 -16 47zM389 1872q0 -17 4 -25q6 -20 23 -20q8 0 15 8t16.5 19.5t22.5 22.5t32 15q4 0 6 2h10q10 10 21.5 13.5t11.5 19.5 q0 10 -16.5 19.5t-32.5 9.5q-41 0 -77 -22.5t-36 -61.5zM397 1032q0 -23 45 -106q94 -70 121 -70q10 0 23 6q0 -18 2 -41.5t7 -44t16.5 -34t33.5 -13.5q25 78 36 128t11 73q0 59 -6 86.5t-17.5 38t-27.5 11.5t-39 9q-19 -12 -164 -22q-14 0 -27.5 -5.5t-13.5 -15.5zM438 272 q0 -27 25 -39l20 -12q6 -12 11.5 -25.5t12.5 -25.5t18.5 -20.5t29.5 -8.5q29 0 45 10.5t27 22.5q8 14 12 35l4 2q16 -4 33 -14h33q23 -10 29.5 -33t12 -47.5t15.5 -43t37 -18.5q18 0 57 174q0 27 -5 49.5t-19.5 40t-41 26.5t-69.5 9q-96 0 -152.5 -4t-85 -11t-36 -14.5 t-7.5 -13.5q0 -2 1 -4t1 -4q-8 -10 -8 -31zM451 926l10 -2q-2 -2 -4 -2z" />
<glyph unicode="&#xea;" d="M74 1333q0 29 2 83t6 140l-4 74q0 53 16.5 95t79.5 49q68 -12 145 -13l193 2q45 -2 70.5 -4t41 -4t27 -4t25.5 -2l112 12q25 0 41.5 -10t24.5 -24.5t11 -32t3 -31.5q0 -233 -10 -250q-6 -16 -23.5 -30.5t-37.5 -14.5l-39 10l-8 21h-312v-324q45 18 97 19l92 16 q45 0 65.5 -28.5t20.5 -80.5v-38q0 -31 -7.5 -82.5t-18.5 -100.5t-26.5 -85t-29.5 -36t-28.5 10.5t-16.5 28.5h-148v-336q61 10 126 20.5t130 10.5q33 0 67 -3t61.5 -16.5t45 -41t17.5 -76.5q0 -14 -4 -57t-13.5 -89.5t-24 -83t-32.5 -36.5q-20 0 -31 10h-651v1085 q-31 2 -39 58.5t-16 189.5zM111 1329q0 -59 6 -80v-88q0 -25 13 -36t32 -11q16 0 47 41q63 -74 86 -74q14 0 27.5 9.5t17.5 31.5q10 100 12 198.5t10 197.5l35 12q14 -25 39 -40t51 -15q18 0 28.5 6t21 14t23.5 14.5t38 6.5q29 0 41 32l2 -10q12 -25 39 -25q20 0 35 15 q10 -16 14 -35.5t10 -37t15.5 -30t27.5 -12.5q25 0 34 11.5t11 39t2 70.5t9 108v7q0 31 -23.5 44t-56.5 17t-64.5 4t-50.5 6q-63 -14 -129 -14q-80 0 -156.5 11.5t-156.5 15.5q-23 -4 -52.5 -19.5t-29.5 -44.5l-6 -260q0 -23 -1 -43t-1 -37zM258 1780v14q18 33 46 61.5 t61.5 50t69.5 34t69 12.5q43 0 80 -19.5t62.5 -43t40.5 -43t15 -21.5q0 -6 -6 -14.5t-8 -12.5l8 -12l-129 45q-10 -27 -35 -27q-14 0 -22 8l-10 19l-80 -2l-43 -43h-35q-12 -10 -27.5 -19.5t-33.5 -9.5q-23 0 -23 23zM291 1819q0 -23 24 -23q10 0 28.5 17.5t57.5 44.5 l101 -17q8 -6 22 -6q16 0 22.5 11.5t20.5 19.5q2 -2 11 -2l10 -6q8 -16 24 -31q41 6 41 18q0 18 -16 33.5t-40 27t-51.5 17.5t-49.5 6q-25 0 -60 -9t-67.5 -24.5t-55 -36t-22.5 -40.5zM397 1032q0 -23 45 -106q94 -70 121 -70q10 0 23 6q0 -18 2 -41.5t7 -44t16.5 -34 t33.5 -13.5q25 78 36 128t11 73q0 59 -6 86.5t-17.5 38t-27.5 11.5t-39 9q-19 -12 -164 -22q-14 0 -27.5 -5.5t-13.5 -15.5zM438 272q0 -27 25 -39l20 -12q6 -12 11.5 -25.5t12.5 -25.5t18.5 -20.5t29.5 -8.5q29 0 45 10.5t27 22.5q8 14 12 35l4 2q16 -4 33 -14h33 q23 -10 29.5 -33t12 -47.5t15.5 -43t37 -18.5q18 0 57 174q0 27 -5 49.5t-19.5 40t-41 26.5t-69.5 9q-96 0 -152.5 -4t-85 -11t-36 -14.5t-7.5 -13.5q0 -2 1 -4t1 -4q-8 -10 -8 -31zM451 926l10 -2q-2 -2 -4 -2z" />
<glyph unicode="&#xeb;" d="M74 1333q0 29 2 83t6 140l-4 74q0 53 16.5 95t79.5 49q68 -12 145 -13l193 2q45 -2 70.5 -4t41 -4t27 -4t25.5 -2l112 12q25 0 41.5 -10t24.5 -24.5t11 -32t3 -31.5q0 -233 -10 -250q-6 -16 -23.5 -30.5t-37.5 -14.5l-39 10l-8 21h-312v-324q45 18 97 19l92 16 q45 0 65.5 -28.5t20.5 -80.5v-38q0 -31 -7.5 -82.5t-18.5 -100.5t-26.5 -85t-29.5 -36t-28.5 10.5t-16.5 28.5h-148v-336q61 10 126 20.5t130 10.5q33 0 67 -3t61.5 -16.5t45 -41t17.5 -76.5q0 -14 -4 -57t-13.5 -89.5t-24 -83t-32.5 -36.5q-20 0 -31 10h-651v1085 q-31 2 -39 58.5t-16 189.5zM111 1329q0 -59 6 -80v-88q0 -25 13 -36t32 -11q16 0 47 41q63 -74 86 -74q14 0 27.5 9.5t17.5 31.5q10 100 12 198.5t10 197.5l35 12q14 -25 39 -40t51 -15q18 0 28.5 6t21 14t23.5 14.5t38 6.5q29 0 41 32l2 -10q12 -25 39 -25q20 0 35 15 q10 -16 14 -35.5t10 -37t15.5 -30t27.5 -12.5q25 0 34 11.5t11 39t2 70.5t9 108v7q0 31 -23.5 44t-56.5 17t-64.5 4t-50.5 6q-63 -14 -129 -14q-80 0 -156.5 11.5t-156.5 15.5q-23 -4 -52.5 -19.5t-29.5 -44.5l-6 -260q0 -23 -1 -43t-1 -37zM221 1874q0 35 29 61.5t63 26.5 q20 0 45 -6t45.5 -17.5t34 -28t13.5 -36.5q0 -16 -6 -29v-6q0 -59 -89 -59q-61 0 -98 23.5t-37 70.5zM254 1892q0 -16 5 -32.5t22 -16.5q6 0 10 2h6q2 -6 14 -6h9q14 -16 36 -16q23 0 40.5 14t17.5 37q0 27 -24.5 37t-92.5 10q-31 0 -37 -8t-6 -21zM397 1032q0 -23 45 -106 q94 -70 121 -70q10 0 23 6q0 -18 2 -41.5t7 -44t16.5 -34t33.5 -13.5q25 78 36 128t11 73q0 59 -6 86.5t-17.5 38t-27.5 11.5t-39 9q-19 -12 -164 -22q-14 0 -27.5 -5.5t-13.5 -15.5zM438 272q0 -27 25 -39l20 -12q6 -12 11.5 -25.5t12.5 -25.5t18.5 -20.5t29.5 -8.5 q29 0 45 10.5t27 22.5q8 14 12 35l4 2q16 -4 33 -14h33q23 -10 29.5 -33t12 -47.5t15.5 -43t37 -18.5q18 0 57 174q0 27 -5 49.5t-19.5 40t-41 26.5t-69.5 9q-96 0 -152.5 -4t-85 -11t-36 -14.5t-7.5 -13.5q0 -2 1 -4t1 -4q-8 -10 -8 -31zM451 926l10 -2q-2 -2 -4 -2z M512 1839q0 37 19.5 73t72.5 36q66 0 103 -25t37 -59q0 -18 -11.5 -31.5t-33.5 -13.5h-15q-8 -39 -82 -39q-90 0 -90 59zM553 1872q0 -12 10.5 -28.5t30.5 -16.5q10 0 19.5 12t19.5 12q4 0 18.5 -6t24.5 -10l33 25q12 8 12 22q0 6 -2 16.5t-8 12.5l-21 12q-47 6 -71 6 q-35 0 -50.5 -17.5t-15.5 -39.5z" />
<glyph unicode="&#xec;" horiz-adv-x="610" d="M76 1448q0 37 2 91t9 104.5t22.5 87t40.5 36.5q4 0 7 -1t7 -1q6 6 98 17q4 -2 14 -2q35 0 70 15t64 15q53 -18 75.5 -37.5t29.5 -41t6 -45t5 -50.5q-4 -35 -5 -70.5t-1 -72.5v-125q0 -86 -9 -170t-50 -160v-1038h-307v1122l-23 6q-10 8 -32.5 93.5t-22.5 226.5zM106 1317 q74 -156 101 -156q4 0 15 -14t26 -14q-20 -43 -21 -89q0 -47 19.5 -78.5t42.5 -31.5q18 0 32.5 27.5t14.5 95.5h2q10 0 30.5 8t41 21.5t38 30t21.5 30.5q12 55 16 109.5t5.5 108.5t2.5 108.5t7 109.5q-4 27 -4 57.5t-5.5 57t-20.5 45t-52 18.5q-16 0 -30.5 -4t-31 -10 t-37 -10t-51.5 -4q-16 0 -31.5 2t-29.5 2q-35 0 -52.5 -28t-25.5 -82t-11.5 -132t-11.5 -178zM205 1927q0 31 39 31q78 0 123 -23.5t45 -40.5q0 -12 -14 -12l-2 -16q0 -4 -2 -4l14 -52h-78q-18 8 -39.5 16.5t-41 20t-32 30.5t-12.5 50zM224 1905q0 -14 16 -24.5t29 -10.5 l63 -10q8 -2 15.5 -2h13.5q33 0 33 16q0 20 -13.5 30.5t-33 14.5t-41 7t-37.5 11q-8 0 -19 -10h-6q-10 0 -15 -7t-5 -15z" />
<glyph unicode="&#xed;" horiz-adv-x="610" d="M76 1448q0 37 2 91t9 104.5t22.5 87t40.5 36.5q4 0 7 -1t7 -1q6 6 98 17q4 -2 14 -2q35 0 70 15t64 15q53 -18 75.5 -37.5t29.5 -41t6 -45t5 -50.5q-4 -35 -5 -70.5t-1 -72.5v-125q0 -86 -9 -170t-50 -160v-1038h-307v1122l-23 6q-10 8 -32.5 93.5t-22.5 226.5zM106 1317 q74 -156 101 -156q4 0 15 -14t26 -14q-20 -43 -21 -89q0 -47 19.5 -78.5t42.5 -31.5q18 0 32.5 27.5t14.5 95.5h2q10 0 30.5 8t41 21.5t38 30t21.5 30.5q12 55 16 109.5t5.5 108.5t2.5 108.5t7 109.5q-4 27 -4 57.5t-5.5 57t-20.5 45t-52 18.5q-16 0 -30.5 -4t-31 -10 t-37 -10t-51.5 -4q-16 0 -31.5 2t-29.5 2q-35 0 -52.5 -28t-25.5 -82t-11.5 -132t-11.5 -178zM191 1882q0 35 22.5 61.5t57.5 32.5h14q14 0 39.5 -1t50.5 -7t43 -17.5t18 -29.5q-6 -23 -16 -30t-27 -7l-73 -74h-49q-14 -10 -29 -10q-10 0 -22.5 7.5t-12.5 23.5v4 q-16 23 -16 47zM211 1872q0 -17 4 -25q6 -20 23 -20q8 0 15 8t16.5 19.5t22.5 22.5t32 15q4 0 6 2h10q10 10 21.5 13.5t11.5 19.5q0 10 -16.5 19.5t-32.5 9.5q-41 0 -77 -22.5t-36 -61.5z" />
<glyph unicode="&#xee;" horiz-adv-x="610" d="M76 1448q0 37 2 91t9 104.5t22.5 87t40.5 36.5q4 0 7 -1t7 -1q6 6 98 17q4 -2 14 -2q35 0 70 15t64 15q53 -18 75.5 -37.5t29.5 -41t6 -45t5 -50.5q-4 -35 -5 -70.5t-1 -72.5v-125q0 -86 -9 -170t-50 -160v-1038h-307v1122l-23 6q-10 8 -32.5 93.5t-22.5 226.5zM86 1780 v14q18 33 46 61.5t61.5 50t69.5 34t69 12.5q43 0 80 -19.5t62.5 -43t40.5 -43t15 -21.5q0 -6 -6 -14.5t-8 -12.5l8 -12l-129 45q-10 -27 -35 -27q-14 0 -22 8l-10 19l-80 -2l-43 -43h-35q-12 -10 -27.5 -19.5t-33.5 -9.5q-23 0 -23 23zM106 1317q74 -156 101 -156 q4 0 15 -14t26 -14q-20 -43 -21 -89q0 -47 19.5 -78.5t42.5 -31.5q18 0 32.5 27.5t14.5 95.5h2q10 0 30.5 8t41 21.5t38 30t21.5 30.5q12 55 16 109.5t5.5 108.5t2.5 108.5t7 109.5q-4 27 -4 57.5t-5.5 57t-20.5 45t-52 18.5q-16 0 -30.5 -4t-31 -10t-37 -10t-51.5 -4 q-16 0 -31.5 2t-29.5 2q-35 0 -52.5 -28t-25.5 -82t-11.5 -132t-11.5 -178zM119 1819q0 -23 24 -23q10 0 28.5 17.5t57.5 44.5l101 -17q8 -6 22 -6q16 0 22.5 11.5t20.5 19.5q2 -2 11 -2l10 -6q8 -16 24 -31q41 6 41 18q0 18 -16 33.5t-40 27t-51.5 17.5t-49.5 6 q-25 0 -60 -9t-67.5 -24.5t-55 -36t-22.5 -40.5z" />
<glyph unicode="&#xef;" horiz-adv-x="610" d="M51 1874q0 35 29 61.5t63 26.5q20 0 45 -6t45.5 -17.5t34 -28t13.5 -36.5q0 -16 -6 -29v-6q0 -59 -89 -59q-61 0 -98 23.5t-37 70.5zM76 1448q0 37 2 91t9 104.5t22.5 87t40.5 36.5q4 0 7 -1t7 -1q6 6 98 17q4 -2 14 -2q35 0 70 15t64 15q53 -18 75.5 -37.5t29.5 -41 t6 -45t5 -50.5q-4 -35 -5 -70.5t-1 -72.5v-125q0 -86 -9 -170t-50 -160v-1038h-307v1122l-23 6q-10 8 -32.5 93.5t-22.5 226.5zM84 1892q0 -16 5 -32.5t22 -16.5q6 0 10 2h6q2 -6 14 -6h9q14 -16 36 -16q23 0 40.5 14t17.5 37q0 27 -24.5 37t-92.5 10q-31 0 -37 -8t-6 -21z M106 1317q74 -156 101 -156q4 0 15 -14t26 -14q-20 -43 -21 -89q0 -47 19.5 -78.5t42.5 -31.5q18 0 32.5 27.5t14.5 95.5h2q10 0 30.5 8t41 21.5t38 30t21.5 30.5q12 55 16 109.5t5.5 108.5t2.5 108.5t7 109.5q-4 27 -4 57.5t-5.5 57t-20.5 45t-52 18.5q-16 0 -30.5 -4 t-31 -10t-37 -10t-51.5 -4q-16 0 -31.5 2t-29.5 2q-35 0 -52.5 -28t-25.5 -82t-11.5 -132t-11.5 -178zM342 1839q0 37 19.5 73t72.5 36q66 0 103 -25t37 -59q0 -18 -11.5 -31.5t-33.5 -13.5h-15q-8 -39 -82 -39q-90 0 -90 59zM383 1872q0 -12 10.5 -28.5t30.5 -16.5 q10 0 19.5 12t19.5 12q4 0 18.5 -6t24.5 -10l33 25q12 8 12 22q0 6 -2 16.5t-8 12.5l-21 12q-47 6 -71 6q-35 0 -50.5 -17.5t-15.5 -39.5z" />
<glyph unicode="&#xf1;" horiz-adv-x="1075" d="M82 1622q0 45 20.5 78t52 54.5t72.5 32.5t84 11q63 0 102.5 -19.5t60 -50t26.5 -70.5t6 -79q0 -23 -1 -45.5t-3 -44.5l53 -186q29 0 45 -25l6 -10v188q-12 4 -19 21.5t-10.5 40t-4.5 46t-1 42.5q0 25 3.5 58.5t13.5 63t30.5 51t55.5 21.5q41 0 83 -10t83 -10q14 0 27.5 3 t27.5 3q27 0 45 -14.5t29.5 -34t15.5 -42t4 -38.5q0 -41 -10 -84t-12 -82q-10 -37 -18.5 -86t-35.5 -80v-1325h-270l-166 532v-532h-309v1274q-53 25 -65.5 74t-12.5 108v64q0 29 -4 54t-4 48zM117 1450q0 -16 1 -42t8 -49.5t21.5 -39.5t42.5 -16q25 0 47.5 20t24.5 31 l2 -35q0 -18 15.5 -28.5t33.5 -10.5q20 0 32.5 15.5t18 37t6.5 46t1 44.5q2 -12 14 -28q6 -9 10 -17q2 -4 11.5 -34.5t26 -75.5t35.5 -96.5t41.5 -94.5t44 -71.5t42.5 -28.5q16 0 28.5 11t19.5 28.5t11 36t4 32.5q0 66 -38.5 120.5t-92.5 78.5q-12 12 -18 45t-14 55 q6 12 6 31q0 27 -7.5 55.5t-9.5 53.5q-8 39 -10 81t-15.5 76.5t-45 58t-99.5 23.5q-35 0 -69.5 -10t-63 -28.5t-46 -45t-17.5 -61.5q0 -14 2 -23q0 -39 -2 -74.5t-2 -70.5zM289 1829q0 29 15 55.5t42 46t61.5 30.5t73.5 11q72 0 99 -57q-16 10 -37 18.5t-43 8.5h-15l-27 -2 q-28 -3 -62 -14t-61.5 -34.5t-27.5 -68.5q0 -25 23 -25q18 0 26.5 15.5t20.5 33t35.5 32.5t72.5 15q25 0 45.5 -9t39 -19.5t37 -19.5t40.5 -9q27 0 53.5 9t49.5 22l6 26q0 12 -17 21q-90 -25 -114 -25q-4 0 -5.5 1t-3.5 1l-28 17q12 -2 22.5 -3t22.5 -5q86 33 121 32 q18 0 26 -19.5t8 -35.5q0 -25 -17 -47.5t-40 -22.5q-14 1 -24 9q-23 -31 -50 -31q-20 0 -61 29q-18 4 -39.5 3t-32.5 17q-8 14 -23.5 23.5t-33.5 13.5q-35 -8 -57 -80h-35q-12 -25 -39 -25q-47 0 -47 62zM594 1128l4 5l10 -31zM596 1593q0 -47 19.5 -85t76.5 -38q4 -4 8 -4 v-159q0 -41 7.5 -77t40.5 -36q18 0 33.5 11.5t15.5 37.5q0 39 -1 75t-1 75q10 -16 24.5 -34t36.5 -18q18 0 30.5 11.5t33.5 21.5q4 66 19 128.5t15 125.5q0 51 -16 71.5t-40 27t-51.5 4.5t-49.5 8h2q-10 4 -17.5 9t-15.5 5q-10 0 -14 -4q-25 18 -54 18q-35 0 -63.5 -23.5 t-28.5 -62.5v-6q-10 -41 -10 -82zM698 1667v2h2z" />
</font>
</defs>
</svg>
